<?xml version="1.0" encoding="utf-8"?>
<!-- Generator: Adobe Illustrator 16.0.0, SVG Export Plug-In . SVG Version: 6.00 Build 0)  -->
<!DOCTYPE svg PUBLIC "-//W3C//DTD SVG 1.1//EN" "http://www.w3.org/Graphics/SVG/1.1/DTD/svg11.dtd">
<svg version="1.1" id="Layer_1" xmlns="http://www.w3.org/2000/svg" xmlns:xlink="http://www.w3.org/1999/xlink" x="0px" y="0px"
	 width="170px" height="40px" viewBox="0 0 170 40" enable-background="new 0 0 170 40" xml:space="preserve">
<g>
	<defs>
		<rect id="SVGID_1_" x="1.168" y="0.35" width="167.832" height="39.65"/>
	</defs>
	<clipPath id="SVGID_2_">
		<use xlink:href="#SVGID_1_"  overflow="visible"/>
	</clipPath>
	<path clip-path="url(#SVGID_2_)" fill="#EE3436" d="M121.943,31.937c-0.011,0.018-0.035,0.025-0.078,0.025h-1.232
		c-0.149,0-0.273-0.021-0.373-0.063c-0.097-0.043-0.178-0.1-0.237-0.171c-0.061-0.07-0.101-0.153-0.124-0.247
		c-0.022-0.096-0.034-0.195-0.034-0.299v-1.541c0-0.104,0.013-0.202,0.041-0.297c0.028-0.093,0.073-0.178,0.137-0.251
		c0.062-0.07,0.141-0.129,0.239-0.172c0.097-0.042,0.213-0.064,0.352-0.064h1.217c0.039,0,0.064,0.009,0.075,0.026
		c0.012,0.018,0.015,0.043,0.015,0.075v0.213c0,0.037-0.003,0.064-0.015,0.078c-0.011,0.014-0.036,0.021-0.075,0.021h-1.217
		c-0.109,0-0.192,0.023-0.24,0.072c-0.049,0.049-0.072,0.125-0.072,0.232v0.545h1.381c0.038,0,0.063,0.009,0.074,0.022
		c0.01,0.016,0.016,0.041,0.016,0.079v0.187c0,0.033-0.006,0.058-0.016,0.075c-0.012,0.019-0.036,0.027-0.074,0.027h-1.381v0.734
		c0,0.091,0.023,0.163,0.072,0.218c0.048,0.058,0.131,0.084,0.24,0.084h1.232c0.043,0,0.067,0.007,0.078,0.023
		c0.009,0.014,0.017,0.04,0.017,0.078v0.212C121.96,31.894,121.952,31.917,121.943,31.937"/>
	<path clip-path="url(#SVGID_2_)" fill="#EE3436" d="M124.443,30.398c0-0.156-0.016-0.303-0.044-0.44
		c-0.033-0.138-0.085-0.258-0.155-0.359c-0.072-0.102-0.172-0.183-0.295-0.24c-0.123-0.06-0.273-0.089-0.454-0.089h-0.562v2.276
		h0.576c0.18,0,0.329-0.029,0.449-0.086c0.119-0.058,0.214-0.139,0.287-0.239c0.072-0.102,0.124-0.223,0.153-0.363
		C124.43,30.717,124.443,30.563,124.443,30.398 M122.707,31.962c-0.085,0-0.146-0.019-0.185-0.056
		c-0.035-0.035-0.054-0.098-0.054-0.183v-2.628c0-0.083,0.019-0.146,0.054-0.184c0.039-0.037,0.1-0.056,0.185-0.056l0.812-0.003
		c0.23,0,0.431,0.035,0.604,0.105c0.172,0.072,0.317,0.173,0.436,0.308c0.118,0.134,0.208,0.298,0.267,0.487
		c0.06,0.19,0.088,0.402,0.088,0.635s-0.027,0.443-0.079,0.637c-0.054,0.193-0.136,0.359-0.246,0.499
		c-0.11,0.138-0.251,0.246-0.421,0.321c-0.168,0.078-0.371,0.116-0.604,0.116H122.707z"/>
	<path clip-path="url(#SVGID_2_)" fill="#EE3436" d="M125.485,28.955c0-0.042,0.008-0.067,0.024-0.078
		c0.02-0.01,0.043-0.016,0.076-0.016h0.267c0.04,0,0.064,0.006,0.078,0.016c0.016,0.011,0.023,0.036,0.023,0.078v1.644
		c0,0.172,0.012,0.318,0.034,0.445c0.021,0.126,0.065,0.23,0.127,0.313c0.064,0.083,0.155,0.147,0.275,0.189
		c0.12,0.041,0.278,0.061,0.472,0.061c0.051,0,0.123-0.002,0.217-0.006c0.096-0.004,0.202-0.018,0.323-0.043v-2.604
		c0-0.042,0.009-0.067,0.025-0.078c0.018-0.01,0.045-0.016,0.077-0.016h0.267c0.038,0,0.061,0.006,0.069,0.016
		c0.01,0.011,0.013,0.036,0.013,0.078v2.578c0,0.117-0.025,0.214-0.079,0.287c-0.05,0.073-0.145,0.123-0.281,0.146
		c-0.113,0.018-0.227,0.031-0.342,0.038c-0.117,0.008-0.222,0.011-0.315,0.011c-0.245,0-0.454-0.023-0.625-0.07
		c-0.171-0.048-0.311-0.125-0.416-0.235c-0.107-0.109-0.185-0.255-0.232-0.433c-0.05-0.182-0.073-0.405-0.073-0.671L125.485,28.955z
		"/>
	<path clip-path="url(#SVGID_2_)" fill="#EE3436" d="M129.848,31.583c0.131,0,0.252-0.016,0.366-0.046
		c0.113-0.027,0.219-0.064,0.316-0.105c0.037-0.016,0.066-0.018,0.082-0.003c0.017,0.012,0.027,0.026,0.033,0.042l0.093,0.213
		c0.021,0.041,0.027,0.069,0.021,0.081c-0.007,0.014-0.021,0.026-0.042,0.043c-0.142,0.086-0.298,0.141-0.468,0.167
		c-0.171,0.023-0.331,0.037-0.481,0.037c-0.209,0-0.396-0.033-0.563-0.095c-0.164-0.061-0.306-0.154-0.42-0.281
		c-0.116-0.126-0.203-0.289-0.265-0.483c-0.06-0.196-0.091-0.428-0.091-0.695c0-0.249,0.034-0.473,0.099-0.674
		c0.068-0.202,0.161-0.374,0.28-0.517c0.121-0.142,0.264-0.253,0.436-0.332c0.17-0.078,0.356-0.117,0.56-0.117
		c0.123,0,0.256,0.012,0.392,0.033c0.137,0.022,0.281,0.071,0.433,0.147c0.018,0.011,0.031,0.022,0.037,0.038
		c0.008,0.017,0.003,0.04-0.015,0.073l-0.111,0.23c-0.014,0.021-0.022,0.035-0.034,0.041c-0.011,0.009-0.028,0.007-0.056-0.006
		c-0.09-0.038-0.19-0.07-0.296-0.092c-0.106-0.023-0.216-0.036-0.33-0.036c-0.166,0-0.304,0.035-0.42,0.104
		c-0.118,0.068-0.212,0.162-0.286,0.274c-0.073,0.114-0.128,0.243-0.163,0.389c-0.037,0.144-0.055,0.292-0.055,0.443
		c0,0.149,0.016,0.294,0.045,0.429c0.029,0.136,0.08,0.257,0.153,0.359c0.071,0.104,0.167,0.187,0.289,0.245
		C129.507,31.551,129.662,31.583,129.848,31.583"/>
	<path clip-path="url(#SVGID_2_)" fill="#EE3436" d="M132.462,30.004l-0.199-0.628h-0.021l-0.188,0.606l-0.269,0.877h0.947
		L132.462,30.004z M133.192,31.962c-0.032,0-0.059-0.002-0.075-0.008c-0.018-0.006-0.033-0.027-0.044-0.063l-0.209-0.629h-1.199
		l-0.21,0.629c-0.007,0.024-0.021,0.041-0.036,0.054c-0.014,0.012-0.037,0.017-0.07,0.017h-0.34c-0.033,0-0.054-0.009-0.061-0.028
		c-0.01-0.02-0.01-0.04,0-0.063l0.981-2.823c0.026-0.077,0.057-0.127,0.09-0.151c0.032-0.026,0.085-0.039,0.163-0.042h0.147
		c0.087,0,0.147,0.014,0.181,0.042c0.031,0.027,0.061,0.078,0.084,0.151l0.987,2.823c0.01,0.023,0.01,0.044,0,0.063
		c-0.008,0.02-0.029,0.028-0.057,0.028H133.192z"/>
	<path clip-path="url(#SVGID_2_)" fill="#EE3436" d="M135.408,32.25c0.054,0.021,0.1,0.047,0.133,0.077
		c0.031,0.033,0.055,0.067,0.07,0.106c0.015,0.041,0.021,0.079,0.021,0.118c0,0.042-0.008,0.082-0.028,0.125
		c-0.02,0.043-0.048,0.084-0.086,0.117c-0.039,0.037-0.089,0.065-0.146,0.088c-0.059,0.021-0.128,0.033-0.208,0.033
		c-0.073,0-0.146-0.009-0.216-0.021c-0.071-0.013-0.13-0.032-0.173-0.056c-0.038-0.011-0.048-0.035-0.032-0.074l0.034-0.094
		c0.012-0.022,0.023-0.037,0.031-0.038c0.01-0.001,0.024,0.001,0.046,0.008c0.085,0.029,0.17,0.045,0.256,0.045
		c0.145,0,0.217-0.049,0.217-0.144c0-0.05-0.024-0.086-0.074-0.104c-0.05-0.022-0.105-0.032-0.164-0.032H135
		c-0.018,0-0.032-0.007-0.044-0.019c-0.016-0.014-0.022-0.029-0.02-0.048c0.004-0.018,0.009-0.038,0.014-0.062l0.093-0.274
		c-0.359-0.036-0.641-0.18-0.841-0.431s-0.301-0.623-0.301-1.115c0-0.249,0.032-0.473,0.1-0.674
		c0.066-0.202,0.159-0.373,0.278-0.517c0.119-0.142,0.266-0.253,0.436-0.333c0.169-0.077,0.357-0.117,0.559-0.117
		c0.125,0,0.257,0.013,0.393,0.034c0.139,0.022,0.281,0.071,0.432,0.147c0.019,0.011,0.03,0.022,0.039,0.038
		c0.006,0.017,0.002,0.04-0.017,0.073l-0.111,0.23c-0.011,0.022-0.022,0.035-0.031,0.042c-0.011,0.007-0.03,0.005-0.055-0.007
		c-0.094-0.038-0.19-0.07-0.298-0.092c-0.106-0.023-0.217-0.036-0.332-0.036c-0.162,0-0.304,0.035-0.418,0.104
		c-0.117,0.068-0.212,0.162-0.286,0.274c-0.076,0.114-0.131,0.243-0.164,0.389c-0.037,0.145-0.053,0.292-0.053,0.443
		c0,0.149,0.013,0.294,0.043,0.429c0.03,0.136,0.081,0.257,0.153,0.358c0.072,0.104,0.169,0.187,0.29,0.246
		c0.12,0.061,0.275,0.092,0.46,0.092c0.13,0,0.253-0.015,0.365-0.045c0.114-0.028,0.221-0.064,0.317-0.106
		c0.038-0.015,0.065-0.017,0.082-0.003c0.016,0.014,0.027,0.027,0.033,0.042l0.094,0.214c0.02,0.041,0.027,0.069,0.02,0.081
		c-0.008,0.014-0.021,0.027-0.044,0.043c-0.134,0.082-0.284,0.136-0.45,0.162c-0.165,0.024-0.321,0.038-0.47,0.042l-0.067,0.198
		C135.281,32.215,135.352,32.23,135.408,32.25"/>
	<path clip-path="url(#SVGID_2_)" fill="#EE3436" d="M137.932,30.004l-0.199-0.628h-0.021l-0.188,0.606l-0.27,0.877h0.947
		L137.932,30.004z M138.025,28.631c-0.052,0-0.104-0.008-0.152-0.024c-0.049-0.016-0.099-0.035-0.147-0.054
		c-0.048-0.02-0.097-0.037-0.144-0.056c-0.048-0.017-0.095-0.025-0.147-0.025c-0.038,0-0.072,0.013-0.103,0.035
		c-0.032,0.024-0.056,0.053-0.072,0.085c-0.012,0.015-0.021,0.025-0.034,0.033c-0.013,0.007-0.033,0.005-0.06-0.007l-0.151-0.067
		c-0.026-0.008-0.045-0.018-0.052-0.026c-0.01-0.009-0.008-0.023,0.004-0.049c0.05-0.087,0.113-0.163,0.19-0.23
		c0.077-0.064,0.174-0.099,0.289-0.099c0.051,0,0.103,0.01,0.15,0.029c0.046,0.017,0.093,0.037,0.138,0.06
		c0.047,0.022,0.09,0.042,0.135,0.06c0.042,0.019,0.085,0.026,0.125,0.026c0.043,0,0.083-0.013,0.118-0.035
		c0.032-0.025,0.059-0.054,0.073-0.088c0.01-0.024,0.022-0.038,0.031-0.042c0.012-0.003,0.029,0,0.05,0.005l0.175,0.049
		c0.05,0.009,0.068,0.031,0.054,0.067c-0.051,0.109-0.112,0.195-0.183,0.258C138.243,28.6,138.146,28.631,138.025,28.631
		 M138.663,31.962c-0.032,0-0.058-0.002-0.075-0.008c-0.019-0.006-0.032-0.027-0.044-0.063l-0.211-0.629h-1.198l-0.209,0.629
		c-0.008,0.024-0.019,0.041-0.034,0.054c-0.015,0.012-0.038,0.017-0.071,0.017h-0.341c-0.032,0-0.053-0.009-0.063-0.028
		c-0.008-0.02-0.008-0.04,0-0.063l0.983-2.823c0.028-0.077,0.057-0.127,0.09-0.151c0.032-0.026,0.088-0.039,0.163-0.042h0.146
		c0.088,0,0.149,0.014,0.183,0.042c0.032,0.027,0.061,0.078,0.084,0.151l0.988,2.823c0.007,0.023,0.007,0.044,0,0.063
		c-0.011,0.02-0.03,0.028-0.057,0.028H138.663z"/>
	<path clip-path="url(#SVGID_2_)" fill="#EE3436" d="M141.574,30.416c0-0.153-0.012-0.303-0.036-0.446
		c-0.023-0.146-0.066-0.274-0.128-0.382c-0.063-0.11-0.147-0.197-0.259-0.263c-0.112-0.066-0.256-0.1-0.434-0.1
		c-0.149,0-0.279,0.031-0.391,0.093c-0.11,0.062-0.204,0.145-0.274,0.253c-0.073,0.105-0.128,0.23-0.165,0.372
		c-0.037,0.145-0.055,0.296-0.055,0.455c0,0.182,0.015,0.343,0.041,0.492c0.029,0.148,0.078,0.272,0.144,0.379
		c0.065,0.104,0.154,0.187,0.264,0.242c0.112,0.058,0.25,0.087,0.416,0.087c0.168,0,0.309-0.033,0.419-0.101
		c0.113-0.065,0.204-0.152,0.271-0.263c0.068-0.109,0.116-0.234,0.144-0.377C141.561,30.717,141.574,30.57,141.574,30.416
		 M142.038,30.398c0,0.52-0.112,0.918-0.341,1.196c-0.228,0.278-0.562,0.417-1.006,0.417c-0.434,0-0.762-0.135-0.983-0.402
		c-0.225-0.267-0.336-0.664-0.336-1.193c0-0.256,0.035-0.484,0.103-0.684c0.066-0.2,0.162-0.367,0.28-0.504
		c0.119-0.135,0.262-0.238,0.423-0.31c0.161-0.069,0.338-0.107,0.527-0.107c0.218,0,0.411,0.038,0.577,0.109
		c0.165,0.073,0.303,0.178,0.415,0.313c0.112,0.14,0.196,0.304,0.254,0.499C142.01,29.929,142.038,30.149,142.038,30.398"/>
	<path clip-path="url(#SVGID_2_)" fill="#EE3436" d="M145.091,30.004l-0.2-0.628h-0.021l-0.188,0.606l-0.269,0.877h0.947
		L145.091,30.004z M145.821,31.962c-0.032,0-0.057-0.002-0.075-0.008c-0.017-0.006-0.032-0.027-0.045-0.063l-0.208-0.629h-1.2
		l-0.208,0.629c-0.01,0.024-0.02,0.041-0.036,0.054c-0.014,0.012-0.037,0.017-0.069,0.017h-0.342c-0.032,0-0.053-0.009-0.063-0.028
		c-0.009-0.02-0.009-0.04,0-0.063l0.983-2.823c0.027-0.077,0.058-0.127,0.09-0.151c0.032-0.026,0.086-0.039,0.163-0.042h0.146
		c0.088,0,0.147,0.014,0.183,0.042c0.031,0.027,0.06,0.078,0.083,0.151l0.989,2.823c0.008,0.023,0.008,0.044,0,0.063
		s-0.03,0.028-0.058,0.028H145.821z"/>
	<path clip-path="url(#SVGID_2_)" fill="#EE3436" d="M149.813,30.398c0-0.156-0.016-0.303-0.046-0.44
		c-0.032-0.138-0.083-0.258-0.154-0.359c-0.075-0.102-0.171-0.183-0.294-0.24c-0.121-0.06-0.273-0.089-0.454-0.089h-0.563v2.276
		h0.576c0.181,0,0.33-0.029,0.45-0.086c0.12-0.058,0.216-0.139,0.289-0.239c0.072-0.102,0.123-0.223,0.15-0.363
		C149.799,30.717,149.813,30.563,149.813,30.398 M148.077,31.962c-0.087,0-0.148-0.019-0.186-0.056
		c-0.036-0.035-0.056-0.098-0.056-0.183v-2.628c0-0.083,0.02-0.146,0.056-0.184c0.037-0.037,0.099-0.056,0.186-0.056l0.812-0.003
		c0.228,0,0.43,0.035,0.604,0.105c0.173,0.072,0.316,0.173,0.436,0.308c0.119,0.134,0.207,0.298,0.265,0.487
		c0.06,0.19,0.091,0.402,0.091,0.635s-0.029,0.443-0.08,0.637c-0.054,0.193-0.137,0.359-0.247,0.499
		c-0.11,0.138-0.25,0.246-0.422,0.321c-0.167,0.078-0.369,0.116-0.602,0.116H148.077z"/>
	<path clip-path="url(#SVGID_2_)" fill="#EE3436" d="M150.905,28.955c0-0.042,0.012-0.067,0.028-0.078
		c0.018-0.01,0.043-0.016,0.075-0.016h0.257c0.038,0,0.067,0.006,0.081,0.016c0.013,0.011,0.021,0.036,0.021,0.078v2.914
		c0,0.041-0.008,0.067-0.021,0.077c-0.014,0.012-0.043,0.016-0.081,0.016h-0.257c-0.032,0-0.058-0.004-0.075-0.016
		c-0.017-0.01-0.028-0.036-0.028-0.077V28.955z"/>
	<path clip-path="url(#SVGID_2_)" fill="#EE3436" d="M154.171,31.121c0,0.154-0.028,0.286-0.087,0.398
		c-0.057,0.111-0.136,0.204-0.232,0.277c-0.099,0.072-0.215,0.125-0.347,0.16c-0.131,0.037-0.271,0.054-0.417,0.054
		c-0.185,0-0.376-0.015-0.578-0.046c-0.199-0.031-0.388-0.09-0.564-0.18c-0.035-0.015-0.045-0.045-0.022-0.092l0.119-0.271
		c0.019-0.035,0.044-0.047,0.08-0.029c0.318,0.138,0.613,0.206,0.886,0.206c0.247,0,0.425-0.042,0.534-0.126
		c0.106-0.082,0.158-0.194,0.158-0.334c0-0.072-0.013-0.134-0.041-0.189c-0.031-0.054-0.075-0.104-0.134-0.149
		c-0.057-0.045-0.127-0.088-0.211-0.13c-0.084-0.037-0.182-0.08-0.295-0.126c-0.163-0.063-0.309-0.128-0.433-0.19
		c-0.126-0.062-0.228-0.127-0.313-0.198c-0.083-0.071-0.147-0.149-0.188-0.234c-0.045-0.086-0.067-0.185-0.067-0.298
		c0-0.245,0.082-0.442,0.244-0.591c0.163-0.15,0.405-0.225,0.726-0.225c0.074,0,0.155,0.004,0.241,0.012
		c0.085,0.007,0.169,0.02,0.254,0.034c0.084,0.014,0.166,0.033,0.245,0.055c0.079,0.022,0.154,0.047,0.22,0.077
		c0.038,0.017,0.047,0.043,0.031,0.074l-0.101,0.285c-0.008,0.022-0.017,0.036-0.026,0.039c-0.008,0.003-0.022,0.003-0.036-0.003
		c-0.148-0.055-0.299-0.095-0.444-0.119c-0.146-0.024-0.278-0.037-0.399-0.037c-0.17,0-0.293,0.035-0.372,0.106
		c-0.079,0.07-0.121,0.157-0.121,0.257c0,0.064,0.017,0.122,0.048,0.171c0.03,0.049,0.08,0.096,0.144,0.141
		c0.064,0.043,0.146,0.087,0.244,0.131c0.096,0.044,0.212,0.095,0.344,0.151c0.113,0.048,0.224,0.097,0.332,0.149
		c0.108,0.051,0.209,0.112,0.294,0.183c0.084,0.069,0.154,0.154,0.207,0.253C154.146,30.863,154.171,30.981,154.171,31.121"/>
	<path clip-path="url(#SVGID_2_)" fill="#EE3436" d="M155.283,29.265h-0.845c-0.033,0-0.054-0.005-0.061-0.018
		s-0.011-0.031-0.011-0.059V28.94c0-0.025,0.004-0.045,0.011-0.06c0.007-0.014,0.027-0.02,0.061-0.02h2.182
		c0.034,0,0.054,0.006,0.06,0.02c0.009,0.015,0.012,0.034,0.012,0.06v0.248c0,0.027-0.003,0.046-0.012,0.059
		c-0.006,0.013-0.025,0.018-0.06,0.018h-0.867v2.604c0,0.041-0.006,0.067-0.022,0.077c-0.015,0.011-0.041,0.017-0.078,0.017h-0.268
		c-0.031,0-0.058-0.006-0.075-0.017c-0.018-0.01-0.026-0.036-0.026-0.077V29.265z"/>
	<path clip-path="url(#SVGID_2_)" fill="#EE3436" d="M158.083,30.004l-0.2-0.628h-0.022l-0.186,0.606l-0.271,0.877h0.948
		L158.083,30.004z M158.549,28.663c-0.013,0.015-0.026,0.019-0.04,0.015c-0.017-0.005-0.034-0.013-0.059-0.024l-0.58-0.275
		l-0.576,0.285c-0.017,0.008-0.032,0.012-0.043,0.01c-0.011-0.001-0.025-0.008-0.041-0.023l-0.081-0.094
		c-0.006-0.011-0.013-0.023-0.015-0.037c-0.005-0.009,0.002-0.022,0.015-0.033l0.564-0.453c0.065-0.052,0.126-0.08,0.181-0.08
		c0.021,0,0.048,0.004,0.082,0.012c0.031,0.007,0.07,0.031,0.115,0.068l0.54,0.453c0.033,0.026,0.036,0.058,0.01,0.093
		L158.549,28.663z M158.813,31.962c-0.03,0-0.058-0.002-0.074-0.008s-0.032-0.027-0.044-0.063l-0.208-0.629h-1.202l-0.207,0.629
		c-0.009,0.024-0.021,0.041-0.037,0.054c-0.015,0.012-0.037,0.017-0.069,0.017h-0.341c-0.034,0-0.053-0.009-0.063-0.028
		c-0.008-0.02-0.008-0.04,0-0.063l0.982-2.823c0.028-0.077,0.058-0.127,0.091-0.151c0.033-0.026,0.086-0.039,0.163-0.042h0.147
		c0.087,0,0.148,0.014,0.181,0.042c0.032,0.027,0.061,0.078,0.084,0.151l0.989,2.823c0.008,0.023,0.008,0.044,0,0.063
		c-0.01,0.02-0.029,0.028-0.059,0.028H158.813z"/>
	<path clip-path="url(#SVGID_2_)" fill="#EE3436" d="M161.601,28.951c0-0.042,0.009-0.068,0.025-0.079
		c0.019-0.011,0.044-0.016,0.076-0.016h0.244c0.037,0,0.063,0.005,0.08,0.016c0.015,0.011,0.021,0.037,0.021,0.079v2.769
		c0,0.081-0.017,0.142-0.051,0.182c-0.033,0.041-0.097,0.061-0.188,0.061h-0.135c-0.068,0-0.121-0.014-0.155-0.045
		c-0.03-0.028-0.066-0.077-0.109-0.145l-0.974-1.626l-0.363-0.63h-0.014v2.353c0,0.041-0.007,0.067-0.022,0.078
		c-0.014,0.01-0.042,0.015-0.079,0.015h-0.243c-0.034,0-0.058-0.005-0.075-0.015c-0.017-0.011-0.028-0.037-0.028-0.078V29.1
		c0-0.082,0.018-0.145,0.052-0.184c0.035-0.039,0.097-0.06,0.188-0.06h0.134c0.071,0,0.121,0.015,0.153,0.045
		c0.034,0.029,0.068,0.078,0.111,0.146l0.96,1.606l0.378,0.648h0.014V28.951z"/>
	<path clip-path="url(#SVGID_2_)" fill="#EE3436" d="M164.04,31.583c0.131,0,0.253-0.016,0.366-0.046
		c0.113-0.027,0.219-0.064,0.317-0.105c0.039-0.016,0.065-0.018,0.082-0.003c0.017,0.012,0.025,0.026,0.033,0.042l0.091,0.213
		c0.023,0.041,0.028,0.069,0.022,0.081c-0.007,0.014-0.022,0.026-0.044,0.043c-0.141,0.086-0.298,0.141-0.466,0.167
		c-0.17,0.023-0.329,0.037-0.482,0.037c-0.209,0-0.396-0.033-0.562-0.095c-0.166-0.061-0.307-0.154-0.421-0.281
		c-0.115-0.126-0.201-0.289-0.263-0.483c-0.061-0.196-0.093-0.428-0.093-0.695c0-0.249,0.036-0.473,0.102-0.674
		c0.066-0.202,0.159-0.374,0.278-0.517c0.119-0.142,0.264-0.253,0.436-0.332c0.168-0.078,0.355-0.117,0.559-0.117
		c0.124,0,0.254,0.012,0.393,0.033c0.137,0.022,0.279,0.071,0.433,0.147c0.018,0.011,0.03,0.022,0.038,0.038
		c0.007,0.017,0.001,0.04-0.018,0.073l-0.109,0.23c-0.013,0.021-0.023,0.035-0.034,0.041c-0.01,0.009-0.03,0.007-0.056-0.006
		c-0.092-0.038-0.19-0.07-0.297-0.092c-0.105-0.023-0.216-0.036-0.331-0.036c-0.161,0-0.303,0.035-0.42,0.104
		s-0.211,0.162-0.285,0.274c-0.074,0.114-0.127,0.243-0.163,0.389c-0.036,0.144-0.055,0.292-0.055,0.443
		c0,0.149,0.017,0.294,0.046,0.429c0.028,0.136,0.08,0.257,0.152,0.359c0.072,0.104,0.169,0.187,0.29,0.245
		C163.702,31.551,163.855,31.583,164.04,31.583"/>
	<path clip-path="url(#SVGID_2_)" fill="#EE3436" d="M165.445,28.955c0-0.042,0.007-0.067,0.025-0.078
		c0.019-0.01,0.045-0.016,0.077-0.016h0.256c0.038,0,0.064,0.006,0.081,0.016c0.014,0.011,0.021,0.036,0.021,0.078v2.914
		c0,0.041-0.007,0.067-0.021,0.077c-0.017,0.012-0.043,0.016-0.081,0.016h-0.256c-0.032,0-0.059-0.004-0.077-0.016
		c-0.019-0.01-0.025-0.036-0.025-0.077V28.955z"/>
	<path clip-path="url(#SVGID_2_)" fill="#EE3436" d="M167.873,30.004l-0.2-0.628h-0.022l-0.186,0.606l-0.27,0.877h0.948
		L167.873,30.004z M168.604,31.962c-0.032,0-0.058-0.002-0.076-0.008c-0.017-0.006-0.03-0.027-0.043-0.063l-0.208-0.629h-1.201
		l-0.208,0.629c-0.01,0.024-0.021,0.041-0.035,0.054c-0.016,0.012-0.039,0.017-0.071,0.017h-0.341c-0.033,0-0.054-0.009-0.061-0.028
		c-0.01-0.02-0.01-0.04,0-0.063l0.981-2.823c0.025-0.077,0.057-0.127,0.09-0.151c0.031-0.026,0.086-0.039,0.162-0.042h0.147
		c0.088,0,0.148,0.014,0.182,0.042c0.031,0.027,0.06,0.078,0.084,0.151l0.987,2.823c0.009,0.023,0.009,0.044,0,0.063
		s-0.029,0.028-0.057,0.028H168.604z"/>
	<path clip-path="url(#SVGID_2_)" fill="#EE3436" d="M133.466,21.48h2.697l-1.289-4.657h-0.101L133.466,21.48z M136.782,23.595
		h-3.937l-0.67,2.183c-0.032,0.115-0.082,0.197-0.144,0.249c-0.063,0.051-0.174,0.078-0.336,0.078h-2.011
		c-0.126,0-0.203-0.034-0.232-0.104c-0.028-0.067-0.031-0.148-0.009-0.24l3.574-10.773c0.058-0.195,0.124-0.353,0.2-0.473
		c0.073-0.121,0.16-0.214,0.256-0.285c0.098-0.068,0.211-0.116,0.345-0.146c0.13-0.028,0.283-0.042,0.456-0.042h1.03
		c0.193,0,0.36,0.008,0.498,0.025c0.138,0.017,0.258,0.06,0.359,0.128c0.104,0.07,0.192,0.167,0.268,0.292
		c0.073,0.126,0.146,0.292,0.214,0.5l3.575,10.773c0.021,0.068,0.021,0.143,0,0.223c-0.022,0.081-0.1,0.122-0.225,0.122h-2.044
		c-0.127,0-0.231-0.015-0.317-0.044c-0.086-0.028-0.146-0.107-0.18-0.232L136.782,23.595z"/>
	<path clip-path="url(#SVGID_2_)" fill="#EE3436" d="M148.224,20.021c0-0.528-0.043-1.014-0.135-1.461
		c-0.092-0.446-0.257-0.833-0.49-1.159c-0.232-0.327-0.553-0.585-0.953-0.773c-0.402-0.19-0.905-0.284-1.513-0.284h-1.339V23.8h1.39
		c0.596,0,1.092-0.092,1.485-0.283c0.397-0.188,0.71-0.448,0.938-0.781c0.229-0.332,0.391-0.729,0.482-1.194
		S148.224,20.572,148.224,20.021 M142.213,26.104c-0.412,0-0.688-0.085-0.825-0.249c-0.14-0.168-0.206-0.434-0.206-0.801v-9.931
		c0-0.366,0.066-0.636,0.206-0.809c0.137-0.171,0.413-0.257,0.825-0.257h3.212c1.007,0,1.862,0.161,2.561,0.482
		c0.699,0.32,1.267,0.75,1.701,1.29c0.435,0.537,0.751,1.17,0.944,1.897c0.196,0.728,0.294,1.492,0.294,2.295
		c0,0.788-0.087,1.553-0.26,2.284c-0.172,0.733-0.464,1.381-0.875,1.942c-0.412,0.562-0.958,1.011-1.641,1.349
		c-0.682,0.338-1.526,0.508-2.534,0.508H142.213z"/>
	<path clip-path="url(#SVGID_2_)" fill="#EE3436" d="M122.488,18.064v-0.69c0-0.297,0.074-0.55,0.223-0.756
		c0.149-0.206,0.447-0.309,0.895-0.309h4.567c0.127,0,0.213-0.026,0.257-0.078c0.045-0.05,0.07-0.15,0.07-0.301v-1.459
		c0-0.16-0.021-0.27-0.061-0.327c-0.04-0.058-0.128-0.087-0.267-0.087h-5.133c-0.588,0-1.078,0.089-1.48,0.266
		c-0.4,0.179-0.724,0.417-0.97,0.714c-0.248,0.297-0.427,0.636-0.54,1.014c-0.116,0.377-0.174,0.772-0.174,1.185v5.706
		c0,0.389,0.046,0.772,0.138,1.15c0.093,0.377,0.257,0.716,0.498,1.013c0.239,0.3,0.564,0.538,0.973,0.723
		c0.404,0.184,0.928,0.276,1.569,0.276h5.087c0.139,0,0.231-0.034,0.275-0.096c0.045-0.063,0.069-0.162,0.069-0.301v-1.459
		c0-0.174-0.021-0.285-0.061-0.336c-0.039-0.053-0.135-0.077-0.284-0.077h-4.535c-0.368,0-0.645-0.07-0.833-0.216
		c-0.19-0.144-0.284-0.415-0.284-0.817v-1.648c0,0,3.658,0.002,3.7,0.002c0,0,0.096-0.012,0.152-0.042
		c0.056-0.027,0.104-0.067,0.142-0.116l1.018-1.356c0.086-0.116,0.104-0.274,0.038-0.413c-0.07-0.137-0.209-0.218-0.354-0.218
		h-4.695V18.064z"/>
	<path clip-path="url(#SVGID_2_)" fill="#19181C" d="M54.491,28.983c0-0.042,0.008-0.066,0.026-0.077
		c0.018-0.01,0.043-0.014,0.076-0.014h0.265c0.038,0,0.065,0.004,0.079,0.014c0.015,0.011,0.023,0.035,0.023,0.077v1.642
		c0,0.172,0.011,0.319,0.034,0.445c0.021,0.125,0.063,0.229,0.127,0.313c0.063,0.084,0.156,0.147,0.276,0.188
		c0.119,0.041,0.276,0.061,0.47,0.061c0.048,0,0.124-0.002,0.217-0.005c0.093-0.005,0.202-0.02,0.323-0.042v-2.603
		c0-0.042,0.009-0.066,0.026-0.077c0.02-0.01,0.043-0.014,0.077-0.014h0.265c0.038,0,0.061,0.004,0.069,0.014
		c0.01,0.011,0.015,0.035,0.015,0.077v2.576c0,0.117-0.026,0.213-0.079,0.286c-0.052,0.073-0.148,0.123-0.285,0.148
		c-0.113,0.016-0.226,0.028-0.341,0.036c-0.115,0.006-0.219,0.01-0.315,0.01c-0.243,0-0.451-0.022-0.623-0.069
		c-0.171-0.048-0.31-0.126-0.415-0.235c-0.106-0.108-0.184-0.254-0.232-0.434c-0.049-0.18-0.072-0.401-0.072-0.667L54.491,28.983z"
		/>
	<path clip-path="url(#SVGID_2_)" fill="#19181C" d="M59.506,28.979c0-0.042,0.01-0.067,0.027-0.078
		c0.017-0.009,0.042-0.014,0.074-0.014h0.245c0.038,0,0.063,0.005,0.078,0.014c0.016,0.011,0.022,0.036,0.022,0.078v2.764
		c0,0.084-0.016,0.146-0.05,0.186c-0.035,0.038-0.097,0.061-0.188,0.061h-0.133c-0.071,0-0.124-0.016-0.156-0.046
		c-0.032-0.029-0.068-0.078-0.11-0.146l-0.974-1.624l-0.36-0.628h-0.014v2.35c0,0.041-0.008,0.066-0.023,0.077
		c-0.014,0.01-0.042,0.017-0.08,0.017h-0.244c-0.032,0-0.058-0.007-0.073-0.017c-0.019-0.011-0.027-0.036-0.027-0.077V29.13
		c0-0.083,0.019-0.146,0.051-0.183c0.033-0.041,0.094-0.06,0.187-0.06h0.134c0.07,0,0.122,0.013,0.155,0.043
		c0.033,0.03,0.068,0.079,0.109,0.146l0.961,1.605l0.375,0.646h0.013V28.979z"/>
	<path clip-path="url(#SVGID_2_)" fill="#19181C" d="M60.666,28.983c0-0.042,0.008-0.066,0.027-0.077
		c0.017-0.01,0.042-0.014,0.074-0.014h0.258c0.039,0,0.064,0.004,0.079,0.014c0.016,0.011,0.022,0.035,0.022,0.077v2.912
		c0,0.041-0.006,0.066-0.022,0.077c-0.015,0.01-0.041,0.017-0.079,0.017h-0.258c-0.032,0-0.057-0.007-0.074-0.017
		c-0.019-0.011-0.027-0.036-0.027-0.077V28.983z"/>
	<path clip-path="url(#SVGID_2_)" fill="#19181C" d="M63.257,31.807c-0.024,0.066-0.05,0.11-0.079,0.136
		c-0.027,0.029-0.073,0.043-0.137,0.047h-0.217c-0.068,0-0.122-0.015-0.158-0.036c-0.035-0.023-0.068-0.071-0.094-0.146
		l-0.993-2.857c-0.015-0.042-0.003-0.062,0.039-0.062h0.358c0.044,0,0.071,0.019,0.084,0.058l0.626,1.92l0.216,0.649h0.027
		l0.196-0.646l0.646-1.924c0.014-0.031,0.027-0.048,0.041-0.052c0.015-0.004,0.034-0.006,0.058-0.006h0.349
		c0.038,0,0.049,0.02,0.034,0.062L63.257,31.807z"/>
	<path clip-path="url(#SVGID_2_)" fill="#19181C" d="M66.745,31.961c-0.012,0.017-0.039,0.028-0.08,0.028h-1.23
		c-0.15,0-0.275-0.022-0.373-0.065c-0.099-0.042-0.178-0.1-0.237-0.169c-0.06-0.071-0.101-0.154-0.123-0.249
		c-0.025-0.095-0.037-0.192-0.037-0.296v-1.541c0-0.102,0.014-0.202,0.043-0.296c0.027-0.094,0.072-0.177,0.134-0.249
		s0.141-0.131,0.24-0.173c0.097-0.043,0.215-0.063,0.353-0.063h1.213c0.042,0,0.066,0.01,0.078,0.025
		c0.009,0.018,0.014,0.042,0.014,0.075v0.213c0,0.037-0.004,0.063-0.014,0.077c-0.012,0.013-0.036,0.021-0.078,0.021h-1.213
		c-0.112,0-0.192,0.023-0.24,0.072c-0.048,0.048-0.074,0.126-0.074,0.233v0.543h1.381c0.038,0,0.063,0.008,0.073,0.021
		c0.009,0.017,0.015,0.043,0.015,0.08v0.185c0,0.033-0.006,0.059-0.015,0.075c-0.011,0.019-0.035,0.028-0.073,0.028h-1.381v0.734
		c0,0.088,0.026,0.161,0.074,0.216c0.048,0.057,0.128,0.085,0.24,0.085h1.23c0.041,0,0.067,0.008,0.08,0.022
		c0.008,0.015,0.013,0.041,0.013,0.079v0.213C66.757,31.919,66.752,31.942,66.745,31.961"/>
	<path clip-path="url(#SVGID_2_)" fill="#19181C" d="M69.02,29.784c0-0.047-0.008-0.099-0.02-0.153
		c-0.014-0.057-0.04-0.11-0.08-0.157c-0.04-0.05-0.095-0.09-0.166-0.123c-0.071-0.032-0.166-0.047-0.28-0.047h-0.733v0.978h0.699
		c0.106,0,0.193-0.014,0.268-0.041c0.072-0.026,0.131-0.063,0.179-0.108c0.047-0.045,0.082-0.099,0.103-0.158
		C69.009,29.913,69.02,29.851,69.02,29.784 M67.268,29.12c0-0.085,0.019-0.146,0.055-0.184c0.037-0.036,0.099-0.056,0.185-0.056
		h1.017c0.143,0,0.27,0.021,0.387,0.067c0.116,0.041,0.216,0.102,0.3,0.181c0.084,0.076,0.15,0.17,0.197,0.279
		c0.048,0.11,0.071,0.229,0.071,0.359c0,0.175-0.043,0.33-0.133,0.461c-0.088,0.128-0.206,0.222-0.354,0.281v0.023
		c0.062,0.016,0.115,0.041,0.153,0.067c0.038,0.028,0.073,0.061,0.102,0.097c0.027,0.039,0.049,0.078,0.068,0.122
		c0.017,0.045,0.034,0.095,0.049,0.147l0.256,0.934c0.004,0.014,0.007,0.032,0.002,0.055c-0.006,0.021-0.028,0.033-0.065,0.033
		h-0.332c-0.016,0-0.031-0.003-0.049-0.01c-0.017-0.004-0.031-0.022-0.041-0.053l-0.224-0.837c-0.047-0.163-0.122-0.275-0.224-0.331
		c-0.102-0.056-0.225-0.084-0.369-0.084h-0.583v1.222c0,0.041-0.009,0.066-0.023,0.078c-0.014,0.009-0.042,0.015-0.08,0.015h-0.267
		c-0.031,0-0.056-0.006-0.075-0.015c-0.019-0.012-0.025-0.037-0.025-0.078V29.12z"/>
	<path clip-path="url(#SVGID_2_)" fill="#19181C" d="M72.161,31.146c0,0.154-0.028,0.286-0.087,0.399
		c-0.055,0.112-0.135,0.204-0.233,0.276c-0.1,0.071-0.215,0.126-0.345,0.162c-0.132,0.034-0.271,0.05-0.418,0.05
		c-0.182,0-0.374-0.014-0.575-0.044c-0.201-0.031-0.389-0.091-0.566-0.178c-0.037-0.016-0.043-0.048-0.024-0.094l0.121-0.27
		c0.019-0.036,0.044-0.046,0.08-0.032c0.319,0.138,0.612,0.21,0.883,0.21c0.25,0,0.426-0.043,0.534-0.129
		c0.108-0.084,0.162-0.194,0.162-0.334c0-0.068-0.014-0.132-0.044-0.186c-0.029-0.055-0.072-0.106-0.129-0.15
		c-0.057-0.048-0.129-0.089-0.213-0.131c-0.084-0.039-0.182-0.08-0.296-0.125c-0.165-0.064-0.309-0.128-0.431-0.188
		c-0.125-0.063-0.229-0.131-0.314-0.2c-0.083-0.07-0.147-0.148-0.191-0.235c-0.042-0.084-0.063-0.184-0.063-0.297
		c0-0.244,0.08-0.44,0.243-0.59s0.406-0.223,0.726-0.223c0.075,0,0.154,0.002,0.239,0.01c0.086,0.008,0.17,0.019,0.255,0.032
		c0.083,0.017,0.165,0.034,0.244,0.057c0.08,0.021,0.154,0.048,0.224,0.077c0.034,0.018,0.045,0.042,0.029,0.076l-0.103,0.283
		c-0.008,0.023-0.017,0.036-0.026,0.039c-0.008,0.003-0.019,0.001-0.035-0.005c-0.152-0.052-0.299-0.091-0.445-0.117
		c-0.145-0.025-0.279-0.037-0.399-0.037c-0.17,0-0.291,0.034-0.371,0.106c-0.081,0.071-0.121,0.156-0.121,0.257
		c0,0.063,0.015,0.122,0.046,0.17s0.08,0.096,0.144,0.141c0.064,0.044,0.146,0.087,0.243,0.131c0.098,0.044,0.214,0.096,0.345,0.15
		c0.112,0.046,0.223,0.097,0.332,0.147c0.11,0.053,0.208,0.113,0.292,0.185c0.086,0.071,0.157,0.156,0.208,0.254
		C72.134,30.891,72.161,31.008,72.161,31.146"/>
	<path clip-path="url(#SVGID_2_)" fill="#19181C" d="M72.669,28.983c0-0.042,0.008-0.066,0.026-0.077
		c0.017-0.01,0.042-0.014,0.074-0.014h0.258c0.038,0,0.064,0.004,0.08,0.014c0.014,0.011,0.022,0.035,0.022,0.077v2.912
		c0,0.041-0.008,0.066-0.022,0.077c-0.016,0.01-0.042,0.017-0.08,0.017H72.77c-0.032,0-0.057-0.007-0.074-0.017
		c-0.018-0.011-0.026-0.036-0.026-0.077V28.983z"/>
	<path clip-path="url(#SVGID_2_)" fill="#19181C" d="M75.811,30.426c0-0.154-0.016-0.303-0.048-0.44
		c-0.029-0.136-0.082-0.256-0.153-0.357c-0.072-0.103-0.169-0.183-0.292-0.24c-0.122-0.06-0.273-0.089-0.454-0.089h-0.562v2.272
		h0.575c0.18,0,0.33-0.027,0.449-0.086c0.121-0.057,0.216-0.137,0.287-0.238c0.072-0.103,0.125-0.223,0.154-0.362
		C75.795,30.744,75.811,30.591,75.811,30.426 M74.077,31.988c-0.087,0-0.148-0.019-0.185-0.056
		c-0.037-0.036-0.056-0.098-0.056-0.185v-2.622c0-0.086,0.019-0.147,0.056-0.186c0.037-0.035,0.098-0.053,0.185-0.053l0.808-0.007
		c0.231,0,0.432,0.035,0.604,0.107c0.175,0.07,0.32,0.173,0.437,0.308c0.119,0.136,0.206,0.296,0.265,0.487
		c0.059,0.189,0.088,0.402,0.088,0.635c0,0.229-0.025,0.44-0.077,0.635c-0.055,0.193-0.136,0.358-0.247,0.497
		c-0.112,0.139-0.252,0.247-0.421,0.323s-0.372,0.115-0.605,0.115H74.077z"/>
	<path clip-path="url(#SVGID_2_)" fill="#19181C" d="M78.112,30.033l-0.201-0.629H77.89l-0.186,0.606l-0.271,0.876h0.948
		L78.112,30.033z M78.84,31.988c-0.033,0-0.056-0.004-0.074-0.01c-0.018-0.004-0.032-0.026-0.045-0.062l-0.207-0.628h-1.2
		l-0.208,0.628c-0.008,0.024-0.021,0.042-0.034,0.055c-0.016,0.009-0.038,0.017-0.071,0.017h-0.342c-0.03,0-0.052-0.01-0.062-0.028
		c-0.006-0.02-0.006-0.041,0-0.064l0.983-2.819c0.027-0.077,0.057-0.126,0.088-0.152c0.033-0.025,0.088-0.04,0.166-0.043h0.144
		c0.089,0,0.15,0.017,0.182,0.043c0.032,0.03,0.061,0.078,0.084,0.152l0.988,2.819c0.008,0.023,0.008,0.045,0,0.064
		c-0.011,0.019-0.029,0.028-0.059,0.028H78.84z"/>
	<path clip-path="url(#SVGID_2_)" fill="#19181C" d="M81.611,30.426c0-0.154-0.017-0.303-0.047-0.44
		c-0.03-0.136-0.083-0.256-0.155-0.357c-0.072-0.103-0.169-0.183-0.291-0.24c-0.124-0.06-0.275-0.089-0.454-0.089h-0.562v2.272
		h0.575c0.18,0,0.329-0.027,0.45-0.086c0.119-0.057,0.215-0.137,0.287-0.238c0.072-0.103,0.124-0.223,0.151-0.362
		C81.596,30.744,81.611,30.591,81.611,30.426 M79.876,31.988c-0.086,0-0.147-0.019-0.185-0.056
		c-0.036-0.036-0.053-0.098-0.053-0.185v-2.622c0-0.086,0.017-0.147,0.053-0.186c0.037-0.035,0.099-0.053,0.185-0.053l0.809-0.007
		c0.231,0,0.433,0.035,0.604,0.107c0.173,0.07,0.318,0.173,0.436,0.308c0.118,0.136,0.206,0.296,0.267,0.487
		c0.059,0.189,0.086,0.402,0.086,0.635c0,0.229-0.027,0.44-0.08,0.635c-0.051,0.193-0.134,0.358-0.246,0.497
		c-0.109,0.139-0.25,0.247-0.42,0.323c-0.168,0.076-0.37,0.115-0.603,0.115H79.876z"/>
	<path clip-path="url(#SVGID_2_)" fill="#19181C" d="M84.731,31.961c-0.011,0.017-0.035,0.028-0.077,0.028h-1.23
		c-0.15,0-0.274-0.022-0.373-0.065c-0.099-0.042-0.178-0.1-0.237-0.169c-0.059-0.071-0.1-0.154-0.123-0.249
		c-0.024-0.095-0.036-0.192-0.036-0.296v-1.541c0-0.102,0.013-0.202,0.042-0.296s0.074-0.177,0.136-0.249
		c0.063-0.072,0.14-0.131,0.238-0.173c0.098-0.043,0.217-0.063,0.354-0.063h1.213c0.041,0,0.068,0.01,0.076,0.025
		c0.012,0.018,0.017,0.042,0.017,0.075v0.213c0,0.037-0.005,0.063-0.017,0.077c-0.008,0.013-0.035,0.021-0.076,0.021h-1.213
		c-0.111,0-0.193,0.023-0.24,0.072c-0.049,0.048-0.072,0.126-0.072,0.233v0.543h1.379c0.037,0,0.063,0.008,0.074,0.021
		c0.01,0.017,0.016,0.043,0.016,0.08v0.185c0,0.033-0.006,0.059-0.016,0.075c-0.012,0.019-0.037,0.028-0.074,0.028h-1.379v0.734
		c0,0.088,0.023,0.161,0.072,0.216c0.047,0.057,0.129,0.085,0.24,0.085h1.23c0.042,0,0.066,0.008,0.077,0.022
		c0.01,0.015,0.017,0.041,0.017,0.079v0.213C84.748,31.919,84.741,31.942,84.731,31.961"/>
	<path clip-path="url(#SVGID_2_)" fill="#19181C" d="M88.242,29.842c0-0.055-0.009-0.115-0.025-0.177
		c-0.02-0.064-0.05-0.124-0.096-0.177c-0.045-0.052-0.109-0.098-0.186-0.133c-0.081-0.034-0.179-0.052-0.304-0.052H86.93v1.064
		h0.716c0.208,0,0.361-0.048,0.455-0.146C88.195,30.126,88.242,29.999,88.242,29.842 M86.473,29.12c0-0.085,0.018-0.146,0.056-0.184
		c0.037-0.036,0.099-0.056,0.184-0.056h1.03c0.141,0,0.273,0.024,0.393,0.068s0.222,0.106,0.306,0.19
		c0.087,0.082,0.154,0.181,0.204,0.295c0.047,0.113,0.071,0.238,0.071,0.377c0,0.079-0.012,0.174-0.039,0.286
		c-0.028,0.11-0.076,0.215-0.148,0.313c-0.072,0.102-0.173,0.187-0.304,0.256c-0.128,0.069-0.296,0.104-0.501,0.104h-0.8v1.124
		c0,0.041-0.005,0.066-0.021,0.078c-0.017,0.009-0.043,0.015-0.082,0.015h-0.246c-0.034,0-0.058-0.006-0.077-0.015
		c-0.016-0.012-0.025-0.037-0.025-0.078V29.12z"/>
	<path clip-path="url(#SVGID_2_)" fill="#19181C" d="M90.264,30.033l-0.198-0.629h-0.024l-0.185,0.606l-0.269,0.876h0.946
		L90.264,30.033z M90.993,31.988c-0.03,0-0.057-0.004-0.075-0.01c-0.018-0.004-0.03-0.026-0.044-0.062l-0.207-0.628h-1.198
		l-0.209,0.628c-0.009,0.024-0.021,0.042-0.034,0.055c-0.017,0.009-0.038,0.017-0.071,0.017h-0.341c-0.032,0-0.053-0.01-0.063-0.028
		c-0.007-0.02-0.007-0.041,0-0.064l0.983-2.819c0.026-0.077,0.057-0.126,0.09-0.152c0.03-0.025,0.086-0.04,0.16-0.043h0.148
		c0.088,0,0.149,0.017,0.181,0.043c0.033,0.03,0.062,0.078,0.084,0.152l0.987,2.819c0.01,0.023,0.01,0.045,0,0.064
		c-0.009,0.019-0.028,0.028-0.059,0.028H90.993z"/>
	<path clip-path="url(#SVGID_2_)" fill="#19181C" d="M93.543,29.784c0-0.047-0.006-0.099-0.018-0.153
		c-0.017-0.057-0.041-0.11-0.083-0.157c-0.04-0.05-0.094-0.09-0.166-0.123c-0.07-0.032-0.163-0.047-0.276-0.047h-0.736v0.978h0.699
		c0.105,0,0.195-0.014,0.269-0.041c0.071-0.026,0.13-0.063,0.179-0.108c0.047-0.045,0.081-0.099,0.102-0.158
		C93.532,29.913,93.543,29.851,93.543,29.784 M91.79,29.12c0-0.085,0.019-0.146,0.055-0.184c0.038-0.036,0.099-0.056,0.187-0.056
		h1.017c0.142,0,0.27,0.021,0.386,0.067c0.117,0.041,0.217,0.102,0.302,0.181c0.083,0.076,0.15,0.17,0.196,0.279
		c0.046,0.11,0.071,0.229,0.071,0.359c0,0.175-0.044,0.33-0.132,0.461c-0.09,0.128-0.208,0.222-0.356,0.281v0.023
		c0.063,0.016,0.114,0.041,0.154,0.067c0.039,0.028,0.074,0.061,0.102,0.097c0.027,0.039,0.051,0.078,0.068,0.122
		c0.017,0.045,0.035,0.095,0.049,0.147l0.258,0.934c0.005,0.014,0.005,0.032,0,0.055c-0.004,0.021-0.023,0.033-0.063,0.033H93.75
		c-0.014,0-0.03-0.003-0.048-0.01c-0.019-0.004-0.031-0.022-0.041-0.053l-0.226-0.837c-0.046-0.163-0.121-0.275-0.223-0.331
		s-0.225-0.084-0.367-0.084H92.26v1.222c0,0.041-0.008,0.066-0.021,0.078c-0.016,0.009-0.043,0.015-0.082,0.015h-0.264
		c-0.031,0-0.058-0.006-0.076-0.015c-0.017-0.012-0.026-0.037-0.026-0.078V29.12z"/>
	<path clip-path="url(#SVGID_2_)" fill="#19181C" d="M95.848,30.033l-0.199-0.629h-0.021l-0.186,0.606l-0.271,0.876h0.946
		L95.848,30.033z M96.577,31.988c-0.032,0-0.058-0.004-0.074-0.01c-0.018-0.004-0.033-0.026-0.045-0.062l-0.207-0.628h-1.199
		l-0.209,0.628c-0.007,0.024-0.021,0.042-0.036,0.055c-0.015,0.009-0.037,0.017-0.069,0.017h-0.341c-0.032,0-0.054-0.01-0.063-0.028
		c-0.008-0.02-0.008-0.041,0-0.064l0.982-2.819c0.027-0.077,0.056-0.126,0.089-0.152c0.033-0.025,0.086-0.04,0.165-0.043h0.144
		c0.089,0,0.15,0.017,0.182,0.043c0.032,0.03,0.06,0.078,0.085,0.152l0.985,2.819c0.01,0.023,0.01,0.045,0,0.064
		c-0.01,0.019-0.026,0.028-0.058,0.028H96.577z"/>
	<path clip-path="url(#SVGID_2_)" fill="#19181C" d="M99.361,28.979c0-0.042,0.009-0.067,0.025-0.078
		c0.019-0.009,0.044-0.014,0.075-0.014h0.244c0.038,0,0.066,0.005,0.079,0.014c0.015,0.011,0.021,0.036,0.021,0.078v2.764
		c0,0.084-0.017,0.146-0.05,0.186c-0.034,0.038-0.096,0.061-0.189,0.061h-0.131c-0.069,0-0.123-0.016-0.156-0.046
		c-0.03-0.029-0.068-0.078-0.11-0.146l-0.974-1.624l-0.362-0.628h-0.013v2.35c0,0.041-0.009,0.066-0.023,0.077
		c-0.014,0.01-0.041,0.017-0.079,0.017h-0.242c-0.032,0-0.059-0.007-0.076-0.017c-0.019-0.011-0.025-0.036-0.025-0.077V29.13
		c0-0.083,0.016-0.146,0.049-0.183c0.035-0.041,0.098-0.06,0.188-0.06h0.135c0.071,0,0.123,0.013,0.153,0.043
		c0.035,0.03,0.071,0.079,0.112,0.146l0.959,1.605l0.376,0.646h0.015V28.979z"/>
	<path clip-path="url(#SVGID_2_)" fill="#19181C" d="M101.727,30.033l-0.198-0.629h-0.021l-0.188,0.606l-0.269,0.876h0.946
		L101.727,30.033z M102.457,31.988c-0.031,0-0.056-0.004-0.074-0.01c-0.019-0.004-0.032-0.026-0.045-0.062l-0.209-0.628h-1.198
		l-0.208,0.628c-0.009,0.024-0.021,0.042-0.034,0.055c-0.016,0.009-0.04,0.017-0.072,0.017h-0.34c-0.033,0-0.053-0.01-0.062-0.028
		c-0.009-0.02-0.009-0.041,0-0.064l0.98-2.819c0.028-0.077,0.058-0.126,0.09-0.152c0.032-0.025,0.086-0.04,0.165-0.043h0.146
		c0.086,0,0.148,0.017,0.18,0.043c0.033,0.03,0.06,0.078,0.084,0.152l0.987,2.819c0.008,0.023,0.008,0.045,0,0.064
		c-0.009,0.019-0.027,0.028-0.058,0.028H102.457z"/>
	<path clip-path="url(#SVGID_2_)" fill="#19181C" d="M105.331,31.961c-0.01,0.017-0.036,0.028-0.079,0.028h-1.229
		c-0.15,0-0.275-0.022-0.373-0.065c-0.1-0.042-0.178-0.1-0.236-0.169c-0.061-0.071-0.101-0.154-0.126-0.249
		c-0.023-0.095-0.033-0.192-0.033-0.296v-1.541c0-0.102,0.012-0.202,0.041-0.296c0.028-0.094,0.074-0.177,0.136-0.249
		s0.142-0.131,0.238-0.173c0.097-0.043,0.214-0.063,0.354-0.063h1.213c0.041,0,0.067,0.01,0.076,0.025
		c0.012,0.018,0.017,0.042,0.017,0.075v0.213c0,0.037-0.005,0.063-0.017,0.077c-0.009,0.013-0.035,0.021-0.076,0.021h-1.213
		c-0.111,0-0.192,0.023-0.241,0.072c-0.048,0.048-0.072,0.126-0.072,0.233v0.543h1.379c0.039,0,0.063,0.008,0.074,0.021
		c0.011,0.017,0.015,0.043,0.015,0.08v0.185c0,0.033-0.004,0.059-0.015,0.075c-0.011,0.019-0.035,0.028-0.074,0.028h-1.379v0.734
		c0,0.088,0.024,0.161,0.072,0.216c0.049,0.057,0.13,0.085,0.241,0.085h1.229c0.043,0,0.069,0.008,0.079,0.022
		c0.011,0.015,0.016,0.041,0.016,0.079v0.213C105.347,31.919,105.342,31.942,105.331,31.961"/>
	<path clip-path="url(#SVGID_2_)" fill="#19181C" d="M107.842,28.979c0-0.042,0.009-0.067,0.026-0.078
		c0.019-0.009,0.042-0.014,0.076-0.014h0.243c0.038,0,0.064,0.005,0.079,0.014c0.015,0.011,0.021,0.036,0.021,0.078v2.764
		c0,0.084-0.017,0.146-0.05,0.186c-0.035,0.038-0.098,0.061-0.189,0.061h-0.133c-0.068,0-0.12-0.016-0.155-0.046
		c-0.03-0.029-0.068-0.078-0.109-0.146l-0.975-1.624l-0.361-0.628h-0.013v2.35c0,0.041-0.007,0.066-0.022,0.077
		c-0.016,0.01-0.042,0.017-0.08,0.017h-0.243c-0.032,0-0.058-0.007-0.074-0.017c-0.02-0.011-0.025-0.036-0.025-0.077V29.13
		c0-0.083,0.015-0.146,0.048-0.183c0.034-0.041,0.099-0.06,0.188-0.06h0.133c0.071,0,0.122,0.013,0.154,0.043
		c0.034,0.03,0.071,0.079,0.11,0.146l0.961,1.605l0.377,0.646h0.013V28.979z"/>
	<path clip-path="url(#SVGID_2_)" fill="#19181C" d="M111.045,31.146c0,0.154-0.029,0.286-0.088,0.399
		c-0.056,0.112-0.133,0.204-0.233,0.276c-0.1,0.071-0.214,0.126-0.344,0.162c-0.132,0.034-0.271,0.05-0.418,0.05
		c-0.183,0-0.375-0.014-0.574-0.044c-0.2-0.031-0.392-0.091-0.567-0.178c-0.034-0.016-0.041-0.048-0.021-0.094l0.118-0.27
		c0.02-0.036,0.046-0.046,0.079-0.032c0.32,0.138,0.616,0.21,0.886,0.21c0.247,0,0.426-0.043,0.534-0.129
		c0.106-0.084,0.161-0.194,0.161-0.334c0-0.068-0.016-0.132-0.044-0.186c-0.029-0.055-0.073-0.106-0.132-0.15
		c-0.058-0.048-0.128-0.089-0.211-0.131c-0.084-0.039-0.184-0.08-0.296-0.125c-0.164-0.064-0.308-0.128-0.433-0.188
		c-0.124-0.063-0.228-0.131-0.313-0.2c-0.083-0.07-0.147-0.148-0.189-0.235c-0.043-0.084-0.063-0.184-0.063-0.297
		c0-0.244,0.081-0.44,0.243-0.59c0.161-0.149,0.404-0.223,0.725-0.223c0.074,0,0.152,0.002,0.238,0.01
		c0.085,0.008,0.171,0.019,0.256,0.032c0.083,0.017,0.165,0.034,0.244,0.057c0.079,0.021,0.154,0.048,0.222,0.077
		c0.035,0.018,0.046,0.042,0.029,0.076l-0.1,0.283c-0.009,0.023-0.019,0.036-0.027,0.039s-0.018,0.001-0.035-0.005
		c-0.15-0.052-0.299-0.091-0.445-0.117c-0.146-0.025-0.278-0.037-0.397-0.037c-0.17,0-0.293,0.034-0.373,0.106
		c-0.079,0.071-0.118,0.156-0.118,0.257c0,0.063,0.013,0.122,0.044,0.17c0.033,0.048,0.079,0.096,0.144,0.141
		c0.067,0.044,0.147,0.087,0.244,0.131s0.212,0.096,0.345,0.15c0.111,0.046,0.224,0.097,0.332,0.147
		c0.108,0.053,0.207,0.113,0.292,0.185s0.154,0.156,0.207,0.254C111.019,30.891,111.045,31.008,111.045,31.146"/>
	<path clip-path="url(#SVGID_2_)" fill="#19181C" d="M113.583,31.961c-0.013,0.017-0.037,0.028-0.078,0.028h-1.231
		c-0.148,0-0.272-0.022-0.373-0.065c-0.099-0.042-0.177-0.1-0.234-0.169c-0.062-0.071-0.104-0.154-0.125-0.249
		c-0.023-0.095-0.036-0.192-0.036-0.296v-1.541c0-0.102,0.014-0.202,0.043-0.296c0.026-0.094,0.072-0.177,0.135-0.249
		c0.061-0.072,0.141-0.131,0.238-0.173c0.097-0.043,0.215-0.063,0.353-0.063h1.214c0.04,0,0.068,0.01,0.076,0.025
		c0.011,0.018,0.018,0.042,0.018,0.075v0.213c0,0.037-0.007,0.063-0.018,0.077c-0.008,0.013-0.036,0.021-0.076,0.021h-1.214
		c-0.111,0-0.191,0.023-0.24,0.072c-0.048,0.048-0.072,0.126-0.072,0.233v0.543h1.38c0.039,0,0.063,0.008,0.072,0.021
		c0.013,0.017,0.016,0.043,0.016,0.08v0.185c0,0.033-0.003,0.059-0.016,0.075c-0.009,0.019-0.033,0.028-0.072,0.028h-1.38v0.734
		c0,0.088,0.024,0.161,0.072,0.216c0.049,0.057,0.129,0.085,0.24,0.085h1.231c0.041,0,0.065,0.008,0.078,0.022
		c0.01,0.015,0.014,0.041,0.014,0.079v0.213C113.597,31.919,113.593,31.942,113.583,31.961"/>
	<path clip-path="url(#SVGID_2_)" fill="#19181C" d="M64.25,24.438c0,0.401-0.088,0.744-0.266,1.03
		c-0.179,0.286-0.507,0.492-0.989,0.62c-0.229,0.057-0.48,0.099-0.755,0.128c-0.274,0.028-0.55,0.049-0.825,0.06
		c-0.275,0.011-0.533,0.021-0.772,0.025c-0.242,0.006-0.436,0.01-0.585,0.01c-0.985,0-1.83-0.085-2.534-0.25
		c-0.703-0.165-1.28-0.448-1.727-0.85c-0.446-0.402-0.773-0.935-0.98-1.6c-0.206-0.664-0.309-1.499-0.309-2.509l-0.017-6.667
		c0-0.137,0.033-0.232,0.103-0.283c0.069-0.052,0.166-0.077,0.292-0.077h1.839c0.172,0,0.284,0.023,0.335,0.068
		c0.052,0.046,0.077,0.144,0.077,0.292v6.822c0,0.47,0.041,0.88,0.122,1.229c0.08,0.351,0.222,0.639,0.43,0.868
		c0.205,0.229,0.484,0.397,0.832,0.507c0.35,0.109,0.801,0.162,1.348,0.162c0.081,0,0.189-0.002,0.328-0.006
		c0.137-0.007,0.288-0.014,0.456-0.019c0.167-0.006,0.337-0.019,0.515-0.035c0.178-0.018,0.34-0.043,0.491-0.077v-9.451
		c0-0.137,0.031-0.232,0.095-0.283c0.062-0.052,0.163-0.077,0.3-0.077h1.821c0.173,0,0.277,0.023,0.317,0.068
		c0.041,0.046,0.062,0.144,0.062,0.292V24.438z"/>
	<path clip-path="url(#SVGID_2_)" fill="#19181C" d="M68.734,18.629v7.114c0,0.148-0.024,0.246-0.076,0.292
		c-0.053,0.045-0.159,0.069-0.318,0.069h-1.805c-0.137,0-0.237-0.027-0.301-0.078c-0.063-0.052-0.094-0.146-0.094-0.283V15.261
		c0-0.447,0.082-0.759,0.242-0.938c0.161-0.177,0.452-0.266,0.877-0.266h0.721c0.172,0,0.319,0.008,0.439,0.026
		c0.119,0.017,0.225,0.055,0.316,0.111c0.092,0.057,0.178,0.138,0.259,0.24c0.08,0.104,0.171,0.235,0.274,0.396l4.399,6.77h0.085
		V14.42c0-0.139,0.025-0.233,0.076-0.285c0.052-0.051,0.158-0.078,0.319-0.078h1.804c0.263,0,0.395,0.12,0.395,0.362v10.497
		c0,0.367-0.073,0.657-0.224,0.869c-0.147,0.211-0.445,0.318-0.892,0.318h-0.723c-0.172,0-0.318-0.011-0.439-0.027
		c-0.12-0.017-0.226-0.052-0.317-0.11c-0.092-0.058-0.176-0.135-0.257-0.231c-0.081-0.099-0.172-0.227-0.275-0.388l-4.399-6.719
		H68.734z"/>
	<path clip-path="url(#SVGID_2_)" fill="#19181C" d="M80.788,26.035c-0.051,0.045-0.162,0.07-0.334,0.07h-1.822
		c-0.138,0-0.236-0.028-0.299-0.08c-0.064-0.051-0.095-0.146-0.095-0.282V14.436c0-0.137,0.031-0.232,0.095-0.283
		c0.063-0.052,0.161-0.078,0.299-0.078h1.822c0.172,0,0.284,0.024,0.334,0.068c0.052,0.047,0.079,0.144,0.079,0.293v11.307
		C80.867,25.892,80.84,25.988,80.788,26.035"/>
	<path clip-path="url(#SVGID_2_)" fill="#19181C" d="M95.108,21.48h2.697l-1.287-4.657h-0.103L95.108,21.48z M98.425,23.595h-3.936
		l-0.67,2.183c-0.034,0.115-0.083,0.197-0.145,0.249c-0.065,0.051-0.176,0.078-0.335,0.078h-2.01c-0.127,0-0.205-0.034-0.234-0.104
		c-0.029-0.068-0.03-0.149-0.008-0.241l3.574-10.774c0.057-0.195,0.123-0.352,0.199-0.472c0.073-0.121,0.159-0.214,0.255-0.285
		c0.098-0.068,0.212-0.116,0.345-0.146c0.132-0.028,0.284-0.042,0.457-0.042h1.029c0.195,0,0.361,0.008,0.498,0.025
		c0.138,0.017,0.258,0.06,0.36,0.128c0.105,0.07,0.193,0.167,0.268,0.292c0.074,0.126,0.146,0.293,0.215,0.499l3.574,10.774
		c0.023,0.068,0.023,0.143,0,0.224c-0.025,0.08-0.099,0.121-0.225,0.121h-2.046c-0.124,0-0.229-0.015-0.316-0.044
		c-0.083-0.028-0.145-0.107-0.181-0.232L98.425,23.595z"/>
	<path clip-path="url(#SVGID_2_)" fill="#19181C" d="M91.743,16.308c-0.183-0.457-0.452-0.853-0.801-1.185
		c-0.349-0.333-0.771-0.593-1.27-0.782c-0.499-0.188-1.058-0.284-1.676-0.284h-4.212c-0.41,0-0.686,0.096-0.824,0.284
		c-0.137,0.189-0.206,0.444-0.206,0.766v10.636c0,0.137,0.031,0.231,0.094,0.283c0.062,0.051,0.162,0.078,0.302,0.078h1.803
		c0.171,0,0.283-0.021,0.336-0.061c0.051-0.04,0.076-0.142,0.076-0.301V16.36h2.234c0.345,0,0.626,0.055,0.85,0.164
		c0.224,0.109,0.4,0.246,0.533,0.413c0.13,0.166,0.221,0.344,0.267,0.532c0.046,0.189,0.068,0.364,0.068,0.524
		c0,0.458-0.137,0.844-0.412,1.161c-0.274,0.313-0.706,0.471-1.289,0.471h-0.945c-0.142,0-0.28,0.08-0.349,0.215
		c-0.068,0.135-0.05,0.292,0.037,0.406l1.003,1.338c0.035,0.047,0.081,0.085,0.137,0.113s0.153,0.041,0.153,0.041
		c0.961,0,1.731-0.147,2.31-0.445c0.578-0.299,1.021-0.657,1.322-1.075c0.305-0.417,0.5-0.847,0.595-1.288
		c0.092-0.441,0.136-0.812,0.136-1.109C92.017,17.271,91.925,16.767,91.743,16.308"/>
	<path clip-path="url(#SVGID_2_)" fill="#19181C" d="M113.489,25.518l-3.255-4.342c0.477-0.274,0.854-0.592,1.122-0.958
		c0.304-0.417,0.5-0.847,0.592-1.288c0.091-0.442,0.139-0.812,0.139-1.109c0-0.55-0.092-1.055-0.276-1.513
		c-0.184-0.457-0.449-0.852-0.797-1.185c-0.352-0.333-0.776-0.593-1.272-0.782c-0.499-0.188-1.059-0.284-1.676-0.284h-4.209
		c-0.414,0-0.69,0.096-0.827,0.284c-0.137,0.189-0.206,0.444-0.206,0.766v10.636c0,0.137,0.031,0.231,0.094,0.282
		c0.064,0.052,0.165,0.08,0.302,0.08h1.806c0.171,0,0.282-0.021,0.334-0.062s0.076-0.142,0.076-0.301v-9.382h2.235
		c0.343,0,0.627,0.054,0.851,0.163s0.401,0.246,0.532,0.412c0.132,0.166,0.22,0.345,0.266,0.534c0.046,0.188,0.07,0.363,0.07,0.523
		c0,0.458-0.14,0.844-0.413,1.161c-0.273,0.314-0.706,0.471-1.289,0.471h-0.946c-0.143,0-0.279,0.08-0.346,0.215
		c-0.07,0.135-0.051,0.292,0.035,0.406l3.953,5.271c0.274,0.368,0.712,0.588,1.17,0.588h1.646
		C113.501,26.105,113.671,25.76,113.489,25.518"/>
	<path clip-path="url(#SVGID_2_)" fill="#EE3436" d="M48.207,13.19c-0.035-0.073-0.144-0.043-0.141,0.038
		c0.029,0.482,0.013,0.98-0.052,1.49c-0.367,2.883-2.182,5.418-4.618,6.881c-0.153,0.092-0.168,0.305-0.04,0.432l1.473,1.472
		c0.157,0.157,0.402,0.172,0.585,0.05c2.175-1.476,3.607-3.969,3.607-6.795C49.021,15.479,48.729,14.269,48.207,13.19"/>
	<path clip-path="url(#SVGID_2_)" fill="#EE3436" d="M5.251,30.429c0,1.904,0.976,3.578,2.451,4.556c0.132,0.088,0.3-0.02,0.3-0.18
		V0.716c0-0.203-0.164-0.366-0.364-0.366H5.617c-0.202,0-0.366,0.164-0.366,0.366V30.429z"/>
	<path clip-path="url(#SVGID_2_)" fill="#EE3436" d="M1.168,26.328c0,1.896,0.967,3.563,2.435,4.544
		c0.131,0.088,0.299-0.02,0.299-0.178V0.716c0-0.202-0.164-0.366-0.366-0.366H1.532c-0.201,0-0.364,0.164-0.364,0.366V26.328z"/>
	<path clip-path="url(#SVGID_2_)" fill="#EE3436" d="M47.34,12.655c0-1.278-0.292-2.488-0.813-3.566
		c-0.036-0.073-0.144-0.044-0.14,0.036c0.028,0.484,0.011,0.981-0.053,1.491c-0.447,3.499-3.021,6.484-6.256,7.663
		c-0.159,0.059-0.218,0.261-0.096,0.381l1.513,1.511c0.157,0.158,0.39,0.216,0.597,0.138C45.163,19.12,47.34,16.144,47.34,12.655"/>
	<path clip-path="url(#SVGID_2_)" fill="#EE3436" d="M30.239,8.553c-0.202,0-0.366,0.165-0.366,0.366v28.345H14.821
		c-1.007-0.002-1.884-0.552-2.355-1.366h15.68c0.204,0,0.366-0.163,0.366-0.363V7.187H42.67c0.114,0.438,0.18,0.893,0.18,1.366
		H30.239z M12.104,31.797h12.308V3.084h12.969c1.384,0,2.646,0.519,3.608,1.366H26.126c-0.202,0-0.366,0.166-0.366,0.367v28.347
		H12.104V31.797z M45.116,11.287c0.302-0.854,0.468-1.775,0.468-2.734c0-0.466-0.042-0.923-0.116-1.366
		c-0.166-0.983-0.504-1.905-0.984-2.737c-0.284-0.489-0.616-0.948-0.992-1.366C41.99,1.406,39.809,0.35,37.381,0.35H22.042
		c-0.202,0-0.367,0.164-0.367,0.366v28.346h-9.571V0.715c0-0.202-0.163-0.366-0.365-0.366H9.73c-0.201,0-0.366,0.164-0.366,0.366
		v33.816c0,0.998,0.271,1.93,0.737,2.732c0.481,0.831,1.172,1.524,2.003,2.003C12.909,39.73,13.839,40,14.832,40h17.416
		c0.202,0,0.366-0.165,0.366-0.366V11.287h0.034h9.463c-1.086,1.893-3.379,3.081-5.752,3.363c-0.141,0.018-0.193,0.194-0.093,0.294
		l1.527,1.526c0.167,0.167,0.405,0.249,0.641,0.219C41.539,16.291,44.1,14.156,45.116,11.287"/>
</g>
<rect x="116.331" y="12.646" fill="#19181C" width="0.658" height="20.791"/>
</svg>
