<?xml version="1.0" encoding="utf-8"?>
<!-- Generator: Adobe Illustrator 16.0.0, SVG Export Plug-In . SVG Version: 6.00 Build 0)  -->
<!DOCTYPE svg PUBLIC "-//W3C//DTD SVG 1.1//EN" "http://www.w3.org/Graphics/SVG/1.1/DTD/svg11.dtd" [
	<!ENTITY ns_flows "http://ns.adobe.com/Flows/1.0/">
	<!ENTITY ns_extend "http://ns.adobe.com/Extensibility/1.0/">
	<!ENTITY ns_ai "http://ns.adobe.com/AdobeIllustrator/10.0/">
	<!ENTITY ns_graphs "http://ns.adobe.com/Graphs/1.0/">
	<!ENTITY ns_vars "http://ns.adobe.com/Variables/1.0/">
	<!ENTITY ns_imrep "http://ns.adobe.com/ImageReplacement/1.0/">
	<!ENTITY ns_sfw "http://ns.adobe.com/SaveForWeb/1.0/">
	<!ENTITY ns_custom "http://ns.adobe.com/GenericCustomNamespace/1.0/">
	<!ENTITY ns_adobe_xpath "http://ns.adobe.com/XPath/1.0/">
]>
<svg version="1.1" xmlns:x="&ns_extend;" xmlns:i="&ns_ai;" xmlns:graph="&ns_graphs;"
	 xmlns="http://www.w3.org/2000/svg" xmlns:xlink="http://www.w3.org/1999/xlink" xmlns:a="http://ns.adobe.com/AdobeSVGViewerExtensions/3.0/"
	 x="0px" y="0px" width="1024px" height="800px" viewBox="0 0 1024 800" style="enable-background:new 0 0 1024 800;"
	 xml:space="preserve">
<style type="text/css">
<![CDATA[
	.st0{fill:none;stroke:#000000;stroke-width:5;stroke-linecap:round;stroke-linejoin:round;stroke-miterlimit:10;}
	.st1{fill:#B1B0B2;}
	.st2{fill:#C0504D;stroke:#000000;stroke-width:5;stroke-linecap:round;stroke-linejoin:round;stroke-miterlimit:10;}
	.st3{opacity:0.3;clip-path:url(#SVGID_2_);fill:#19181C;}
	.st4{fill:#FEFEED;}
	.st5{fill:#FFFFFF;}
	.st6{fill:none;}
]]>
</style>
<metadata>
	<sfw  xmlns="&ns_sfw;">
		<slices></slices>
		<sliceSourceBounds  height="801.45" width="1024" y="-601.45" x="-262" bottomLeftOrigin="true"></sliceSourceBounds>
	</sfw>
</metadata>
<g id="background">
	<rect class="st4" width="1024" height="800"/>
</g>
<g id="box">
	<polygon class="st2" points="515.5,505 328.5,720 328.5,220 515.5,43 	"/>
	<path class="st5" d="M500.5,248c0,0-55.865,30.5-105.5,23s-63.792-50-63.792-50L517.383,44.669C517.383,44.669,549,58,583,68
		s107.5-1,107.5-1L500.5,248z"/>
	<g>
		<defs>
			<polygon id="SVGID_1_" points="689.5,539 499.5,748 499.5,248 689.5,67 			"/>
		</defs>
		<use xlink:href="#SVGID_1_"  style="overflow:visible;fill:#C0504D;"/>
		<clipPath id="SVGID_2_">
			<use xlink:href="#SVGID_1_"  style="overflow:visible;"/>
		</clipPath>
		<polygon class="st3" points="514,750.715 512,801.45 512,195.207 514,144.471 		"/>
		
			<use xlink:href="#SVGID_1_"  style="overflow:visible;fill:none;stroke:#000000;stroke-width:5;stroke-linecap:round;stroke-linejoin:round;stroke-miterlimit:10;"/>
	</g>
	<path class="st2" d="M500.5,748c0,0-38,13-97.865,7.287C352.727,750.524,328.5,721,328.5,721V221c0,0,16.826,25.19,74.135,35.5
		C461,267,500.5,248,500.5,248V748z"/>
	<path class="st0" d="M516.383,42.669C516.383,42.669,549,58,583,68s107.5-2.852,107.5-2.852"/>
	<g>
		<path class="st5" d="M423.858,735.847c-7.197,0-14.574-0.355-21.926-1.058c-47.427-4.525-69.313-31.85-70.932-33.957V592.636
			c3.988,5.458,21.651,25.515,70.796,34.356c9.455,1.701,18.966,2.563,28.269,2.563c37.569,0,62.321-14.057,66.935-16.896v108.786
			C494.087,722.921,467.309,735.847,423.858,735.847z"/>
		<path class="st1" d="M331,594.157c0,2.593,6.217,6.815,12.873,11.542c9.83,6.98,27.924,16.426,57.71,21.785
			c9.484,1.706,18.837,2.571,28.17,2.571c35.954,0,60.248-12.844,66.248-16.512v107.593c-3,1.978-30.171,14.21-72.392,14.21
			c-7.181,0-14.417-0.354-21.753-1.055c-25.52-2.436-43.56-11.515-54.043-18.703C337.633,708.609,333,702.015,331,700.662V594
			 M330,591v110c0,0,21.727,29.524,71.635,34.287c7.739,0.738,14.94,1.06,21.848,1.06c46.528,0,73.517-14.597,73.517-14.597v-110
			c0,0-25.279,17.306-67.185,17.306c-8.712,0-18.259-0.748-28.305-2.556C344.201,616.189,330,591,330,591L330,591z"/>
	</g>
</g>
<g id="cetas">
</g>
<g id="texto">
	<g>
		<path class="st6" d="M328,622c0,0,16.309,45.898,74.5,48c57,2.059,95-23.953,95-23.953"/>
		<path d="M367.451,656.372l3.041-7.464c0.719-1.766,1.701-2.877,2.945-3.335c1.244-0.457,2.602-0.386,4.075,0.215
			s2.497,1.499,3.07,2.696c0.574,1.198,0.501,2.68-0.218,4.445l-3.041,7.465c-0.726,1.781-1.713,2.9-2.96,3.355
			c-1.248,0.456-2.608,0.384-4.081-0.216c-1.473-0.601-2.495-1.499-3.065-2.695C366.647,659.644,366.725,658.154,367.451,656.372z
			 M369.041,657.02c-1.001,2.456-0.386,4.139,1.846,5.048c2.231,0.909,3.847,0.136,4.848-2.32l3.042-7.465
			c0.994-2.439,0.375-4.114-1.856-5.023c-2.231-0.909-3.844-0.144-4.838,2.297L369.041,657.02z M373.118,654.315
			c0.1-0.246,0.257-0.415,0.473-0.507c0.215-0.092,0.438-0.091,0.671,0.004c0.217,0.089,0.371,0.241,0.46,0.457
			c0.09,0.217,0.084,0.447-0.016,0.693c-0.094,0.231-0.252,0.4-0.473,0.508c-0.222,0.107-0.441,0.116-0.659,0.027
			c-0.232-0.095-0.39-0.258-0.474-0.489C373.018,654.778,373.024,654.547,373.118,654.315z"/>
		<path d="M383.146,662.074l1.47-7.925c0.348-1.875,1.084-3.161,2.21-3.861c1.125-0.698,2.47-0.903,4.034-0.613
			c1.564,0.29,2.749,0.964,3.552,2.021c0.804,1.058,1.032,2.523,0.685,4.398l-1.47,7.925c-0.351,1.892-1.091,3.187-2.221,3.885
			c-1.13,0.698-2.477,0.902-4.041,0.612c-1.564-0.29-2.747-0.963-3.546-2.02C383.02,665.439,382.795,663.966,383.146,662.074z
			 M384.833,662.387c-0.484,2.607,0.459,4.131,2.828,4.57s3.795-0.645,4.279-3.252l1.47-7.925c0.48-2.59-0.464-4.105-2.833-4.545
			c-2.369-0.439-3.793,0.637-4.274,3.227L384.833,662.387z M388.28,658.915c0.048-0.262,0.168-0.459,0.36-0.593
			c0.192-0.133,0.412-0.177,0.658-0.131c0.231,0.043,0.412,0.161,0.544,0.354c0.131,0.193,0.173,0.421,0.125,0.682
			c-0.045,0.245-0.166,0.443-0.361,0.593c-0.195,0.149-0.409,0.203-0.64,0.16c-0.247-0.046-0.434-0.174-0.563-0.383
			C388.276,659.388,388.234,659.16,388.28,658.915z"/>
		<path d="M398.483,654.927c0.017-0.294,0.161-0.546,0.433-0.757l2.296-2.893c0.205-0.249,0.428-0.367,0.67-0.354
			c0.19,0.011,0.36,0.081,0.509,0.21c0.149,0.131,0.218,0.29,0.208,0.48l-0.983,17.679c-0.012,0.208-0.107,0.368-0.287,0.479
			s-0.382,0.16-0.607,0.148c-0.243-0.014-0.442-0.086-0.6-0.216s-0.231-0.3-0.219-0.507l0.856-15.395l-1.132,1.63
			c-0.15,0.2-0.32,0.295-0.51,0.284c-0.191-0.011-0.347-0.093-0.468-0.248C398.526,655.316,398.471,655.135,398.483,654.927z"/>
		<path d="M406.571,668.974c0.002-0.373,0.113-0.684,0.333-0.935c0.219-0.25,0.497-0.374,0.833-0.372
			c0.301,0.002,0.564,0.135,0.789,0.397c0.225,0.262,0.336,0.57,0.333,0.924c-0.002,0.336-0.118,0.634-0.346,0.893
			c-0.228,0.26-0.493,0.389-0.794,0.387c-0.335-0.003-0.611-0.13-0.827-0.383C406.676,669.632,406.569,669.328,406.571,668.974z"/>
		<path d="M413.085,669.47l-0.135-2.522c-0.042-0.797,0.214-1.584,0.771-2.361c0.556-0.776,1.244-1.5,2.063-2.17l2.456-1.982
			c0.835-0.671,1.536-1.417,2.102-2.238s0.827-1.647,0.782-2.48c-0.048-0.901-0.399-1.682-1.053-2.343
			c-0.654-0.66-1.537-0.961-2.649-0.901c-0.938,0.05-1.684,0.356-2.238,0.919s-0.804,1.341-0.751,2.334
			c0.01,0.192-0.063,0.362-0.22,0.51c-0.157,0.148-0.374,0.23-0.651,0.245c-0.519,0.027-0.798-0.313-0.835-1.023
			c-0.067-1.246,0.347-2.301,1.24-3.164c0.894-0.864,2.035-1.333,3.423-1.407c1.492-0.08,2.754,0.328,3.785,1.225
			c1.031,0.896,1.584,2.05,1.66,3.463c0.046,0.867-0.126,1.711-0.517,2.531c-0.391,0.821-0.893,1.526-1.505,2.115
			c-0.612,0.59-1.285,1.19-2.018,1.803l-2.031,1.621c-0.62,0.468-1.132,0.986-1.537,1.556s-0.592,1.123-0.564,1.66l0.086,1.612
			l8.307-0.443c0.173-0.01,0.324,0.061,0.455,0.21c0.13,0.148,0.201,0.327,0.211,0.535c0.011,0.208-0.039,0.397-0.151,0.567
			c-0.112,0.172-0.254,0.262-0.427,0.271l-9.221,0.493c-0.19,0.01-0.375-0.045-0.554-0.166
			C413.189,669.816,413.095,669.66,413.085,669.47z"/>
		<path d="M425.702,664.186c-0.022-0.172-0.007-0.322,0.046-0.451l4.812-13.578c0.127-0.365,0.371-0.571,0.732-0.619
			c0.189-0.024,0.383,0.021,0.582,0.135c0.198,0.114,0.31,0.266,0.334,0.454c0.013,0.104,0.002,0.219-0.034,0.346l-4.423,12.532
			l5.053-0.658l-0.655-5.021c-0.056-0.434,0.199-0.688,0.766-0.762c0.223-0.029,0.428,0.002,0.615,0.092
			c0.186,0.091,0.293,0.24,0.32,0.448l0.655,5.021l1.418-0.185c0.206-0.027,0.375,0.031,0.508,0.175
			c0.132,0.144,0.211,0.314,0.237,0.515c0.028,0.217-0.008,0.412-0.107,0.586c-0.1,0.173-0.245,0.272-0.434,0.297l-1.418,0.185
			l0.497,3.809c0.027,0.208-0.038,0.385-0.193,0.529c-0.156,0.144-0.346,0.23-0.569,0.26c-0.241,0.031-0.451-0.004-0.629-0.104
			c-0.18-0.101-0.282-0.256-0.31-0.464l-0.497-3.809l-6.548,0.854C426.013,664.83,425.761,664.635,425.702,664.186z"/>
	</g>
	<g>
		<path class="st6" d="M328,663.01c0,0,26.67,46.655,84.75,42.49c62.75-4.5,74.25-27.811,81.75-36.768"/>
		<path d="M365.291,695.932l7.004-16.262c0.083-0.191,0.217-0.308,0.405-0.35c0.188-0.041,0.377-0.021,0.568,0.062l3.916,1.687
			c0.732,0.315,1.345,0.646,1.838,0.989c0.493,0.345,0.913,0.762,1.259,1.251c0.346,0.488,0.524,1.061,0.535,1.716
			s-0.159,1.39-0.509,2.201c-0.425,0.987-0.968,1.744-1.629,2.271c-0.661,0.527-1.36,0.792-2.098,0.796
			c0.659,0.661,1.062,1.4,1.209,2.219c0.147,0.819-0.025,1.801-0.519,2.947l-0.185,0.43c-0.74,1.72-1.708,2.784-2.904,3.194
			c-1.195,0.409-2.51,0.306-3.942-0.312l-4.489-1.934c-0.223-0.096-0.373-0.23-0.448-0.405
			C365.226,696.258,365.223,696.091,365.291,695.932z M367.213,695.74l3.463,1.491c2.229,0.96,3.85,0.263,4.865-2.094l0.175-0.406
			c0.974-2.26,0.346-3.871-1.883-4.83l-3.462-1.492L367.213,695.74z M370.957,687.049l3.128,1.347
			c1.13,0.487,2.055,0.607,2.775,0.36c0.719-0.247,1.319-0.928,1.799-2.042c0.446-1.034,0.469-1.878,0.071-2.531
			c-0.398-0.652-1.139-1.212-2.221-1.679l-3.033-1.306L370.957,687.049z"/>
		<path d="M380.201,701.745l0.552-2.465c0.175-0.778,0.635-1.467,1.381-2.064c0.746-0.598,1.604-1.108,2.573-1.531l2.9-1.246
			c0.986-0.419,1.862-0.947,2.629-1.586c0.767-0.638,1.242-1.362,1.424-2.176c0.197-0.881,0.07-1.729-0.38-2.541
			c-0.451-0.813-1.22-1.341-2.307-1.584c-0.917-0.206-1.718-0.112-2.403,0.28c-0.686,0.392-1.137,1.073-1.354,2.044
			c-0.042,0.188-0.159,0.331-0.35,0.432c-0.191,0.1-0.422,0.119-0.693,0.059c-0.507-0.113-0.684-0.517-0.528-1.211
			c0.272-1.218,0.956-2.121,2.05-2.711s2.319-0.732,3.675-0.429c1.458,0.326,2.563,1.061,3.313,2.201
			c0.75,1.142,0.971,2.402,0.662,3.784c-0.19,0.847-0.584,1.612-1.183,2.297c-0.598,0.685-1.272,1.228-2.021,1.629
			c-0.749,0.402-1.559,0.799-2.43,1.19l-2.394,1.012c-0.723,0.283-1.356,0.644-1.9,1.082c-0.544,0.438-0.874,0.921-0.992,1.446
			l-0.353,1.575l8.117,1.818c0.169,0.038,0.296,0.146,0.381,0.325c0.085,0.179,0.104,0.37,0.059,0.573s-0.145,0.371-0.299,0.506
			c-0.154,0.134-0.315,0.182-0.484,0.145l-9.011-2.019c-0.186-0.042-0.348-0.145-0.489-0.31S380.159,701.931,380.201,701.745z"/>
		<path d="M395.185,704.681l0.132-2.521c0.042-0.798,0.38-1.553,1.015-2.268c0.635-0.714,1.396-1.361,2.28-1.94l2.65-1.714
			c0.902-0.578,1.677-1.246,2.326-2.004c0.649-0.757,0.996-1.552,1.04-2.384c0.047-0.901-0.22-1.715-0.801-2.441
			c-0.581-0.726-1.427-1.117-2.54-1.175c-0.938-0.049-1.712,0.177-2.322,0.679c-0.61,0.501-0.94,1.248-0.992,2.241
			c-0.01,0.192-0.101,0.354-0.273,0.484s-0.396,0.188-0.673,0.174c-0.52-0.026-0.76-0.395-0.724-1.104
			c0.065-1.246,0.587-2.252,1.567-3.017c0.98-0.765,2.164-1.111,3.552-1.038c1.492,0.077,2.704,0.616,3.635,1.615
			s1.36,2.206,1.287,3.619c-0.045,0.867-0.306,1.688-0.781,2.463c-0.475,0.775-1.048,1.424-1.719,1.945
			c-0.67,0.521-1.403,1.048-2.196,1.58l-2.19,1.398c-0.666,0.399-1.229,0.861-1.692,1.385c-0.462,0.523-0.708,1.054-0.735,1.592
			l-0.084,1.612l8.307,0.433c0.173,0.01,0.316,0.095,0.43,0.257c0.114,0.162,0.165,0.348,0.154,0.555
			c-0.011,0.208-0.081,0.392-0.21,0.549c-0.129,0.159-0.281,0.233-0.453,0.224l-9.221-0.48c-0.19-0.01-0.368-0.084-0.534-0.223
			C395.252,705.036,395.175,704.871,395.185,704.681z"/>
		<path d="M410.252,700.302l-0.675-8.031c-0.16-1.9,0.216-3.336,1.125-4.309c0.91-0.972,2.193-1.528,3.852-1.667
			c1.658-0.14,2.999,0.188,4.022,0.979c1.023,0.792,1.585,1.793,1.688,3.002c0.043,0.519-0.203,0.8-0.738,0.845
			c-0.604,0.051-0.926-0.157-0.965-0.623c-0.074-0.881-0.488-1.56-1.241-2.035c-0.753-0.476-1.648-0.671-2.685-0.584
			c-2.453,0.207-3.568,1.622-3.348,4.247l0.333,3.963c0.75-1.21,2.007-1.889,3.769-2.037c3.437-0.289,5.3,1.286,5.589,4.723
			l0.052,0.622c0.161,1.917-0.209,3.361-1.11,4.333c-0.901,0.972-2.172,1.526-3.813,1.664c-1.641,0.138-2.987-0.196-4.037-1.004
			C411.02,703.582,410.414,702.22,410.252,700.302z M411.967,700.209c0.219,2.609,1.555,3.811,4.008,3.604
			c2.452-0.206,3.569-1.614,3.35-4.223l-0.052-0.618c-0.209-2.489-1.541-3.631-3.993-3.425c-2.453,0.207-3.581,1.478-3.385,3.812
			L411.967,700.209z"/>
		<path d="M424.909,700.082c-0.082-0.53,0.142-0.837,0.673-0.92c0.582-0.09,0.911,0.104,0.985,0.584
			c0.136,0.874,0.595,1.521,1.38,1.943c0.785,0.422,1.691,0.554,2.718,0.394c2.449-0.38,3.471-1.88,3.064-4.501l-0.61-3.932
			c-0.644,1.275-1.849,2.051-3.612,2.324c-3.409,0.529-5.378-0.919-5.91-4.345l-0.096-0.617c-0.292-1.884-0.023-3.342,0.808-4.374
			c0.831-1.032,2.051-1.674,3.661-1.924c1.627-0.252,2.998-0.013,4.111,0.718s1.816,2.038,2.108,3.922l1.236,7.965
			c0.295,1.901,0.019,3.369-0.829,4.404c-0.848,1.035-2.086,1.679-3.713,1.931c-1.645,0.256-3.005,0.023-4.081-0.695
			S425.095,701.281,424.909,700.082z M425.283,691.304c0.203,1.306,0.659,2.207,1.367,2.704s1.662,0.652,2.861,0.467
			c2.432-0.378,3.467-1.734,3.104-4.071l-0.132-0.851c-0.205-1.323-0.68-2.261-1.423-2.814c-0.744-0.553-1.698-0.739-2.862-0.559
			c-2.415,0.375-3.419,1.877-3.011,4.505L425.283,691.304z"/>
		<path d="M439.754,697.102l-0.661-2.702c-0.346-1.414-0.214-2.664,0.395-3.75s1.713-1.824,3.313-2.215
			c1.01-0.247,1.901-0.273,2.671-0.078s1.201,0.479,1.292,0.849c0.045,0.186,0.014,0.385-0.095,0.599s-0.255,0.344-0.44,0.389
			c-0.101,0.024-0.275-0.011-0.521-0.106c-0.247-0.097-0.583-0.175-1.008-0.235c-0.426-0.062-0.908-0.026-1.446,0.105
			c-1.078,0.264-1.829,0.749-2.253,1.456c-0.425,0.708-0.512,1.572-0.263,2.594l0.657,2.688c0.254,1.038,0.732,1.773,1.436,2.204
			c0.703,0.432,1.602,0.514,2.697,0.246c0.572-0.141,1.037-0.336,1.395-0.589c0.357-0.252,0.623-0.482,0.795-0.689
			s0.317-0.325,0.436-0.354c0.218-0.054,0.42-0.013,0.604,0.12c0.184,0.134,0.301,0.301,0.351,0.503
			c0.095,0.388-0.167,0.849-0.786,1.383c-0.619,0.536-1.45,0.931-2.494,1.186c-1.616,0.396-2.944,0.257-3.983-0.418
			C440.804,699.611,440.108,698.55,439.754,697.102z"/>
	</g>
</g>
</svg>
