<?xml version="1.0" encoding="utf-8"?>
<!-- Generator: Adobe Illustrator 16.0.0, SVG Export Plug-In . SVG Version: 6.00 Build 0)  -->
<!DOCTYPE svg PUBLIC "-//W3C//DTD SVG 1.1//EN" "http://www.w3.org/Graphics/SVG/1.1/DTD/svg11.dtd" [
	<!ENTITY ns_flows "http://ns.adobe.com/Flows/1.0/">
	<!ENTITY ns_extend "http://ns.adobe.com/Extensibility/1.0/">
	<!ENTITY ns_ai "http://ns.adobe.com/AdobeIllustrator/10.0/">
	<!ENTITY ns_graphs "http://ns.adobe.com/Graphs/1.0/">
	<!ENTITY ns_vars "http://ns.adobe.com/Variables/1.0/">
	<!ENTITY ns_imrep "http://ns.adobe.com/ImageReplacement/1.0/">
	<!ENTITY ns_sfw "http://ns.adobe.com/SaveForWeb/1.0/">
	<!ENTITY ns_custom "http://ns.adobe.com/GenericCustomNamespace/1.0/">
	<!ENTITY ns_adobe_xpath "http://ns.adobe.com/XPath/1.0/">
]>
<svg version="1.1" xmlns:x="&ns_extend;" xmlns:i="&ns_ai;" xmlns:graph="&ns_graphs;"
	 xmlns="http://www.w3.org/2000/svg" xmlns:xlink="http://www.w3.org/1999/xlink" xmlns:a="http://ns.adobe.com/AdobeSVGViewerExtensions/3.0/"
	 x="0px" y="0px" width="1024px" height="800px" viewBox="0 0 1024 800" style="enable-background:new 0 0 1024 800;"
	 xml:space="preserve">
<style type="text/css">
<![CDATA[
	.st0{fill:#B1B0B2;}
	.st1{clip-path:url(#SVGID_3_);}
	.st2{fill:#C0504D;}
	.st3{fill:#FEFEED;}
	.st4{fill:#FFFFFF;}
	.st5{fill:none;}
	.st6{opacity:0.3;clip-path:url(#SVGID_4_);fill:#19181C;}
]]>
</style>
<metadata>
	<sfw  xmlns="&ns_sfw;">
		<slices></slices>
		<sliceSourceBounds  height="2131.971" width="1264.785" y="-653.453" x="-262" bottomLeftOrigin="true"></sliceSourceBounds>
	</sfw>
</metadata>
<g id="background">
	<rect class="st3" width="1024" height="800"/>
</g>
<g id="box">
	<g>
		<polygon class="st2" points="766,23.244 243,625.352 243,-774.899 766,-1270.588 		"/>
		<path d="M244,632.353c-0.822,0-1.652-0.145-2.452-0.443c-2.735-1.022-4.548-3.637-4.548-6.558V-774.899
			c0-1.924,0.792-3.762,2.188-5.084l523.694-495.688c2.032-1.923,5.161-2.455,7.733-1.347c2.568,1.106,4.385,3.635,4.385,6.431
			V23.244c0,1.688-0.762,3.32-1.869,4.595L249.359,629.946C248.003,631.505,245.987,632.353,244,632.353z M251-771.885V606.634
			l510-586.01v-1274.945L251-771.885z"/>
	</g>
	<g>
		<defs>
			<polygon id="SVGID_1_" points="1254,118.46 721,703.766 721,-696.485 1254,-1203.376 			"/>
		</defs>
		<defs>
			<path id="SVGID_2_" d="M722.886,710.767c-0.848,0-1.646-0.153-2.466-0.471c-2.697-1.044-4.42-3.637-4.42-6.53V-696.485
				c0-1.916,0.729-3.748,2.115-5.069l532.065-506.891c2.032-1.935,5.008-2.469,7.581-1.366c2.576,1.104,4.238,3.634,4.238,6.435
				V118.46c0,1.742-0.656,3.421-1.83,4.709l-532.1,585.305C726.719,709.963,724.82,710.767,722.886,710.767z M730-693.485V685.655
				l518-569.902v-1302.79L730-693.485z"/>
		</defs>
		<use xlink:href="#SVGID_1_"  style="overflow:visible;fill:#C0504D;"/>
		<use xlink:href="#SVGID_2_"  style="overflow:visible;"/>
		<clipPath id="SVGID_3_">
			<use xlink:href="#SVGID_1_"  style="overflow:visible;"/>
		</clipPath>
		<clipPath id="SVGID_4_" class="st1">
			<use xlink:href="#SVGID_2_"  style="overflow:visible;"/>
		</clipPath>
		<polygon class="st6" points="763,711.368 758,853.453 758,-844.333 763,-986.418 		"/>
	</g>
	<g>
		<path class="st2" d="M724,703.766c0,0-106.076,36.406-273.729,20.407C310.504,710.835,243,628.152,243,628.152V-772.099
			c0,0,46.777,70.544,207.271,99.417C613.723-643.276,724-696.485,724-696.485V703.766z"/>
		<path d="M535.994,735.238c-27.955,0-56.567-1.379-85.043-4.097c-141.046-13.458-209.517-95.08-212.362-98.548
			c-1.027-1.253-1.589-2.822-1.589-4.441V-772.099c0-3.083,2.019-5.805,4.969-6.701c2.948-0.897,6.14,0.245,7.853,2.812
			c0.45,0.663,48.014,68.527,203.034,96.417c32.271,5.806,64.873,8.749,96.904,8.749c104.953,0,172.229-31.655,172.896-31.975
			c2.17-1.038,4.88-0.89,6.913,0.388c2.037,1.283,3.43,3.519,3.43,5.924V703.766c0,2.994-2.059,5.655-4.891,6.624
			C725.143,711.404,653.956,735.238,535.994,735.238z M251,625.513c11,11.984,77.706,79.899,201.279,91.692
			c28.035,2.674,56.358,4.03,83.871,4.03c98.581,0,164.85-17.398,182.85-22.628V-685.891c-23,9.038-83.326,29.07-169.082,29.07
			c-32.859,0-66.378-3.018-99.464-8.97C332.011-687.099,274-730.607,251-753.488V625.513z"/>
	</g>
	<g>
		<path class="st4" d="M716,630.252c0,0-100.276,53.91-267.929,37.911C308.303,654.825,248,572.142,248,572.142V264.087
			c0,0,39.577,70.543,200.071,99.417C611.523,392.91,716,322.197,716,322.197V630.252z"/>
		<path class="st0" d="M251.001,272.685c0,7.261,17.413,19.208,36.051,32.445c27.528,19.549,78.202,46.062,161.617,61.07
			c26.561,4.778,52.711,7.231,78.847,7.231c100.688,0,168.484-35.938,185.484-46.21v301.314c-8,5.538-84.451,39.795-202.691,39.795
			c-20.111,0-40.354-0.993-60.898-2.954c-71.469-6.82-121.98-32.247-151.337-52.378C269.566,593.452,257,574.983,251,571.195V272
			 M248,264.087v308.055c0,0,60.946,82.684,200.715,96.021c21.672,2.067,41.948,2.967,61.293,2.967
			C640.311,671.13,716,630.252,716,630.252V322.197c0,0-70.85,48.464-188.209,48.464c-24.398,0-51.265-2.095-79.398-7.157
			C287.898,334.63,248,264.087,248,264.087L248,264.087z"/>
	</g>
</g>
<g id="texto">
	<g>
		<path class="st5" d="M242.602,350.9c0,0,45.672,128.539,208.637,134.424c159.629,5.766,266.047-67.08,266.047-67.08"/>
		<path d="M353.044,447.141l8.521-20.901c2.016-4.944,4.765-8.057,8.249-9.337c3.482-1.279,7.287-1.079,11.413,0.603
			c4.125,1.683,6.991,4.2,8.597,7.555c1.605,3.354,1.402,7.504-0.614,12.448l-8.521,20.902c-2.034,4.989-4.799,8.122-8.292,9.397
			c-3.494,1.276-7.303,1.072-11.428-0.609s-6.986-4.197-8.582-7.548C350.791,456.301,351.01,452.131,353.044,447.141z
			 M357.495,448.955c-2.804,6.877-1.082,11.59,5.167,14.137c6.248,2.547,10.774,0.382,13.578-6.496l8.521-20.901
			c2.785-6.832,1.053-11.522-5.194-14.069c-6.249-2.548-10.765-0.404-13.55,6.428L357.495,448.955z M368.915,441.385
			c0.281-0.688,0.722-1.163,1.325-1.42s1.229-0.253,1.88,0.013c0.609,0.248,1.039,0.675,1.29,1.28
			c0.251,0.604,0.236,1.252-0.044,1.941c-0.264,0.646-0.706,1.12-1.326,1.42c-0.62,0.3-1.235,0.326-1.844,0.078
			c-0.651-0.266-1.093-0.723-1.326-1.37C368.636,442.679,368.651,442.031,368.915,441.385z"/>
		<path d="M396.817,463.07l4.136-22.19c0.979-5.249,3.044-8.851,6.199-10.806c3.153-1.955,6.92-2.524,11.3-1.708
			c4.379,0.816,7.694,2.706,9.942,5.667c2.248,2.963,2.885,7.069,1.906,12.317l-4.137,22.19c-0.988,5.297-3.065,8.922-6.229,10.874
			c-3.165,1.954-6.937,2.521-11.317,1.705c-4.379-0.816-7.688-2.704-9.925-5.665C396.455,472.496,395.83,468.367,396.817,463.07z
			 M401.542,463.95c-1.361,7.302,1.274,11.57,7.908,12.807c6.632,1.236,10.63-1.796,11.991-9.097l4.136-22.19
			c1.352-7.253-1.289-11.498-7.921-12.734c-6.633-1.236-10.626,1.772-11.978,9.025L401.542,463.95z M411.204,454.235
			c0.136-0.731,0.473-1.284,1.011-1.657c0.539-0.373,1.153-0.496,1.844-0.367c0.646,0.121,1.154,0.452,1.522,0.994
			s0.484,1.18,0.347,1.911c-0.128,0.687-0.466,1.239-1.013,1.658s-1.144,0.567-1.791,0.447c-0.691-0.129-1.215-0.487-1.575-1.075
			C411.19,455.56,411.076,454.922,411.204,454.235z"/>
		<path d="M439.71,443.094c0.047-0.823,0.451-1.53,1.214-2.119l6.439-8.095c0.574-0.697,1.2-1.026,1.879-0.987
			c0.533,0.029,1.009,0.228,1.426,0.591c0.416,0.364,0.609,0.813,0.58,1.346l-2.806,49.506c-0.033,0.582-0.302,1.029-0.806,1.341
			s-1.071,0.449-1.7,0.414c-0.68-0.039-1.239-0.24-1.68-0.606c-0.442-0.364-0.646-0.839-0.612-1.42l2.442-43.109l-3.176,4.561
			c-0.421,0.56-0.897,0.824-1.431,0.794s-0.97-0.261-1.31-0.693S439.678,443.675,439.71,443.094z"/>
		<path d="M462.325,482.447c0.008-1.044,0.318-1.915,0.934-2.616c0.615-0.699,1.393-1.047,2.332-1.04
			c0.844,0.007,1.581,0.378,2.209,1.113c0.629,0.734,0.939,1.599,0.933,2.589c-0.007,0.94-0.33,1.774-0.97,2.5
			c-0.639,0.725-1.381,1.085-2.225,1.079c-0.939-0.007-1.712-0.365-2.316-1.073C462.616,484.29,462.318,483.439,462.325,482.447z"/>
		<path d="M480.498,483.847l-0.371-7.062c-0.118-2.232,0.604-4.437,2.163-6.611c1.561-2.175,3.488-4.2,5.783-6.073l6.881-5.548
			c2.342-1.876,4.306-3.963,5.893-6.262c1.586-2.299,2.318-4.613,2.196-6.945c-0.133-2.524-1.115-4.712-2.944-6.564
			c-1.831-1.851-4.303-2.694-7.417-2.53c-2.628,0.139-4.718,0.996-6.27,2.57s-2.254,3.753-2.107,6.534
			c0.028,0.537-0.179,1.013-0.618,1.428c-0.44,0.415-1.048,0.643-1.823,0.684c-1.454,0.076-2.233-0.879-2.338-2.867
			c-0.185-3.49,0.977-6.442,3.48-8.859c2.505-2.416,5.701-3.728,9.589-3.933c4.179-0.22,7.711,0.926,10.598,3.437
			c2.886,2.511,4.434,5.745,4.642,9.704c0.128,2.428-0.357,4.79-1.454,7.087c-1.097,2.298-2.504,4.271-4.219,5.92
			c-1.716,1.649-3.601,3.33-5.654,5.044l-5.691,4.536c-1.736,1.31-3.172,2.76-4.307,4.354c-1.136,1.593-1.662,3.143-1.583,4.648
			l0.238,4.515l23.263-1.226c0.485-0.025,0.909,0.171,1.273,0.59c0.363,0.418,0.561,0.918,0.591,1.5
			c0.031,0.581-0.11,1.111-0.425,1.59s-0.714,0.73-1.196,0.756l-25.823,1.359c-0.532,0.028-1.049-0.127-1.553-0.465
			C480.791,484.818,480.526,484.381,480.498,483.847z"/>
		<path d="M515.771,469.081c-0.063-0.48-0.02-0.901,0.13-1.263l13.511-38.013c0.356-1.022,1.041-1.6,2.052-1.73
			c0.529-0.068,1.072,0.058,1.627,0.377c0.556,0.32,0.867,0.745,0.937,1.273c0.037,0.289,0.005,0.612-0.096,0.967l-12.42,35.087
			l14.153-1.831l-1.82-14.064c-0.157-1.214,0.559-1.925,2.147-2.131c0.625-0.08,1.199,0.006,1.723,0.26
			c0.521,0.253,0.821,0.672,0.896,1.255l1.819,14.063l3.972-0.514c0.577-0.074,1.051,0.09,1.422,0.492
			c0.37,0.401,0.592,0.882,0.664,1.441c0.078,0.607-0.023,1.154-0.302,1.64c-0.28,0.486-0.686,0.764-1.214,0.832l-3.972,0.514
			l1.38,10.666c0.075,0.584-0.106,1.078-0.543,1.481c-0.438,0.402-0.97,0.645-1.595,0.726c-0.675,0.087-1.262-0.01-1.763-0.292
			c-0.503-0.281-0.79-0.714-0.866-1.299l-1.38-10.666l-18.342,2.373C516.641,470.888,515.935,470.341,515.771,469.081z"/>
	</g>
	<g>
		<path class="st5" d="M242.602,465.748c0,0,74.688,130.658,237.342,118.994c175.73-12.602,207.938-77.883,228.941-102.967"/>
		<path d="M346.974,557.916l19.627-45.536c0.23-0.535,0.608-0.86,1.135-0.978c0.526-0.116,1.057-0.06,1.591,0.171l10.966,4.727
			c2.05,0.883,3.766,1.809,5.147,2.773c1.38,0.965,2.556,2.133,3.525,3.502c0.969,1.369,1.467,2.971,1.496,4.808
			c0.028,1.835-0.448,3.89-1.428,6.163c-1.191,2.765-2.713,4.884-4.564,6.358c-1.853,1.475-3.81,2.217-5.875,2.226
			c1.844,1.853,2.973,3.925,3.386,6.216c0.412,2.293-0.073,5.044-1.456,8.253l-0.519,1.204c-2.075,4.814-4.788,7.796-8.136,8.941
			c-3.349,1.147-7.029,0.855-11.041-0.873l-12.571-5.419c-0.625-0.269-1.043-0.647-1.255-1.136
			C346.791,558.828,346.781,558.362,346.974,557.916z M352.357,557.382l9.696,4.18c6.241,2.689,10.783,0.736,13.627-5.861
			l0.49-1.137c2.728-6.33,0.972-10.841-5.269-13.53l-9.695-4.179L352.357,557.382z M362.848,533.043l8.76,3.775
			c3.165,1.364,5.754,1.701,7.771,1.011c2.015-0.69,3.696-2.597,5.041-5.717c1.249-2.897,1.316-5.261,0.201-7.089
			c-1.115-1.829-3.188-3.396-6.219-4.703l-8.492-3.66L362.848,533.043z"/>
		<path d="M388.598,574.172l1.552-6.9c0.49-2.181,1.781-4.107,3.871-5.779c2.09-1.673,4.494-3.101,7.21-4.283l8.125-3.48
			c2.761-1.173,5.216-2.651,7.366-4.436c2.149-1.784,3.48-3.814,3.992-6.092c0.555-2.467,0.201-4.839-1.06-7.116
			c-1.262-2.277-3.414-3.758-6.456-4.442c-2.567-0.577-4.812-0.316-6.731,0.779c-1.92,1.096-3.185,3.004-3.796,5.721
			c-0.118,0.525-0.445,0.928-0.98,1.208c-0.537,0.28-1.183,0.335-1.94,0.164c-1.421-0.319-1.913-1.449-1.476-3.392
			c0.767-3.409,2.682-5.938,5.747-7.589c3.064-1.648,6.496-2.047,10.294-1.192c4.083,0.918,7.174,2.977,9.273,6.174
			c2.099,3.197,2.714,6.73,1.845,10.598c-0.533,2.372-1.639,4.515-3.316,6.43c-1.677,1.916-3.565,3.436-5.663,4.559
			c-2.098,1.124-4.367,2.232-6.808,3.327l-6.706,2.828c-2.026,0.791-3.8,1.8-5.324,3.026c-1.524,1.227-2.45,2.576-2.781,4.047
			l-0.992,4.411l22.729,5.111c0.474,0.106,0.829,0.41,1.066,0.911s0.292,1.036,0.164,1.604s-0.408,1.041-0.84,1.416
			c-0.432,0.376-0.884,0.51-1.356,0.403l-25.229-5.673c-0.52-0.117-0.976-0.406-1.369-0.867
			C388.617,575.186,388.48,574.693,388.598,574.172z"/>
		<path d="M430.37,582.409l0.379-7.063c0.119-2.232,1.07-4.347,2.852-6.345c1.782-1.997,3.914-3.807,6.395-5.426l7.43-4.788
			c2.527-1.617,4.701-3.484,6.522-5.603c1.821-2.117,2.795-4.342,2.92-6.673c0.135-2.524-0.609-4.804-2.232-6.839
			c-1.624-2.034-3.993-3.136-7.106-3.303c-2.628-0.141-4.797,0.491-6.507,1.892c-1.71,1.401-2.64,3.493-2.788,6.274
			c-0.029,0.537-0.284,0.988-0.766,1.354c-0.482,0.366-1.11,0.527-1.886,0.485c-1.454-0.077-2.128-1.109-2.021-3.098
			c0.188-3.49,1.654-6.303,4.4-8.441c2.746-2.137,6.063-3.103,9.951-2.894c4.179,0.224,7.57,1.737,10.174,4.539
			c2.604,2.803,3.8,6.184,3.588,10.142c-0.13,2.428-0.863,4.725-2.197,6.894c-1.334,2.168-2.942,3.981-4.822,5.439
			c-1.881,1.458-3.933,2.929-6.157,4.416l-6.14,3.907c-1.865,1.118-3.446,2.408-4.744,3.873c-1.297,1.464-1.985,2.949-2.066,4.454
			l-0.241,4.515l23.262,1.247c0.485,0.025,0.886,0.266,1.203,0.721c0.317,0.454,0.461,0.973,0.43,1.554
			c-0.031,0.582-0.229,1.095-0.592,1.536c-0.363,0.443-0.786,0.65-1.27,0.625l-25.821-1.384c-0.532-0.028-1.03-0.237-1.494-0.627
			C430.559,583.405,430.342,582.942,430.37,582.409z"/>
		<path d="M472.55,570.211l-1.878-22.493c-0.444-5.321,0.608-9.342,3.158-12.064c2.55-2.721,6.146-4.275,10.79-4.663
			c4.644-0.388,8.397,0.53,11.263,2.75c2.863,2.222,4.438,5.025,4.72,8.41c0.121,1.451-0.568,2.24-2.067,2.365
			c-1.693,0.141-2.594-0.441-2.703-1.747c-0.206-2.468-1.363-4.368-3.472-5.702c-2.109-1.333-4.613-1.88-7.517-1.638
			c-6.869,0.573-9.996,4.535-9.383,11.887l0.927,11.1c2.103-3.387,5.623-5.287,10.557-5.699c9.626-0.803,14.842,3.609,15.646,13.234
			l0.145,1.742c0.448,5.369-0.591,9.414-3.115,12.133c-2.525,2.721-6.086,4.271-10.681,4.654c-4.597,0.384-8.365-0.556-11.306-2.819
			C474.691,579.397,472.998,575.581,472.55,570.211z M477.351,569.953c0.609,7.308,4.349,10.674,11.218,10.101
			c6.868-0.573,9.999-4.513,9.39-11.82l-0.145-1.731c-0.582-6.97-4.309-10.169-11.177-9.596c-6.869,0.574-10.03,4.13-9.485,10.667
			L477.351,569.953z"/>
		<path d="M513.491,569.637c-0.229-1.487,0.398-2.346,1.887-2.575c1.63-0.252,2.55,0.295,2.757,1.638
			c0.378,2.446,1.664,4.263,3.86,5.445c2.196,1.185,4.734,1.555,7.612,1.11c6.86-1.058,9.725-5.257,8.593-12.599l-1.698-11.011
			c-1.807,3.57-5.182,5.737-10.122,6.499c-9.548,1.473-15.061-2.588-16.54-12.184l-0.267-1.728
			c-0.813-5.276-0.056-9.359,2.273-12.249c2.329-2.888,5.749-4.681,10.259-5.376c4.558-0.703,8.395-0.029,11.51,2.02
			c3.116,2.05,5.081,5.712,5.895,10.989l3.44,22.309c0.821,5.325,0.043,9.436-2.335,12.331c-2.378,2.897-5.846,4.696-10.402,5.398
			c-4.605,0.711-8.415,0.059-11.427-1.958C515.773,575.683,514.009,572.995,513.491,569.637z M514.562,545.052
			c0.564,3.657,1.838,6.184,3.821,7.577c1.983,1.395,4.653,1.832,8.012,1.314c6.812-1.051,9.714-4.849,8.705-11.394l-0.367-2.383
			c-0.571-3.705-1.898-6.333-3.979-7.884c-2.08-1.551-4.753-2.076-8.015-1.573c-6.765,1.044-9.579,5.246-8.443,12.609
			L514.562,545.052z"/>
		<path d="M555.083,561.326l-1.841-7.57c-0.964-3.962-0.592-7.462,1.118-10.5c1.708-3.038,4.803-5.103,9.285-6.192
			c2.83-0.688,5.323-0.757,7.479-0.208c2.157,0.551,3.362,1.344,3.614,2.381c0.126,0.52,0.037,1.078-0.267,1.677
			c-0.305,0.598-0.716,0.961-1.234,1.087c-0.283,0.068-0.77-0.031-1.46-0.301c-0.69-0.271-1.631-0.491-2.821-0.663
			c-1.191-0.172-2.541-0.075-4.05,0.292c-3.02,0.734-5.125,2.091-6.317,4.069c-1.192,1.979-1.439,4.4-0.744,7.262l1.831,7.528
			c0.707,2.909,2.044,4.97,4.013,6.179c1.968,1.211,4.484,1.443,7.551,0.698c1.603-0.39,2.906-0.938,3.909-1.645
			c1.002-0.704,1.744-1.348,2.229-1.928c0.483-0.579,0.89-0.909,1.221-0.99c0.612-0.148,1.177-0.035,1.693,0.338
			c0.515,0.375,0.842,0.845,0.979,1.41c0.264,1.086-0.472,2.376-2.206,3.871c-1.734,1.497-4.064,2.6-6.988,3.311
			c-4.528,1.101-8.246,0.707-11.153-1.185C558.016,568.357,556.069,565.384,555.083,561.326z"/>
	</g>
</g>
<g id="mask">
</g>
</svg>
