<?xml version="1.0" encoding="utf-8"?>
<!-- Generator: Adobe Illustrator 16.0.0, SVG Export Plug-In . SVG Version: 6.00 Build 0)  -->
<!DOCTYPE svg PUBLIC "-//W3C//DTD SVG 1.1//EN" "http://www.w3.org/Graphics/SVG/1.1/DTD/svg11.dtd" [
	<!ENTITY ns_flows "http://ns.adobe.com/Flows/1.0/">
	<!ENTITY ns_extend "http://ns.adobe.com/Extensibility/1.0/">
	<!ENTITY ns_ai "http://ns.adobe.com/AdobeIllustrator/10.0/">
	<!ENTITY ns_graphs "http://ns.adobe.com/Graphs/1.0/">
	<!ENTITY ns_vars "http://ns.adobe.com/Variables/1.0/">
	<!ENTITY ns_imrep "http://ns.adobe.com/ImageReplacement/1.0/">
	<!ENTITY ns_sfw "http://ns.adobe.com/SaveForWeb/1.0/">
	<!ENTITY ns_custom "http://ns.adobe.com/GenericCustomNamespace/1.0/">
	<!ENTITY ns_adobe_xpath "http://ns.adobe.com/XPath/1.0/">
]>
<svg version="1.1" xmlns:x="&ns_extend;" xmlns:i="&ns_ai;" xmlns:graph="&ns_graphs;"
	 xmlns="http://www.w3.org/2000/svg" xmlns:xlink="http://www.w3.org/1999/xlink" xmlns:a="http://ns.adobe.com/AdobeSVGViewerExtensions/3.0/"
	 x="0px" y="0px" width="1024px" height="800px" viewBox="0 0 1024 800" style="enable-background:new 0 0 1024 800;"
	 xml:space="preserve">
<style type="text/css">
<![CDATA[
	.st0{fill:#C0504D;}
	.st1{fill:#FEFEED;}
	.st2{fill:#FFFFFF;}
	.st3{fill:#3C733D;}
]]>
</style>
<metadata>
	<sfw  xmlns="&ns_sfw;">
		<slices></slices>
		<sliceSourceBounds  height="800" width="1024" y="-600" x="-262" bottomLeftOrigin="true"></sliceSourceBounds>
	</sfw>
</metadata>
<g id="background">
	<rect class="st1" width="1024" height="800"/>
</g>
<g id="box">
	<circle class="st0" cx="222.856" cy="557.696" r="119.997"/>
	<circle class="st0" cx="792.498" cy="557.696" r="119.997"/>
	<circle class="st0" cx="510.76" cy="213.675" r="119.997"/>
</g>
<g id="cetas">
	<g>
		<g>
			<polygon class="st3" points="622,535.352 622,580.046 644.339,557.701 			"/>
		</g>
		<g>
			<polygon class="st3" points="406,580.044 406,535.349 383.66,557.693 			"/>
		</g>
		<rect x="420" y="538" class="st3" width="188" height="38"/>
	</g>
	<g>
		<g>
			<polygon class="st3" points="385.097,304.935 406.97,326.809 406.967,304.939 			"/>
		</g>
		<g>
			<polygon class="st3" points="301.967,431.811 280.092,409.935 280.095,431.806 			"/>
		</g>
		
			<rect x="336.821" y="303.201" transform="matrix(0.7072 0.707 -0.707 0.7072 360.7452 -134.8927)" class="st3" width="12.801" height="129.721"/>
	</g>
	<g>
		<g>
			<polygon class="st3" points="736.178,409.94 714.304,431.814 736.174,431.811 			"/>
		</g>
		<g>
			<polygon class="st3" points="609.302,326.81 631.179,304.935 609.308,304.938 			"/>
		</g>
		
			<rect x="666.652" y="303.204" transform="matrix(-0.7071 0.7071 -0.7071 -0.7071 1409.2317 152.405)" class="st3" width="12.8" height="129.72"/>
	</g>
</g>
<g id="texto">
	<g>
		<g>
			<path class="st2" d="M449.463,220.495v-17.026c0-0.279,0.104-0.524,0.314-0.734c0.209-0.209,0.471-0.314,0.786-0.314h5.187
				c4.139,0,6.208,1.825,6.208,5.475c0,1.432-0.311,2.584-0.93,3.458c-0.62,0.874-1.454,1.467-2.501,1.781l3.432,6.366
				c0.087,0.104,0.131,0.245,0.131,0.419c0,0.437-0.227,0.843-0.681,1.218s-0.935,0.563-1.44,0.563c-0.507,0-0.9-0.271-1.179-0.812
				l-3.72-7.23h-2.2v6.837c0,0.332-0.166,0.594-0.498,0.786c-0.332,0.192-0.733,0.288-1.205,0.288c-0.454,0-0.852-0.096-1.192-0.288
				C449.633,221.089,449.463,220.827,449.463,220.495z M452.868,210.986h2.881c1.869,0,2.803-0.925,2.803-2.776
				c0-1.869-0.935-2.803-2.803-2.803h-2.881V210.986z"/>
			<path class="st2" d="M464.394,220.495v-17c0-0.332,0.148-0.593,0.445-0.786c0.297-0.192,0.646-0.288,1.048-0.288h9.325
				c0.349,0,0.616,0.148,0.799,0.445c0.183,0.297,0.275,0.638,0.275,1.021c0,0.419-0.096,0.777-0.288,1.074
				c-0.192,0.297-0.455,0.445-0.786,0.445h-7.413v5.239h3.981c0.332,0,0.594,0.135,0.786,0.406c0.192,0.271,0.288,0.59,0.288,0.957
				c0,0.332-0.092,0.633-0.275,0.903c-0.184,0.271-0.45,0.406-0.799,0.406h-3.981v5.265h7.413c0.332,0,0.594,0.148,0.786,0.445
				c0.192,0.297,0.288,0.655,0.288,1.074c0,0.384-0.092,0.725-0.275,1.021c-0.184,0.297-0.45,0.445-0.799,0.445h-9.325
				c-0.402,0-0.751-0.096-1.048-0.288C464.542,221.089,464.394,220.827,464.394,220.495z"/>
			<path class="st2" d="M477.334,218.557c0-0.402,0.152-0.808,0.458-1.218c0.306-0.41,0.65-0.616,1.035-0.616
				c0.227,0,0.485,0.109,0.773,0.327s0.567,0.458,0.838,0.721c0.271,0.263,0.659,0.503,1.166,0.721
				c0.506,0.218,1.065,0.327,1.677,0.327c0.838,0,1.536-0.192,2.095-0.576s0.838-0.952,0.838-1.703c0-0.524-0.153-0.991-0.458-1.401
				s-0.707-0.751-1.205-1.022c-0.498-0.271-1.043-0.532-1.637-0.786c-0.594-0.253-1.191-0.537-1.794-0.852
				c-0.603-0.314-1.153-0.668-1.65-1.061c-0.498-0.393-0.9-0.917-1.205-1.572c-0.306-0.655-0.458-1.401-0.458-2.24
				c0-0.939,0.188-1.768,0.563-2.486c0.375-0.718,0.877-1.276,1.506-1.675c0.629-0.398,1.301-0.691,2.017-0.877
				c0.716-0.186,1.476-0.279,2.279-0.279c0.454,0,0.934,0.032,1.44,0.094c0.506,0.063,1.043,0.166,1.611,0.31
				c0.567,0.144,1.03,0.368,1.388,0.672c0.357,0.305,0.537,0.664,0.537,1.076c0,0.389-0.123,0.791-0.367,1.207
				c-0.245,0.416-0.577,0.623-0.996,0.623c-0.157,0-0.585-0.166-1.284-0.498c-0.699-0.331-1.476-0.498-2.331-0.498
				c-0.943,0-1.672,0.179-2.188,0.537s-0.773,0.852-0.773,1.48c0,0.507,0.21,0.948,0.629,1.323c0.419,0.376,0.938,0.681,1.559,0.917
				c0.62,0.236,1.292,0.533,2.017,0.891c0.725,0.358,1.397,0.747,2.017,1.166c0.62,0.419,1.139,1.026,1.559,1.821
				c0.419,0.795,0.628,1.725,0.628,2.79c0,1.791-0.572,3.173-1.716,4.146c-1.144,0.973-2.65,1.459-4.519,1.459
				c-1.659,0-3.083-0.341-4.27-1.021C477.928,220.103,477.334,219.36,477.334,218.557z"/>
			<path class="st2" d="M491.872,215.728v-12.259c0-0.35,0.166-0.611,0.498-0.786c0.332-0.174,0.733-0.262,1.205-0.262
				s0.873,0.087,1.205,0.262c0.332,0.175,0.498,0.437,0.498,0.786v12.259c0,2.008,0.96,3.012,2.881,3.012s2.882-1.004,2.882-3.012
				v-12.259c0-0.35,0.166-0.611,0.498-0.786c0.332-0.174,0.733-0.262,1.205-0.262c0.471,0,0.873,0.087,1.205,0.262
				c0.332,0.175,0.498,0.437,0.498,0.786v12.259c0,2.061-0.572,3.575-1.716,4.544c-1.144,0.969-2.668,1.454-4.571,1.454
				s-3.427-0.48-4.571-1.441C492.444,219.326,491.872,217.806,491.872,215.728z"/>
			<path class="st2" d="M507.51,220.495v-17.026c0-0.35,0.166-0.611,0.498-0.786c0.332-0.174,0.733-0.262,1.205-0.262
				s0.873,0.087,1.205,0.262c0.332,0.175,0.498,0.437,0.498,0.786v15.114h6.392c0.313,0,0.563,0.148,0.746,0.445
				c0.184,0.297,0.275,0.646,0.275,1.048c0,0.402-0.092,0.751-0.275,1.048c-0.184,0.297-0.433,0.445-0.746,0.445h-8.304
				c-0.402,0-0.751-0.096-1.048-0.288C507.658,221.089,507.51,220.827,507.51,220.495z"/>
			<path class="st2" d="M516.391,203.901c0-0.392,0.092-0.736,0.275-1.034c0.183-0.298,0.449-0.447,0.799-0.447h11.08
				c0.35,0,0.615,0.149,0.799,0.447s0.275,0.642,0.275,1.034c0,0.408-0.097,0.761-0.288,1.059c-0.192,0.298-0.454,0.446-0.786,0.446
				h-3.824v15.083c0,0.333-0.17,0.597-0.511,0.79c-0.341,0.193-0.738,0.29-1.192,0.29c-0.472,0-0.873-0.096-1.205-0.29
				c-0.331-0.193-0.497-0.456-0.497-0.79v-15.083h-3.851c-0.332,0-0.594-0.144-0.786-0.434
				C516.486,204.684,516.391,204.327,516.391,203.901z"/>
			<path class="st2" d="M528.22,220.058c0-0.038,0.018-0.131,0.053-0.28l5.061-16.476c0.105-0.33,0.362-0.586,0.773-0.767
				c0.41-0.181,0.877-0.271,1.401-0.271c0.523,0,0.995,0.101,1.414,0.301s0.682,0.484,0.786,0.851l5.056,16.477
				c0.035,0.14,0.053,0.227,0.053,0.262c0,0.384-0.236,0.716-0.708,0.996c-0.471,0.279-0.951,0.419-1.44,0.419
				c-0.646,0-1.03-0.227-1.152-0.681l-0.995-3.484h-5.612l-0.977,3.486c-0.138,0.453-0.57,0.679-1.299,0.679
				c-0.57,0-1.115-0.145-1.635-0.434C528.479,220.846,528.22,220.487,528.22,220.058z M533.656,214.732h4.529l-2.279-8.042
				L533.656,214.732z"/>
			<path class="st2" d="M545.022,220.521v-17.053c0-0.279,0.14-0.524,0.42-0.734c0.278-0.209,0.637-0.314,1.073-0.314h4.637
				c1.868,0,3.361,0.48,4.479,1.44c1.117,0.961,1.677,2.48,1.677,4.558v7.151c0,2.078-0.56,3.598-1.677,4.558
				c-1.118,0.961-2.611,1.441-4.479,1.441h-4.637c-0.437,0-0.795-0.105-1.073-0.314
				C545.162,221.045,545.022,220.801,545.022,220.521z M548.429,218.583h2.724c1.834,0,2.751-1.004,2.751-3.012v-7.151
				c0-2.008-0.917-3.013-2.751-3.013h-2.724V218.583z"/>
			<path class="st2" d="M560.006,215.728v-7.309c0-2.078,0.554-3.597,1.663-4.558c1.109-0.96,2.598-1.44,4.467-1.44
				c1.868,0,3.361,0.48,4.479,1.44c1.118,0.961,1.677,2.48,1.677,4.558v7.309c0,2.078-0.559,3.598-1.677,4.558
				c-1.117,0.961-2.61,1.441-4.479,1.441c-1.869,0-3.357-0.48-4.467-1.441C560.56,219.326,560.006,217.806,560.006,215.728z
				 M563.411,215.728c0,2.008,0.908,3.012,2.725,3.012c1.833,0,2.75-1.004,2.75-3.012v-7.309c0-2.008-0.917-3.013-2.75-3.013
				c-1.816,0-2.725,1.004-2.725,3.013V215.728z"/>
		</g>
	</g>
	<g>
		<path class="st2" d="M174.722,547.199c0-0.401,0.152-0.808,0.458-1.218s0.65-0.615,1.035-0.615c0.227,0,0.485,0.108,0.773,0.326
			s0.567,0.458,0.838,0.722c0.271,0.263,0.659,0.503,1.166,0.721c0.506,0.218,1.065,0.327,1.677,0.327
			c0.838,0,1.536-0.192,2.095-0.577c0.559-0.384,0.838-0.951,0.838-1.702c0-0.524-0.153-0.991-0.458-1.401s-0.707-0.751-1.205-1.021
			c-0.498-0.271-1.043-0.533-1.637-0.786s-1.191-0.537-1.794-0.852s-1.153-0.668-1.65-1.061c-0.498-0.394-0.9-0.917-1.205-1.572
			c-0.306-0.654-0.458-1.401-0.458-2.239c0-0.939,0.188-1.769,0.563-2.486c0.375-0.718,0.877-1.276,1.506-1.675
			c0.629-0.398,1.301-0.691,2.017-0.877c0.716-0.187,1.476-0.279,2.279-0.279c0.454,0,0.934,0.031,1.44,0.094
			c0.506,0.063,1.043,0.166,1.611,0.31c0.567,0.144,1.03,0.368,1.388,0.673c0.357,0.305,0.537,0.663,0.537,1.075
			c0,0.39-0.123,0.792-0.367,1.207c-0.245,0.415-0.577,0.623-0.996,0.623c-0.157,0-0.585-0.166-1.284-0.498
			c-0.699-0.331-1.476-0.497-2.331-0.497c-0.943,0-1.672,0.179-2.188,0.536c-0.515,0.358-0.773,0.852-0.773,1.48
			c0,0.507,0.21,0.947,0.629,1.323c0.419,0.375,0.938,0.681,1.559,0.916c0.62,0.236,1.292,0.533,2.017,0.891
			c0.725,0.358,1.397,0.747,2.017,1.166c0.62,0.419,1.139,1.026,1.559,1.82c0.419,0.795,0.628,1.726,0.628,2.79
			c0,1.791-0.572,3.174-1.716,4.146c-1.144,0.973-2.65,1.459-4.519,1.459c-1.659,0-3.083-0.34-4.27-1.021
			C175.315,548.745,174.722,548.003,174.722,547.199z"/>
		<path class="st2" d="M189.259,544.37v-12.259c0-0.35,0.166-0.611,0.498-0.786c0.332-0.175,0.733-0.262,1.205-0.262
			s0.873,0.087,1.205,0.262c0.332,0.175,0.498,0.437,0.498,0.786v12.259c0,2.009,0.96,3.013,2.881,3.013s2.882-1.004,2.882-3.013
			v-12.259c0-0.35,0.166-0.611,0.498-0.786c0.332-0.175,0.733-0.262,1.205-0.262c0.471,0,0.873,0.087,1.205,0.262
			s0.498,0.437,0.498,0.786v12.259c0,2.062-0.572,3.576-1.716,4.545c-1.144,0.97-2.668,1.454-4.571,1.454s-3.427-0.48-4.571-1.44
			C189.831,547.968,189.259,546.449,189.259,544.37z"/>
		<path class="st2" d="M203.666,545.156c0-0.629,0.131-1.061,0.393-1.297c0.262-0.235,0.698-0.354,1.31-0.354
			c1.065,0,1.632,0.358,1.703,1.074c0.069,1.869,0.969,2.803,2.698,2.803c1.851,0,2.777-1.004,2.777-3.013v-10.32h-2.672
			c-0.332,0-0.594-0.148-0.786-0.445s-0.288-0.655-0.288-1.074c0-0.401,0.092-0.747,0.275-1.035
			c0.183-0.288,0.449-0.432,0.799-0.432h4.584c0.402,0,0.751,0.096,1.048,0.288s0.445,0.454,0.445,0.786v12.232
			c0,2.062-0.555,3.576-1.663,4.545c-1.109,0.97-2.563,1.454-4.362,1.454c-1.851,0-3.357-0.467-4.519-1.401
			C204.247,548.033,203.666,546.763,203.666,545.156z"/>
		<path class="st2" d="M219.016,549.138v-17c0-0.332,0.148-0.594,0.445-0.786c0.297-0.192,0.646-0.288,1.048-0.288h9.325
			c0.349,0,0.616,0.148,0.799,0.445c0.183,0.297,0.275,0.638,0.275,1.021c0,0.419-0.096,0.777-0.288,1.074
			c-0.192,0.297-0.455,0.445-0.786,0.445h-7.413v5.238h3.981c0.332,0,0.594,0.136,0.786,0.406c0.192,0.271,0.288,0.59,0.288,0.956
			c0,0.332-0.092,0.634-0.275,0.904c-0.184,0.271-0.45,0.406-0.799,0.406h-3.981v5.265h7.413c0.332,0,0.594,0.148,0.786,0.445
			c0.192,0.297,0.288,0.655,0.288,1.074c0,0.384-0.092,0.725-0.275,1.021c-0.184,0.297-0.45,0.445-0.799,0.445h-9.325
			c-0.402,0-0.751-0.096-1.048-0.288C219.164,549.731,219.016,549.47,219.016,549.138z"/>
		<path class="st2" d="M232.899,549.138v-17.026c0-0.35,0.166-0.611,0.498-0.786c0.332-0.175,0.733-0.262,1.205-0.262
			s0.873,0.087,1.205,0.262c0.332,0.175,0.498,0.437,0.498,0.786v17.026c0,0.332-0.17,0.594-0.511,0.786
			c-0.341,0.192-0.738,0.288-1.192,0.288c-0.472,0-0.874-0.096-1.205-0.288C233.065,549.731,232.899,549.47,232.899,549.138z"/>
		<path class="st2" d="M238.191,532.544c0-0.392,0.092-0.735,0.275-1.034c0.184-0.298,0.449-0.446,0.799-0.446h11.081
			c0.349,0,0.616,0.148,0.799,0.446c0.183,0.299,0.275,0.643,0.275,1.034c0,0.408-0.096,0.761-0.288,1.059
			c-0.192,0.299-0.455,0.447-0.786,0.447h-3.824v15.083c0,0.333-0.17,0.597-0.511,0.79c-0.341,0.193-0.738,0.289-1.192,0.289
			c-0.472,0-0.874-0.096-1.205-0.289c-0.332-0.193-0.498-0.457-0.498-0.79V534.05h-3.851c-0.332,0-0.594-0.145-0.786-0.435
			C238.287,533.327,238.191,532.97,238.191,532.544z"/>
		<path class="st2" d="M252.756,544.37v-7.309c0-2.077,0.554-3.597,1.663-4.558c1.109-0.96,2.598-1.44,4.466-1.44
			s3.362,0.48,4.479,1.44c1.117,0.961,1.676,2.48,1.676,4.558v7.309c0,2.079-0.559,3.598-1.676,4.559
			c-1.118,0.96-2.611,1.44-4.479,1.44s-3.357-0.48-4.466-1.44C253.31,547.968,252.756,546.449,252.756,544.37z M256.161,544.37
			c0,2.009,0.908,3.013,2.724,3.013c1.834,0,2.75-1.004,2.75-3.013v-7.309c0-2.008-0.917-3.012-2.75-3.012
			c-1.816,0-2.724,1.004-2.724,3.012V544.37z"/>
		<path class="st2" d="M143.982,575.805v-7.309c0-2.06,0.559-3.575,1.677-4.544c1.117-0.97,2.576-1.454,4.375-1.454
			c1.833,0,3.331,0.454,4.492,1.362c1.162,0.908,1.742,2.113,1.742,3.614c0,0.646-0.131,1.088-0.393,1.323
			c-0.262,0.235-0.699,0.354-1.31,0.354c-1.118,0-1.686-0.357-1.703-1.074c-0.018-0.227-0.04-0.423-0.065-0.589
			c-0.026-0.166-0.096-0.384-0.209-0.655c-0.114-0.271-0.258-0.498-0.433-0.681c-0.175-0.184-0.437-0.341-0.786-0.472
			c-0.35-0.131-0.76-0.196-1.231-0.196c-1.834,0-2.75,1.004-2.75,3.012v7.309c0,2.009,0.934,3.013,2.803,3.013
			c0.559,0,1.025-0.087,1.401-0.262c0.375-0.175,0.646-0.424,0.812-0.747c0.166-0.322,0.279-0.61,0.34-0.864
			c0.061-0.253,0.101-0.563,0.118-0.93c0.052-0.716,0.611-1.074,1.676-1.074c0.611,0,1.052,0.118,1.323,0.354
			c0.271,0.236,0.406,0.677,0.406,1.323c0,1.571-0.581,2.829-1.742,3.771c-1.161,0.943-2.667,1.415-4.519,1.415
			c-1.799,0-3.252-0.484-4.361-1.454C144.536,579.381,143.982,577.866,143.982,575.805z"/>
		<path class="st2" d="M158.363,575.805v-7.309c0-2.077,0.554-3.597,1.663-4.558c1.109-0.96,2.598-1.44,4.466-1.44
			s3.362,0.48,4.479,1.44c1.117,0.961,1.676,2.48,1.676,4.558v7.309c0,2.079-0.559,3.598-1.676,4.559
			c-1.118,0.96-2.611,1.44-4.479,1.44s-3.357-0.48-4.466-1.44C158.917,579.402,158.363,577.884,158.363,575.805z M161.769,575.805
			c0,2.009,0.908,3.013,2.724,3.013c1.834,0,2.75-1.004,2.75-3.013v-7.309c0-2.008-0.917-3.012-2.75-3.012
			c-1.816,0-2.724,1.004-2.724,3.012V575.805z"/>
		<path class="st2" d="M173.347,575.805v-7.309c0-2.06,0.554-3.575,1.663-4.544c1.109-0.97,2.563-1.454,4.362-1.454
			c1.851,0,3.357,0.454,4.519,1.362c1.161,0.908,1.742,2.131,1.742,3.667c0,0.629-0.135,1.057-0.406,1.283
			c-0.271,0.228-0.703,0.341-1.297,0.341c-1.118,0-1.686-0.357-1.703-1.074c-0.052-0.768-0.271-1.393-0.655-1.873
			c-0.384-0.479-1.074-0.72-2.069-0.72c-1.833,0-2.75,1.004-2.75,3.012v7.309c0,2.009,0.908,3.013,2.724,3.013
			c0.873,0,1.55-0.253,2.03-0.76c0.48-0.506,0.72-1.257,0.72-2.253v-1.545h-2.122c-0.332,0-0.589-0.131-0.773-0.394
			c-0.183-0.262-0.275-0.576-0.275-0.942c0-0.35,0.096-0.659,0.288-0.931c0.192-0.271,0.445-0.405,0.76-0.405h4.453
			c0.332,0,0.593,0.109,0.786,0.327c0.192,0.219,0.288,0.476,0.288,0.772v3.117c0,2.079-0.559,3.598-1.676,4.559
			c-1.118,0.96-2.611,1.44-4.479,1.44s-3.357-0.48-4.466-1.44C173.901,579.402,173.347,577.884,173.347,575.805z"/>
		<path class="st2" d="M188.33,580.572v-17c0-0.35,0.166-0.616,0.498-0.8c0.332-0.183,0.733-0.274,1.205-0.274
			c0.628,0,1.109,0.113,1.441,0.341c0.332,0.227,0.698,0.716,1.1,1.467l5.056,9.771v-10.53c0-0.35,0.166-0.611,0.498-0.786
			c0.332-0.175,0.733-0.262,1.205-0.262s0.873,0.087,1.205,0.262c0.332,0.175,0.498,0.437,0.498,0.786v17.026
			c0,0.332-0.17,0.594-0.511,0.786c-0.341,0.192-0.738,0.288-1.192,0.288c-0.926,0-1.581-0.357-1.965-1.074l-5.632-10.53v10.53
			c0,0.332-0.17,0.594-0.511,0.786c-0.341,0.192-0.738,0.288-1.192,0.288c-0.472,0-0.874-0.096-1.205-0.288
			C188.496,581.166,188.33,580.904,188.33,580.572z"/>
		<path class="st2" d="M203.969,575.805v-7.309c0-2.077,0.554-3.597,1.663-4.558c1.109-0.96,2.598-1.44,4.466-1.44
			s3.362,0.48,4.479,1.44c1.117,0.961,1.676,2.48,1.676,4.558v7.309c0,2.079-0.559,3.598-1.676,4.559
			c-1.118,0.96-2.611,1.44-4.479,1.44s-3.357-0.48-4.466-1.44C204.523,579.402,203.969,577.884,203.969,575.805z M207.374,575.805
			c0,2.009,0.908,3.013,2.724,3.013c1.834,0,2.75-1.004,2.75-3.013v-7.309c0-2.008-0.917-3.012-2.75-3.012
			c-1.816,0-2.724,1.004-2.724,3.012V575.805z"/>
		<path class="st2" d="M218.219,578.634c0-0.401,0.152-0.808,0.458-1.218s0.65-0.615,1.035-0.615c0.227,0,0.485,0.108,0.773,0.326
			s0.567,0.458,0.838,0.722c0.271,0.263,0.659,0.503,1.166,0.721c0.506,0.218,1.065,0.327,1.677,0.327
			c0.838,0,1.536-0.192,2.095-0.577c0.559-0.384,0.838-0.951,0.838-1.702c0-0.524-0.153-0.991-0.458-1.401s-0.707-0.751-1.205-1.021
			c-0.498-0.271-1.043-0.533-1.637-0.786s-1.191-0.537-1.794-0.852s-1.153-0.668-1.65-1.061c-0.498-0.394-0.9-0.917-1.205-1.572
			c-0.306-0.654-0.458-1.401-0.458-2.239c0-0.939,0.188-1.769,0.563-2.486c0.375-0.718,0.877-1.276,1.506-1.675
			c0.629-0.398,1.301-0.691,2.017-0.877c0.716-0.187,1.476-0.279,2.279-0.279c0.454,0,0.934,0.031,1.44,0.094
			c0.506,0.063,1.043,0.166,1.611,0.31c0.567,0.144,1.03,0.368,1.388,0.673c0.357,0.305,0.537,0.663,0.537,1.075
			c0,0.39-0.123,0.792-0.367,1.207c-0.245,0.415-0.577,0.623-0.996,0.623c-0.157,0-0.585-0.166-1.284-0.498
			c-0.699-0.331-1.476-0.497-2.331-0.497c-0.943,0-1.672,0.179-2.188,0.536c-0.515,0.358-0.773,0.852-0.773,1.48
			c0,0.507,0.21,0.947,0.629,1.323c0.419,0.375,0.938,0.681,1.559,0.916c0.62,0.236,1.292,0.533,2.017,0.891
			c0.725,0.358,1.397,0.747,2.017,1.166c0.62,0.419,1.139,1.026,1.559,1.82c0.419,0.795,0.628,1.726,0.628,2.79
			c0,1.791-0.572,3.174-1.716,4.146c-1.144,0.973-2.65,1.459-4.519,1.459c-1.659,0-3.083-0.34-4.27-1.021
			C218.812,580.18,218.219,579.438,218.219,578.634z"/>
		<path class="st2" d="M232.651,575.805v-7.309c0-2.06,0.559-3.575,1.677-4.544c1.117-0.97,2.576-1.454,4.375-1.454
			c1.833,0,3.331,0.454,4.492,1.362c1.162,0.908,1.742,2.113,1.742,3.614c0,0.646-0.131,1.088-0.393,1.323
			c-0.262,0.235-0.699,0.354-1.31,0.354c-1.118,0-1.686-0.357-1.703-1.074c-0.018-0.227-0.04-0.423-0.065-0.589
			c-0.026-0.166-0.096-0.384-0.209-0.655c-0.114-0.271-0.258-0.498-0.433-0.681c-0.175-0.184-0.437-0.341-0.786-0.472
			c-0.35-0.131-0.76-0.196-1.231-0.196c-1.834,0-2.75,1.004-2.75,3.012v7.309c0,2.009,0.934,3.013,2.803,3.013
			c0.559,0,1.025-0.087,1.401-0.262c0.375-0.175,0.646-0.424,0.812-0.747c0.166-0.322,0.279-0.61,0.34-0.864
			c0.061-0.253,0.101-0.563,0.118-0.93c0.052-0.716,0.611-1.074,1.676-1.074c0.611,0,1.052,0.118,1.323,0.354
			c0.271,0.236,0.406,0.677,0.406,1.323c0,1.571-0.581,2.829-1.742,3.771c-1.161,0.943-2.667,1.415-4.519,1.415
			c-1.799,0-3.252-0.484-4.361-1.454C233.206,579.381,232.651,577.866,232.651,575.805z"/>
		<path class="st2" d="M247.242,580.572v-17c0-0.332,0.148-0.594,0.445-0.786c0.297-0.192,0.646-0.288,1.048-0.288h9.325
			c0.349,0,0.616,0.148,0.799,0.445c0.183,0.297,0.275,0.638,0.275,1.021c0,0.419-0.096,0.777-0.288,1.074
			c-0.192,0.297-0.455,0.445-0.786,0.445h-7.413v5.238h3.981c0.332,0,0.594,0.136,0.786,0.406c0.192,0.271,0.288,0.59,0.288,0.956
			c0,0.332-0.092,0.634-0.275,0.904c-0.184,0.271-0.45,0.406-0.799,0.406h-3.981v5.265h7.413c0.332,0,0.594,0.148,0.786,0.445
			c0.192,0.297,0.288,0.655,0.288,1.074c0,0.384-0.092,0.725-0.275,1.021c-0.184,0.297-0.45,0.445-0.799,0.445h-9.325
			c-0.402,0-0.751-0.096-1.048-0.288C247.39,581.166,247.242,580.904,247.242,580.572z"/>
		<path class="st2" d="M261.125,580.572v-17c0-0.35,0.166-0.616,0.498-0.8c0.332-0.183,0.733-0.274,1.205-0.274
			c0.628,0,1.109,0.113,1.441,0.341c0.332,0.227,0.698,0.716,1.1,1.467l5.056,9.771v-10.53c0-0.35,0.166-0.611,0.498-0.786
			c0.332-0.175,0.733-0.262,1.205-0.262s0.873,0.087,1.205,0.262c0.332,0.175,0.498,0.437,0.498,0.786v17.026
			c0,0.332-0.17,0.594-0.511,0.786c-0.341,0.192-0.738,0.288-1.192,0.288c-0.926,0-1.581-0.357-1.965-1.074l-5.632-10.53v10.53
			c0,0.332-0.17,0.594-0.511,0.786c-0.341,0.192-0.738,0.288-1.192,0.288c-0.472,0-0.874-0.096-1.205-0.288
			C261.291,581.166,261.125,580.904,261.125,580.572z"/>
		<path class="st2" d="M275.716,563.979c0-0.392,0.092-0.735,0.275-1.034c0.184-0.298,0.449-0.446,0.799-0.446h11.081
			c0.349,0,0.616,0.148,0.799,0.446c0.183,0.299,0.275,0.643,0.275,1.034c0,0.408-0.096,0.761-0.288,1.059
			c-0.192,0.299-0.455,0.447-0.786,0.447h-3.824v15.083c0,0.333-0.17,0.597-0.511,0.79c-0.341,0.193-0.738,0.289-1.192,0.289
			c-0.472,0-0.874-0.096-1.205-0.289c-0.332-0.193-0.498-0.457-0.498-0.79v-15.083h-3.851c-0.332,0-0.594-0.145-0.786-0.435
			C275.812,564.762,275.716,564.404,275.716,563.979z"/>
		<path class="st2" d="M290.804,580.572v-17c0-0.332,0.148-0.594,0.445-0.786c0.297-0.192,0.646-0.288,1.048-0.288h9.325
			c0.349,0,0.616,0.148,0.799,0.445c0.183,0.297,0.275,0.638,0.275,1.021c0,0.419-0.096,0.777-0.288,1.074
			c-0.192,0.297-0.455,0.445-0.786,0.445h-7.413v5.238h3.981c0.332,0,0.594,0.136,0.786,0.406c0.192,0.271,0.288,0.59,0.288,0.956
			c0,0.332-0.092,0.634-0.275,0.904c-0.184,0.271-0.45,0.406-0.799,0.406h-3.981v5.265h7.413c0.332,0,0.594,0.148,0.786,0.445
			c0.192,0.297,0.288,0.655,0.288,1.074c0,0.384-0.092,0.725-0.275,1.021c-0.184,0.297-0.45,0.445-0.799,0.445h-9.325
			c-0.402,0-0.751-0.096-1.048-0.288C290.952,581.166,290.804,580.904,290.804,580.572z"/>
	</g>
	<g>
		<path class="st2" d="M739.792,544.37v-7.309c0-2.077,0.554-3.597,1.663-4.558c1.109-0.96,2.598-1.44,4.467-1.44
			c1.868,0,3.361,0.48,4.479,1.44c1.118,0.961,1.677,2.48,1.677,4.558v7.309c0,2.079-0.559,3.598-1.677,4.559
			c-1.117,0.96-2.61,1.44-4.479,1.44c-1.869,0-3.357-0.48-4.467-1.44C740.346,547.968,739.792,546.449,739.792,544.37z
			 M743.197,544.37c0,2.009,0.908,3.013,2.725,3.013c1.833,0,2.75-1.004,2.75-3.013v-7.309c0-2.008-0.917-3.012-2.75-3.012
			c-1.816,0-2.725,1.004-2.725,3.012V544.37z"/>
		<path class="st2" d="M754.984,549.164v-17.026c0-0.332,0.148-0.594,0.445-0.786s0.646-0.288,1.048-0.288h5.056
			c3.511,0,5.266,1.537,5.266,4.61c0,2.131-0.742,3.519-2.227,4.165c0.891,0.35,1.563,0.843,2.017,1.479
			c0.454,0.638,0.682,1.568,0.682,2.79v0.55c0,1.938-0.472,3.35-1.415,4.23c-0.942,0.883-2.218,1.323-3.824,1.323h-5.554
			c-0.437,0-0.795-0.104-1.073-0.314C755.124,549.688,754.984,549.443,754.984,549.164z M758.364,538.503h2.934
			c0.681,0,1.2-0.201,1.559-0.603c0.357-0.401,0.537-0.952,0.537-1.65c0-0.682-0.188-1.218-0.563-1.611
			c-0.376-0.393-0.895-0.589-1.559-0.589h-2.907V538.503z M758.364,547.226h2.96c1.693,0,2.541-0.951,2.541-2.855v-0.419
			c0-0.978-0.215-1.685-0.642-2.122c-0.429-0.436-1.062-0.654-1.899-0.654h-2.96V547.226z"/>
		<path class="st2" d="M768.476,545.156c0-0.629,0.131-1.061,0.393-1.297c0.262-0.235,0.698-0.354,1.31-0.354
			c1.065,0,1.633,0.358,1.703,1.074c0.069,1.869,0.969,2.803,2.698,2.803c1.851,0,2.776-1.004,2.776-3.013v-10.32h-2.672
			c-0.332,0-0.594-0.148-0.786-0.445s-0.288-0.655-0.288-1.074c0-0.401,0.092-0.747,0.275-1.035s0.449-0.432,0.799-0.432h4.584
			c0.401,0,0.751,0.096,1.048,0.288s0.445,0.454,0.445,0.786v12.232c0,2.062-0.555,3.576-1.663,4.545
			c-1.109,0.97-2.563,1.454-4.361,1.454c-1.852,0-3.357-0.467-4.52-1.401C769.056,548.033,768.476,546.763,768.476,545.156z"/>
		<path class="st2" d="M783.825,549.138v-17c0-0.332,0.148-0.594,0.445-0.786s0.646-0.288,1.048-0.288h9.326
			c0.349,0,0.615,0.148,0.799,0.445s0.274,0.638,0.274,1.021c0,0.419-0.096,0.777-0.288,1.074s-0.454,0.445-0.785,0.445h-7.413
			v5.238h3.981c0.331,0,0.593,0.136,0.785,0.406c0.192,0.271,0.289,0.59,0.289,0.956c0,0.332-0.092,0.634-0.275,0.904
			s-0.45,0.406-0.799,0.406h-3.981v5.265h7.413c0.331,0,0.593,0.148,0.785,0.445s0.288,0.655,0.288,1.074
			c0,0.384-0.091,0.725-0.274,1.021s-0.45,0.445-0.799,0.445h-9.326c-0.401,0-0.751-0.096-1.048-0.288
			S783.825,549.47,783.825,549.138z"/>
		<path class="st2" d="M796.452,532.544c0-0.392,0.092-0.735,0.275-1.034c0.183-0.298,0.449-0.446,0.799-0.446h11.08
			c0.35,0,0.615,0.148,0.799,0.446c0.184,0.299,0.275,0.643,0.275,1.034c0,0.408-0.097,0.761-0.288,1.059
			c-0.192,0.299-0.454,0.447-0.786,0.447h-3.824v15.083c0,0.333-0.17,0.597-0.511,0.79s-0.738,0.289-1.192,0.289
			c-0.472,0-0.873-0.096-1.205-0.289c-0.331-0.193-0.497-0.457-0.497-0.79V534.05h-3.851c-0.332,0-0.594-0.145-0.786-0.435
			C796.548,533.327,796.452,532.97,796.452,532.544z"/>
		<path class="st2" d="M811.54,549.138v-17.026c0-0.35,0.166-0.611,0.498-0.786s0.733-0.262,1.205-0.262s0.873,0.087,1.205,0.262
			c0.331,0.175,0.498,0.437,0.498,0.786v17.026c0,0.332-0.171,0.594-0.512,0.786c-0.34,0.192-0.737,0.288-1.191,0.288
			c-0.472,0-0.873-0.096-1.205-0.288S811.54,549.47,811.54,549.138z"/>
		<path class="st2" d="M816.753,532.478c0-0.401,0.231-0.737,0.694-1.008s0.947-0.406,1.454-0.406c0.646,0,1.03,0.227,1.152,0.681
			l4.008,14.198l3.981-14.198c0.122-0.454,0.507-0.681,1.153-0.681c0.488,0,0.969,0.14,1.44,0.419s0.707,0.611,0.707,0.995
			c0,0.035-0.018,0.123-0.052,0.263l-5.03,16.477c-0.104,0.366-0.366,0.65-0.785,0.851c-0.419,0.201-0.891,0.302-1.415,0.302
			c-1.205,0-1.938-0.384-2.2-1.152l-5.056-16.477C816.771,532.601,816.753,532.513,816.753,532.478z"/>
		<path class="st2" d="M832.942,544.37v-7.309c0-2.077,0.554-3.597,1.663-4.558c1.109-0.96,2.598-1.44,4.467-1.44
			c1.868,0,3.361,0.48,4.479,1.44c1.118,0.961,1.677,2.48,1.677,4.558v7.309c0,2.079-0.559,3.598-1.677,4.559
			c-1.117,0.96-2.61,1.44-4.479,1.44c-1.869,0-3.357-0.48-4.467-1.44C833.496,547.968,832.942,546.449,832.942,544.37z
			 M836.348,544.37c0,2.009,0.908,3.013,2.725,3.013c1.833,0,2.75-1.004,2.75-3.013v-7.309c0-2.008-0.917-3.012-2.75-3.012
			c-1.816,0-2.725,1.004-2.725,3.012V544.37z"/>
		<path class="st2" d="M718.261,575.805v-7.309c0-2.06,0.559-3.575,1.676-4.544c1.118-0.97,2.576-1.454,4.375-1.454
			c1.834,0,3.331,0.454,4.492,1.362s1.742,2.113,1.742,3.614c0,0.646-0.131,1.088-0.393,1.323c-0.263,0.235-0.699,0.354-1.311,0.354
			c-1.117,0-1.685-0.357-1.702-1.074c-0.018-0.227-0.039-0.423-0.065-0.589s-0.097-0.384-0.21-0.655
			c-0.113-0.271-0.258-0.498-0.432-0.681c-0.175-0.184-0.438-0.341-0.786-0.472c-0.35-0.131-0.76-0.196-1.231-0.196
			c-1.833,0-2.75,1.004-2.75,3.012v7.309c0,2.009,0.934,3.013,2.803,3.013c0.559,0,1.025-0.087,1.401-0.262
			c0.375-0.175,0.646-0.424,0.813-0.747c0.165-0.322,0.278-0.61,0.34-0.864c0.062-0.253,0.101-0.563,0.118-0.93
			c0.053-0.716,0.611-1.074,1.677-1.074c0.61,0,1.052,0.118,1.322,0.354c0.271,0.236,0.406,0.677,0.406,1.323
			c0,1.571-0.581,2.829-1.742,3.771c-1.161,0.943-2.668,1.415-4.519,1.415c-1.799,0-3.253-0.484-4.361-1.454
			C718.814,579.381,718.261,577.866,718.261,575.805z"/>
		<path class="st2" d="M732.642,575.805v-7.309c0-2.077,0.554-3.597,1.663-4.558c1.109-0.96,2.598-1.44,4.467-1.44
			c1.868,0,3.361,0.48,4.479,1.44c1.118,0.961,1.677,2.48,1.677,4.558v7.309c0,2.079-0.559,3.598-1.677,4.559
			c-1.117,0.96-2.61,1.44-4.479,1.44c-1.869,0-3.357-0.48-4.467-1.44C733.195,579.402,732.642,577.884,732.642,575.805z
			 M736.047,575.805c0,2.009,0.908,3.013,2.725,3.013c1.833,0,2.75-1.004,2.75-3.013v-7.309c0-2.008-0.917-3.012-2.75-3.012
			c-1.816,0-2.725,1.004-2.725,3.012V575.805z"/>
		<path class="st2" d="M747.625,575.805v-7.309c0-2.06,0.554-3.575,1.663-4.544c1.109-0.97,2.563-1.454,4.361-1.454
			c1.852,0,3.357,0.454,4.519,1.362s1.742,2.131,1.742,3.667c0,0.629-0.136,1.057-0.406,1.283c-0.271,0.228-0.703,0.341-1.296,0.341
			c-1.118,0-1.686-0.357-1.703-1.074c-0.053-0.768-0.271-1.393-0.654-1.873c-0.385-0.479-1.074-0.72-2.07-0.72
			c-1.833,0-2.75,1.004-2.75,3.012v7.309c0,2.009,0.908,3.013,2.725,3.013c0.873,0,1.549-0.253,2.029-0.76
			c0.48-0.506,0.721-1.257,0.721-2.253v-1.545h-2.122c-0.332,0-0.589-0.131-0.772-0.394c-0.184-0.262-0.275-0.576-0.275-0.942
			c0-0.35,0.097-0.659,0.288-0.931c0.192-0.271,0.445-0.405,0.76-0.405h4.453c0.332,0,0.594,0.109,0.786,0.327
			c0.192,0.219,0.288,0.476,0.288,0.772v3.117c0,2.079-0.559,3.598-1.677,4.559c-1.117,0.96-2.61,1.44-4.479,1.44
			c-1.869,0-3.357-0.48-4.467-1.44C748.179,579.402,747.625,577.884,747.625,575.805z"/>
		<path class="st2" d="M762.607,580.572v-17c0-0.35,0.166-0.616,0.498-0.8c0.332-0.183,0.733-0.274,1.205-0.274
			c0.629,0,1.108,0.113,1.44,0.341c0.332,0.227,0.698,0.716,1.101,1.467l5.056,9.771v-10.53c0-0.35,0.166-0.611,0.498-0.786
			c0.331-0.175,0.733-0.262,1.204-0.262c0.472,0,0.873,0.087,1.205,0.262s0.498,0.437,0.498,0.786v17.026
			c0,0.332-0.17,0.594-0.511,0.786s-0.738,0.288-1.192,0.288c-0.926,0-1.58-0.357-1.964-1.074l-5.632-10.53v10.53
			c0,0.332-0.171,0.594-0.512,0.786c-0.34,0.192-0.737,0.288-1.191,0.288c-0.472,0-0.873-0.096-1.205-0.288
			S762.607,580.904,762.607,580.572z"/>
		<path class="st2" d="M778.246,575.805v-7.309c0-2.077,0.554-3.597,1.663-4.558c1.109-0.96,2.598-1.44,4.467-1.44
			c1.868,0,3.361,0.48,4.479,1.44c1.118,0.961,1.677,2.48,1.677,4.558v7.309c0,2.079-0.559,3.598-1.677,4.559
			c-1.117,0.96-2.61,1.44-4.479,1.44c-1.869,0-3.357-0.48-4.467-1.44C778.8,579.402,778.246,577.884,778.246,575.805z
			 M781.651,575.805c0,2.009,0.908,3.013,2.725,3.013c1.833,0,2.75-1.004,2.75-3.013v-7.309c0-2.008-0.917-3.012-2.75-3.012
			c-1.816,0-2.725,1.004-2.725,3.012V575.805z"/>
		<path class="st2" d="M792.496,578.634c0-0.401,0.152-0.808,0.458-1.218s0.65-0.615,1.035-0.615c0.227,0,0.484,0.108,0.772,0.326
			s0.567,0.458,0.838,0.722c0.271,0.263,0.659,0.503,1.166,0.721s1.065,0.327,1.677,0.327c0.838,0,1.536-0.192,2.096-0.577
			c0.559-0.384,0.838-0.951,0.838-1.702c0-0.524-0.153-0.991-0.458-1.401c-0.306-0.41-0.708-0.751-1.205-1.021
			c-0.498-0.271-1.044-0.533-1.638-0.786s-1.191-0.537-1.794-0.852s-1.152-0.668-1.65-1.061c-0.498-0.394-0.899-0.917-1.205-1.572
			c-0.306-0.654-0.458-1.401-0.458-2.239c0-0.939,0.188-1.769,0.563-2.486c0.376-0.718,0.878-1.276,1.507-1.675
			c0.628-0.398,1.301-0.691,2.017-0.877c0.716-0.187,1.476-0.279,2.279-0.279c0.454,0,0.934,0.031,1.44,0.094
			c0.507,0.063,1.043,0.166,1.611,0.31c0.567,0.144,1.03,0.368,1.388,0.673c0.358,0.305,0.537,0.663,0.537,1.075
			c0,0.39-0.122,0.792-0.366,1.207c-0.245,0.415-0.576,0.623-0.996,0.623c-0.156,0-0.585-0.166-1.283-0.498
			c-0.698-0.331-1.476-0.497-2.331-0.497c-0.943,0-1.673,0.179-2.188,0.536c-0.516,0.358-0.772,0.852-0.772,1.48
			c0,0.507,0.209,0.947,0.628,1.323c0.42,0.375,0.939,0.681,1.559,0.916c0.62,0.236,1.293,0.533,2.018,0.891
			c0.725,0.358,1.396,0.747,2.017,1.166s1.14,1.026,1.559,1.82c0.42,0.795,0.629,1.726,0.629,2.79c0,1.791-0.572,3.174-1.716,4.146
			s-2.65,1.459-4.519,1.459c-1.659,0-3.082-0.34-4.27-1.021C793.089,580.18,792.496,579.438,792.496,578.634z"/>
		<path class="st2" d="M806.93,575.805v-7.309c0-2.06,0.559-3.575,1.676-4.544c1.118-0.97,2.576-1.454,4.375-1.454
			c1.834,0,3.331,0.454,4.492,1.362s1.742,2.113,1.742,3.614c0,0.646-0.131,1.088-0.393,1.323c-0.263,0.235-0.699,0.354-1.311,0.354
			c-1.117,0-1.685-0.357-1.702-1.074c-0.018-0.227-0.039-0.423-0.065-0.589s-0.097-0.384-0.21-0.655
			c-0.113-0.271-0.258-0.498-0.432-0.681c-0.175-0.184-0.438-0.341-0.786-0.472c-0.35-0.131-0.76-0.196-1.231-0.196
			c-1.833,0-2.75,1.004-2.75,3.012v7.309c0,2.009,0.934,3.013,2.803,3.013c0.559,0,1.025-0.087,1.401-0.262
			c0.375-0.175,0.646-0.424,0.813-0.747c0.165-0.322,0.278-0.61,0.34-0.864c0.062-0.253,0.101-0.563,0.118-0.93
			c0.053-0.716,0.611-1.074,1.677-1.074c0.61,0,1.052,0.118,1.322,0.354c0.271,0.236,0.406,0.677,0.406,1.323
			c0,1.571-0.581,2.829-1.742,3.771c-1.161,0.943-2.668,1.415-4.519,1.415c-1.799,0-3.253-0.484-4.361-1.454
			C807.483,579.381,806.93,577.866,806.93,575.805z"/>
		<path class="st2" d="M820.761,559.119c0-0.385,0.147-0.655,0.445-0.813l3.457-1.677c0.175-0.034,0.288-0.052,0.341-0.052
			c0.279,0,0.523,0.135,0.733,0.405c0.21,0.271,0.314,0.563,0.314,0.878c0,0.385-0.157,0.646-0.472,0.786l-3.405,1.65
			c-0.175,0.069-0.297,0.104-0.367,0.104c-0.279,0-0.523-0.14-0.733-0.419C820.865,559.704,820.761,559.416,820.761,559.119z
			 M821.52,580.572v-17.026c0-0.35,0.166-0.611,0.498-0.786s0.733-0.262,1.205-0.262s0.873,0.087,1.205,0.262
			c0.331,0.175,0.498,0.437,0.498,0.786v17.026c0,0.332-0.171,0.594-0.512,0.786c-0.34,0.192-0.737,0.288-1.191,0.288
			c-0.472,0-0.873-0.096-1.205-0.288S821.52,580.904,821.52,580.572z"/>
		<path class="st2" d="M826.732,563.912c0-0.401,0.231-0.737,0.694-1.008s0.947-0.406,1.454-0.406c0.646,0,1.03,0.227,1.152,0.681
			l4.008,14.198l3.981-14.198c0.122-0.454,0.507-0.681,1.153-0.681c0.488,0,0.969,0.14,1.44,0.419s0.707,0.611,0.707,0.995
			c0,0.035-0.018,0.123-0.052,0.263l-5.03,16.477c-0.104,0.366-0.366,0.65-0.785,0.851c-0.419,0.201-0.891,0.302-1.415,0.302
			c-1.205,0-1.938-0.384-2.2-1.152l-5.056-16.477C826.75,564.035,826.732,563.947,826.732,563.912z"/>
		<path class="st2" d="M843.131,580.572v-17c0-0.332,0.148-0.594,0.445-0.786s0.646-0.288,1.048-0.288h9.326
			c0.349,0,0.615,0.148,0.799,0.445s0.274,0.638,0.274,1.021c0,0.419-0.096,0.777-0.288,1.074s-0.454,0.445-0.785,0.445h-7.413
			v5.238h3.981c0.331,0,0.593,0.136,0.785,0.406c0.192,0.271,0.289,0.59,0.289,0.956c0,0.332-0.092,0.634-0.275,0.904
			s-0.45,0.406-0.799,0.406h-3.981v5.265h7.413c0.331,0,0.593,0.148,0.785,0.445s0.288,0.655,0.288,1.074
			c0,0.384-0.091,0.725-0.274,1.021s-0.45,0.445-0.799,0.445h-9.326c-0.401,0-0.751-0.096-1.048-0.288
			S843.131,580.904,843.131,580.572z"/>
		<path class="st2" d="M857.015,580.572v-17.026c0-0.35,0.166-0.611,0.498-0.786s0.733-0.262,1.205-0.262s0.873,0.087,1.205,0.262
			c0.331,0.175,0.498,0.437,0.498,0.786v15.114h6.392c0.313,0,0.563,0.148,0.746,0.445s0.275,0.646,0.275,1.048
			c0,0.402-0.092,0.751-0.275,1.048s-0.433,0.445-0.746,0.445h-8.305c-0.401,0-0.751-0.096-1.048-0.288
			S857.015,580.904,857.015,580.572z"/>
	</g>
	<g>
		<path class="st2" d="M449.195,568.117v-20.311c0-0.438,0.278-0.676,0.835-0.716h5.488c1.869,0,3.36,0.507,4.474,1.521
			c1.113,1.014,1.67,2.614,1.67,4.802v0.298c0,2.188-0.562,3.793-1.685,4.816c-1.124,1.024-2.63,1.536-4.519,1.536h-4.295v8.053
			c0,0.238-0.1,0.428-0.298,0.566c-0.199,0.14-0.428,0.209-0.686,0.209c-0.279,0-0.512-0.069-0.701-0.209
			C449.289,568.545,449.195,568.355,449.195,568.117z M451.163,558.364h4.295c1.352,0,2.396-0.377,3.132-1.133
			c0.735-0.756,1.104-1.898,1.104-3.43v-0.358c0-3.021-1.412-4.533-4.235-4.533h-4.295V558.364z"/>
		<path class="st2" d="M466.702,568.117v-20.311c0-0.438,0.249-0.676,0.746-0.716h5.279c1.929,0,3.484,0.458,4.668,1.372
			c1.183,0.915,1.774,2.416,1.774,4.503c0,3.301-1.551,5.22-4.653,5.757l4.593,8.828c0.079,0.1,0.119,0.229,0.119,0.388
			c0,0.259-0.119,0.492-0.358,0.7c-0.239,0.209-0.497,0.313-0.775,0.313c-0.358,0-0.706-0.348-1.044-1.044l-4.593-8.947h-3.788
			v9.156c0,0.238-0.1,0.428-0.298,0.566c-0.199,0.14-0.428,0.209-0.686,0.209c-0.279,0-0.512-0.069-0.701-0.209
			C466.796,568.545,466.702,568.355,466.702,568.117z M468.67,557.261h4.056c2.982,0,4.474-1.401,4.474-4.205
			c0-2.764-1.492-4.146-4.474-4.146h-4.056V557.261z"/>
		<path class="st2" d="M484.029,562.689v-9.246c0-2.187,0.562-3.792,1.686-4.816c1.123-1.024,2.629-1.536,4.518-1.536
			c1.889,0,3.395,0.512,4.519,1.536c1.123,1.024,1.685,2.63,1.685,4.816v9.246c0,2.207-0.562,3.822-1.685,4.846
			c-1.124,1.024-2.63,1.536-4.519,1.536c-1.889,0-3.395-0.512-4.518-1.536C484.591,566.512,484.029,564.896,484.029,562.689z
			 M485.998,562.689c0,3.042,1.412,4.563,4.235,4.563s4.235-1.521,4.235-4.563v-9.246c0-3.021-1.412-4.533-4.235-4.533
			s-4.235,1.512-4.235,4.533V562.689z"/>
		<path class="st2" d="M502.282,562.689v-9.246c0-2.167,0.582-3.768,1.745-4.802c1.163-1.033,2.669-1.551,4.518-1.551
			c1.889,0,3.385,0.482,4.488,1.446c1.104,0.965,1.656,2.143,1.656,3.534c0,0.478-0.075,0.796-0.225,0.955
			c-0.148,0.159-0.402,0.238-0.76,0.238c-0.617,0-0.945-0.248-0.984-0.746c-0.02-0.298-0.06-0.586-0.12-0.864
			c-0.06-0.278-0.179-0.592-0.358-0.939c-0.179-0.348-0.413-0.651-0.701-0.91c-0.289-0.258-0.691-0.472-1.208-0.641
			s-1.114-0.254-1.79-0.254c-2.863,0-4.294,1.512-4.294,4.533v9.246c0,3.042,1.471,4.563,4.414,4.563
			c0.835,0,1.531-0.114,2.087-0.343s0.964-0.562,1.223-0.999c0.258-0.438,0.432-0.81,0.522-1.118
			c0.089-0.309,0.164-0.711,0.224-1.208c0.06-0.517,0.388-0.775,0.984-0.775c0.357,0,0.611,0.085,0.76,0.253
			c0.149,0.17,0.225,0.492,0.225,0.97c0,1.412-0.563,2.604-1.686,3.579c-1.124,0.975-2.64,1.461-4.548,1.461
			c-1.83,0-3.315-0.517-4.458-1.551C502.854,566.487,502.282,564.877,502.282,562.689z"/>
		<path class="st2" d="M519.908,568.117v-20.28c0-0.239,0.09-0.423,0.269-0.552c0.179-0.13,0.388-0.194,0.626-0.194h10.618
			c0.496,0,0.745,0.288,0.745,0.865c0,0.259-0.064,0.482-0.193,0.671c-0.13,0.189-0.313,0.283-0.552,0.283h-9.544v8.202h4.683
			c0.238,0,0.422,0.084,0.552,0.253c0.129,0.169,0.193,0.383,0.193,0.642c0,0.537-0.249,0.805-0.745,0.805h-4.683v8.262h9.544
			c0.218,0,0.397,0.09,0.536,0.269c0.14,0.179,0.209,0.397,0.209,0.656c0,0.597-0.249,0.895-0.745,0.895h-10.618
			c-0.238,0-0.447-0.069-0.626-0.209C519.998,568.545,519.908,568.355,519.908,568.117z"/>
		<path class="st2" d="M535.654,565.91c0-0.238,0.095-0.481,0.284-0.73c0.188-0.249,0.392-0.373,0.611-0.373
			c0.158,0,0.357,0.13,0.596,0.388l0.836,0.865c0.298,0.318,0.77,0.602,1.416,0.85c0.646,0.249,1.396,0.373,2.252,0.373
			c1.411,0,2.505-0.353,3.28-1.059c0.776-0.706,1.164-1.725,1.164-3.058c0-0.895-0.185-1.655-0.552-2.281
			c-0.368-0.626-0.841-1.108-1.417-1.446c-0.557-0.358-1.193-0.676-1.909-0.955l-2.147-0.835c-0.716-0.278-1.356-0.611-1.923-0.999
			c-0.567-0.388-1.034-0.935-1.402-1.641c-0.368-0.705-0.552-1.545-0.552-2.52c0-1.039,0.194-1.935,0.582-2.684
			c0.388-0.75,0.909-1.314,1.565-1.694s1.327-0.655,2.014-0.825c0.686-0.17,1.406-0.255,2.162-0.255
			c1.212,0,2.351,0.174,3.415,0.521c1.063,0.349,1.596,0.781,1.596,1.298c0,0.238-0.085,0.482-0.254,0.73
			c-0.169,0.249-0.373,0.373-0.611,0.373c-0.119,0-0.349-0.092-0.687-0.276c-0.338-0.184-0.81-0.367-1.416-0.552
			c-0.607-0.184-1.298-0.275-2.073-0.275c-1.253,0-2.286,0.269-3.102,0.805c-0.815,0.537-1.223,1.422-1.223,2.655
			c0,0.854,0.243,1.57,0.73,2.146c0.487,0.577,1.099,0.995,1.834,1.253c0.735,0.259,1.531,0.566,2.387,0.925
			c0.854,0.357,1.649,0.741,2.386,1.148c0.735,0.407,1.347,1.054,1.834,1.938s0.73,1.974,0.73,3.266c0,2.038-0.566,3.566-1.7,4.586
			c-1.133,1.019-2.664,1.528-4.593,1.528c-1.729,0-3.182-0.369-4.354-1.108C536.241,567.255,535.654,566.561,535.654,565.91z"/>
		<path class="st2" d="M552.178,565.91c0-0.238,0.095-0.481,0.284-0.73c0.188-0.249,0.392-0.373,0.611-0.373
			c0.158,0,0.357,0.13,0.596,0.388l0.836,0.865c0.298,0.318,0.77,0.602,1.416,0.85c0.646,0.249,1.396,0.373,2.252,0.373
			c1.411,0,2.505-0.353,3.28-1.059c0.776-0.706,1.164-1.725,1.164-3.058c0-0.895-0.185-1.655-0.552-2.281
			c-0.368-0.626-0.841-1.108-1.417-1.446c-0.557-0.358-1.193-0.676-1.909-0.955l-2.147-0.835c-0.716-0.278-1.356-0.611-1.923-0.999
			c-0.567-0.388-1.034-0.935-1.402-1.641c-0.368-0.705-0.552-1.545-0.552-2.52c0-1.039,0.194-1.935,0.582-2.684
			c0.388-0.75,0.909-1.314,1.565-1.694s1.327-0.655,2.014-0.825c0.686-0.17,1.406-0.255,2.162-0.255
			c1.212,0,2.351,0.174,3.415,0.521c1.063,0.349,1.596,0.781,1.596,1.298c0,0.238-0.085,0.482-0.254,0.73
			c-0.169,0.249-0.373,0.373-0.611,0.373c-0.119,0-0.349-0.092-0.687-0.276c-0.338-0.184-0.81-0.367-1.416-0.552
			c-0.607-0.184-1.298-0.275-2.073-0.275c-1.253,0-2.286,0.269-3.102,0.805c-0.815,0.537-1.223,1.422-1.223,2.655
			c0,0.854,0.243,1.57,0.73,2.146c0.487,0.577,1.099,0.995,1.834,1.253c0.735,0.259,1.531,0.566,2.387,0.925
			c0.854,0.357,1.649,0.741,2.386,1.148c0.735,0.407,1.347,1.054,1.834,1.938s0.73,1.974,0.73,3.266c0,2.038-0.566,3.566-1.7,4.586
			c-1.133,1.019-2.664,1.528-4.593,1.528c-1.729,0-3.182-0.369-4.354-1.108C552.765,567.255,552.178,566.561,552.178,565.91z"/>
		<path class="st2" d="M569.655,562.689v-9.246c0-2.187,0.562-3.792,1.685-4.816s2.63-1.536,4.519-1.536s3.395,0.512,4.519,1.536
			c1.123,1.024,1.686,2.63,1.686,4.816v9.246c0,2.207-0.563,3.822-1.686,4.846c-1.124,1.024-2.63,1.536-4.519,1.536
			s-3.396-0.512-4.519-1.536C570.217,566.512,569.655,564.896,569.655,562.689z M571.623,562.689c0,3.042,1.412,4.563,4.235,4.563
			s4.235-1.521,4.235-4.563v-9.246c0-3.021-1.412-4.533-4.235-4.533s-4.235,1.512-4.235,4.533V562.689z"/>
	</g>
</g>
</svg>
