<?xml version="1.0" encoding="utf-8"?>
<!-- Generator: Adobe Illustrator 16.0.0, SVG Export Plug-In . SVG Version: 6.00 Build 0)  -->
<!DOCTYPE svg PUBLIC "-//W3C//DTD SVG 1.1//EN" "http://www.w3.org/Graphics/SVG/1.1/DTD/svg11.dtd">
<svg version="1.1" id="Layer_1" xmlns="http://www.w3.org/2000/svg" xmlns:xlink="http://www.w3.org/1999/xlink" x="0px" y="0px"
	 width="170px" height="40px" viewBox="0 0 170 40" enable-background="new 0 0 170 40" xml:space="preserve">
<g>
	<g>
		<defs>
			<rect id="SVGID_1_" x="10.755" y="2.459" width="148.49" height="35.082"/>
		</defs>
		<clipPath id="SVGID_2_">
			<use xlink:href="#SVGID_1_"  overflow="visible"/>
		</clipPath>
		<path clip-path="url(#SVGID_2_)" fill="#FFFFFF" d="M117.612,30.406c-0.009,0.016-0.033,0.023-0.069,0.023h-1.09
			c-0.133,0-0.243-0.02-0.332-0.057c-0.085-0.039-0.156-0.088-0.209-0.15c-0.053-0.064-0.088-0.137-0.108-0.221
			s-0.031-0.172-0.031-0.264v-1.363c0-0.092,0.012-0.18,0.037-0.264c0.023-0.082,0.064-0.156,0.119-0.221
			c0.055-0.063,0.125-0.115,0.211-0.152c0.087-0.037,0.19-0.057,0.313-0.057h1.075c0.035,0,0.059,0.008,0.067,0.023
			c0.011,0.016,0.014,0.039,0.014,0.066v0.188c0,0.033-0.003,0.059-0.014,0.068c-0.009,0.014-0.032,0.02-0.067,0.02h-1.075
			c-0.098,0-0.171,0.021-0.214,0.064s-0.064,0.109-0.064,0.205v0.482h1.224c0.033,0,0.056,0.008,0.064,0.02
			c0.009,0.014,0.014,0.037,0.014,0.07v0.166c0,0.027-0.005,0.049-0.014,0.064s-0.031,0.025-0.064,0.025h-1.224v0.648
			c0,0.08,0.021,0.145,0.064,0.193c0.043,0.051,0.116,0.074,0.214,0.074h1.09c0.036,0,0.061,0.008,0.069,0.02
			c0.008,0.014,0.014,0.037,0.014,0.07v0.189C117.626,30.367,117.62,30.391,117.612,30.406"/>
		<path clip-path="url(#SVGID_2_)" fill="#FFFFFF" d="M119.825,29.045c0-0.137-0.016-0.268-0.041-0.389
			c-0.028-0.121-0.074-0.229-0.138-0.318c-0.064-0.09-0.15-0.162-0.26-0.213c-0.108-0.053-0.242-0.08-0.401-0.08h-0.497v2.016h0.509
			c0.159,0,0.293-0.025,0.397-0.076c0.106-0.051,0.19-0.121,0.255-0.211c0.064-0.092,0.11-0.197,0.135-0.322
			C119.812,29.328,119.825,29.191,119.825,29.045 M118.289,30.43c-0.076,0-0.131-0.018-0.165-0.049
			c-0.03-0.033-0.047-0.088-0.047-0.164v-2.324c0-0.074,0.017-0.129,0.047-0.162c0.034-0.033,0.089-0.049,0.165-0.049l0.717-0.004
			c0.202,0,0.381,0.031,0.534,0.094c0.152,0.064,0.282,0.154,0.387,0.271c0.104,0.119,0.182,0.264,0.235,0.434
			c0.051,0.168,0.078,0.355,0.078,0.561c0,0.203-0.025,0.393-0.071,0.564c-0.047,0.17-0.119,0.316-0.217,0.439
			c-0.099,0.121-0.223,0.219-0.373,0.287c-0.149,0.066-0.327,0.102-0.534,0.102H118.289z"/>
		<path clip-path="url(#SVGID_2_)" fill="#FFFFFF" d="M120.745,27.768c0-0.037,0.007-0.059,0.023-0.068
			c0.016-0.01,0.038-0.014,0.065-0.014h0.236c0.035,0,0.058,0.004,0.07,0.014c0.014,0.01,0.02,0.031,0.02,0.068v1.455
			c0,0.152,0.01,0.281,0.029,0.393c0.019,0.113,0.06,0.205,0.113,0.277c0.057,0.074,0.139,0.133,0.243,0.168
			c0.106,0.037,0.245,0.055,0.418,0.055c0.046,0,0.109-0.002,0.191-0.006c0.085-0.004,0.18-0.016,0.286-0.037v-2.305
			c0-0.037,0.01-0.059,0.024-0.068s0.038-0.014,0.066-0.014h0.235c0.033,0,0.056,0.004,0.063,0.014
			c0.008,0.01,0.012,0.031,0.012,0.068v2.281c0,0.105-0.024,0.189-0.069,0.254c-0.046,0.066-0.129,0.109-0.251,0.131
			c-0.101,0.016-0.201,0.025-0.303,0.033c-0.103,0.008-0.196,0.01-0.278,0.01c-0.217,0-0.401-0.021-0.553-0.063
			c-0.151-0.043-0.274-0.111-0.369-0.209c-0.094-0.096-0.161-0.225-0.204-0.383c-0.044-0.16-0.065-0.357-0.065-0.592L120.745,27.768
			z"/>
		<path clip-path="url(#SVGID_2_)" fill="#FFFFFF" d="M124.605,30.092c0.115,0,0.224-0.014,0.324-0.039
			c0.1-0.025,0.192-0.057,0.279-0.094c0.034-0.012,0.059-0.016,0.073-0.002c0.014,0.01,0.025,0.023,0.029,0.037l0.082,0.188
			c0.019,0.037,0.024,0.061,0.019,0.074c-0.008,0.01-0.02,0.021-0.038,0.035c-0.125,0.076-0.263,0.125-0.414,0.148
			c-0.15,0.02-0.293,0.033-0.425,0.033c-0.186,0-0.351-0.027-0.498-0.082c-0.146-0.057-0.271-0.139-0.372-0.252
			c-0.103-0.111-0.18-0.254-0.234-0.426c-0.053-0.174-0.08-0.379-0.08-0.617c0-0.219,0.029-0.416,0.088-0.596
			c0.061-0.178,0.142-0.33,0.247-0.455c0.106-0.127,0.233-0.225,0.386-0.295c0.15-0.068,0.314-0.104,0.495-0.104
			c0.11,0,0.227,0.01,0.346,0.029c0.123,0.02,0.25,0.063,0.383,0.131c0.017,0.008,0.027,0.02,0.033,0.033
			c0.006,0.016,0.003,0.035-0.014,0.066l-0.099,0.203c-0.009,0.018-0.019,0.029-0.028,0.035c-0.01,0.008-0.025,0.006-0.049-0.006
			c-0.081-0.033-0.169-0.061-0.263-0.08c-0.094-0.021-0.192-0.031-0.294-0.031c-0.146,0-0.267,0.029-0.37,0.092
			c-0.103,0.061-0.188,0.143-0.252,0.242c-0.065,0.102-0.115,0.217-0.146,0.344c-0.031,0.127-0.048,0.258-0.048,0.391
			s0.014,0.262,0.04,0.381c0.025,0.119,0.07,0.227,0.136,0.316c0.063,0.094,0.147,0.166,0.255,0.219
			C124.305,30.066,124.44,30.092,124.605,30.092"/>
		<path clip-path="url(#SVGID_2_)" fill="#FFFFFF" d="M126.919,28.697l-0.178-0.559h-0.018l-0.168,0.539l-0.237,0.775h0.839
			L126.919,28.697z M127.563,30.43c-0.027,0-0.051-0.004-0.065-0.008c-0.015-0.006-0.029-0.025-0.04-0.055l-0.184-0.557h-1.062
			l-0.185,0.557c-0.008,0.02-0.019,0.035-0.033,0.047c-0.011,0.01-0.032,0.016-0.062,0.016h-0.302c-0.027,0-0.046-0.01-0.054-0.025
			c-0.007-0.018-0.007-0.035,0-0.057l0.869-2.498c0.023-0.068,0.05-0.111,0.079-0.135c0.028-0.021,0.075-0.033,0.146-0.037h0.13
			c0.077,0,0.13,0.014,0.159,0.037s0.054,0.07,0.074,0.135l0.874,2.498c0.009,0.021,0.009,0.039,0,0.057
			c-0.007,0.016-0.024,0.025-0.05,0.025H127.563z"/>
		<path clip-path="url(#SVGID_2_)" fill="#FFFFFF" d="M129.525,30.684c0.047,0.02,0.088,0.041,0.116,0.068
			c0.029,0.029,0.049,0.061,0.063,0.094c0.013,0.037,0.02,0.07,0.02,0.105s-0.008,0.074-0.024,0.111
			c-0.018,0.037-0.043,0.072-0.076,0.102c-0.034,0.033-0.078,0.059-0.13,0.078s-0.114,0.029-0.184,0.029
			c-0.067,0-0.13-0.006-0.193-0.018c-0.062-0.012-0.112-0.027-0.152-0.049c-0.032-0.01-0.041-0.033-0.027-0.066l0.031-0.084
			c0.01-0.02,0.021-0.029,0.028-0.031s0.02,0,0.039,0.006c0.075,0.025,0.15,0.039,0.227,0.039c0.128,0,0.191-0.041,0.191-0.127
			c0-0.043-0.022-0.076-0.066-0.092c-0.044-0.02-0.093-0.029-0.146-0.029h-0.077c-0.016,0-0.028-0.006-0.04-0.016
			c-0.013-0.012-0.019-0.027-0.016-0.041c0.003-0.018,0.006-0.035,0.012-0.057l0.082-0.242c-0.318-0.031-0.566-0.158-0.744-0.381
			s-0.267-0.551-0.267-0.988c0-0.219,0.029-0.416,0.088-0.596c0.059-0.178,0.141-0.33,0.247-0.455
			c0.106-0.127,0.235-0.225,0.385-0.295c0.15-0.068,0.315-0.104,0.496-0.104c0.109,0,0.226,0.01,0.346,0.029
			c0.122,0.02,0.25,0.064,0.382,0.131c0.017,0.008,0.028,0.02,0.034,0.033c0.006,0.016,0.002,0.035-0.014,0.066l-0.099,0.203
			c-0.01,0.018-0.019,0.029-0.029,0.037c-0.008,0.006-0.024,0.004-0.049-0.008c-0.08-0.033-0.167-0.061-0.263-0.08
			c-0.093-0.021-0.19-0.031-0.292-0.031c-0.146,0-0.27,0.029-0.371,0.092c-0.103,0.061-0.188,0.143-0.252,0.242
			c-0.067,0.1-0.115,0.215-0.146,0.344c-0.032,0.127-0.048,0.258-0.048,0.391c0,0.135,0.013,0.262,0.039,0.381
			s0.07,0.227,0.136,0.318c0.063,0.09,0.149,0.164,0.256,0.217c0.107,0.053,0.243,0.082,0.407,0.082
			c0.116,0,0.225-0.016,0.324-0.041s0.193-0.057,0.28-0.094c0.032-0.012,0.059-0.014,0.072-0.002
			c0.015,0.01,0.024,0.023,0.029,0.037l0.082,0.188c0.018,0.037,0.025,0.063,0.018,0.072c-0.007,0.012-0.019,0.025-0.038,0.037
			c-0.119,0.074-0.251,0.121-0.398,0.145c-0.146,0.021-0.285,0.033-0.416,0.037l-0.059,0.176
			C129.412,30.654,129.475,30.666,129.525,30.684"/>
		<path clip-path="url(#SVGID_2_)" fill="#FFFFFF" d="M131.758,28.697l-0.176-0.559h-0.019l-0.166,0.539l-0.24,0.775h0.84
			L131.758,28.697z M131.841,27.482c-0.047,0-0.093-0.008-0.136-0.021c-0.042-0.016-0.086-0.031-0.129-0.047
			c-0.044-0.018-0.086-0.033-0.128-0.051c-0.042-0.016-0.084-0.023-0.129-0.023c-0.035,0-0.063,0.012-0.093,0.031
			c-0.027,0.021-0.049,0.047-0.063,0.076c-0.011,0.012-0.019,0.021-0.031,0.029c-0.012,0.006-0.029,0.004-0.053-0.008l-0.133-0.059
			c-0.024-0.008-0.04-0.014-0.046-0.021c-0.009-0.008-0.008-0.023,0.002-0.043c0.045-0.078,0.101-0.146,0.169-0.205
			c0.067-0.057,0.152-0.086,0.254-0.086c0.048,0,0.093,0.008,0.136,0.023c0.04,0.016,0.082,0.033,0.122,0.053
			c0.04,0.021,0.079,0.039,0.117,0.053c0.038,0.016,0.075,0.023,0.111,0.023c0.039,0,0.074-0.01,0.104-0.031
			c0.029-0.021,0.052-0.047,0.064-0.078c0.01-0.02,0.021-0.033,0.029-0.035s0.024-0.002,0.045,0.004l0.154,0.043
			c0.043,0.008,0.06,0.027,0.047,0.061c-0.045,0.096-0.1,0.172-0.162,0.229S131.948,27.482,131.841,27.482 M132.404,30.43
			c-0.027,0-0.052-0.004-0.066-0.008c-0.015-0.006-0.028-0.025-0.039-0.055l-0.185-0.557h-1.061l-0.186,0.557
			c-0.008,0.02-0.018,0.035-0.031,0.047c-0.013,0.01-0.033,0.016-0.063,0.016h-0.302c-0.028,0-0.046-0.01-0.055-0.025
			c-0.008-0.018-0.008-0.035,0-0.057l0.869-2.498c0.024-0.068,0.05-0.111,0.078-0.135c0.029-0.021,0.078-0.033,0.146-0.037h0.128
			c0.078,0,0.133,0.014,0.161,0.037s0.054,0.07,0.075,0.135l0.874,2.498c0.008,0.021,0.008,0.039,0,0.057
			c-0.008,0.016-0.025,0.025-0.051,0.025H132.404z"/>
		<path clip-path="url(#SVGID_2_)" fill="#FFFFFF" d="M134.979,29.061c0-0.135-0.009-0.268-0.031-0.395
			c-0.02-0.129-0.058-0.24-0.113-0.338c-0.055-0.096-0.131-0.174-0.229-0.232c-0.101-0.059-0.227-0.088-0.383-0.088
			c-0.134,0-0.249,0.027-0.346,0.082c-0.099,0.055-0.181,0.129-0.243,0.223c-0.065,0.096-0.113,0.205-0.146,0.332
			s-0.049,0.26-0.049,0.4c0,0.16,0.014,0.305,0.037,0.436c0.025,0.131,0.068,0.242,0.126,0.334c0.059,0.094,0.138,0.166,0.234,0.217
			c0.098,0.051,0.221,0.076,0.367,0.076c0.148,0,0.274-0.029,0.371-0.088c0.1-0.059,0.181-0.137,0.241-0.232
			c0.059-0.098,0.102-0.209,0.126-0.334C134.969,29.326,134.979,29.197,134.979,29.061 M135.391,29.045
			c0,0.459-0.1,0.813-0.301,1.059s-0.497,0.369-0.891,0.369c-0.384,0-0.674-0.119-0.871-0.355s-0.296-0.588-0.296-1.057
			c0-0.227,0.03-0.428,0.09-0.604c0.061-0.178,0.144-0.326,0.247-0.447c0.107-0.119,0.232-0.211,0.376-0.273
			s0.299-0.096,0.467-0.096c0.192,0,0.363,0.033,0.51,0.098s0.268,0.156,0.368,0.279c0.099,0.121,0.174,0.268,0.225,0.439
			C135.366,28.631,135.391,28.826,135.391,29.045"/>
		<path clip-path="url(#SVGID_2_)" fill="#FFFFFF" d="M138.092,28.697l-0.177-0.559h-0.019l-0.166,0.539l-0.238,0.775h0.838
			L138.092,28.697z M138.738,30.43c-0.029,0-0.051-0.004-0.066-0.008c-0.015-0.006-0.028-0.025-0.04-0.055l-0.185-0.557h-1.061
			l-0.185,0.557c-0.009,0.02-0.019,0.035-0.032,0.047c-0.012,0.01-0.033,0.016-0.062,0.016h-0.303c-0.028,0-0.046-0.01-0.055-0.025
			c-0.008-0.018-0.008-0.035,0-0.057l0.869-2.498c0.024-0.068,0.052-0.111,0.08-0.135c0.028-0.021,0.075-0.033,0.145-0.037h0.13
			c0.078,0,0.131,0.014,0.16,0.037s0.053,0.07,0.074,0.135l0.874,2.498c0.008,0.021,0.008,0.039,0,0.057
			c-0.007,0.016-0.025,0.025-0.05,0.025H138.738z"/>
		<path clip-path="url(#SVGID_2_)" fill="#FFFFFF" d="M142.27,29.045c0-0.137-0.014-0.268-0.04-0.389
			c-0.028-0.121-0.074-0.229-0.138-0.318c-0.065-0.09-0.151-0.162-0.26-0.213c-0.108-0.053-0.241-0.08-0.4-0.08h-0.5v2.016h0.511
			c0.16,0,0.292-0.025,0.396-0.076c0.107-0.051,0.192-0.121,0.257-0.211c0.063-0.092,0.109-0.197,0.134-0.322
			C142.257,29.328,142.27,29.191,142.27,29.045 M140.734,30.43c-0.076,0-0.132-0.018-0.164-0.049
			c-0.031-0.033-0.049-0.088-0.049-0.164v-2.324c0-0.074,0.018-0.129,0.049-0.162c0.032-0.033,0.088-0.049,0.164-0.049l0.717-0.004
			c0.203,0,0.381,0.031,0.534,0.094c0.154,0.064,0.282,0.154,0.386,0.271c0.105,0.119,0.185,0.264,0.236,0.434
			c0.051,0.168,0.077,0.355,0.077,0.561c0,0.203-0.024,0.393-0.07,0.564c-0.047,0.17-0.12,0.316-0.218,0.439
			c-0.098,0.121-0.222,0.219-0.373,0.287c-0.149,0.066-0.326,0.102-0.533,0.102H140.734z"/>
		<path clip-path="url(#SVGID_2_)" fill="#FFFFFF" d="M143.236,27.768c0-0.037,0.009-0.059,0.024-0.068
			c0.017-0.01,0.039-0.014,0.067-0.014h0.228c0.034,0,0.058,0.004,0.071,0.014c0.012,0.01,0.018,0.031,0.018,0.068v2.578
			c0,0.037-0.006,0.061-0.018,0.07c-0.014,0.008-0.037,0.014-0.071,0.014h-0.228c-0.028,0-0.051-0.006-0.067-0.014
			c-0.016-0.01-0.024-0.033-0.024-0.07V27.768z"/>
		<path clip-path="url(#SVGID_2_)" fill="#FFFFFF" d="M146.126,29.686c0,0.135-0.025,0.252-0.077,0.352
			c-0.051,0.1-0.119,0.182-0.206,0.246c-0.087,0.063-0.19,0.111-0.307,0.141c-0.115,0.033-0.24,0.049-0.369,0.049
			c-0.161,0-0.332-0.014-0.51-0.041s-0.345-0.08-0.501-0.16c-0.031-0.012-0.039-0.039-0.021-0.082l0.106-0.238
			c0.017-0.031,0.038-0.041,0.07-0.027c0.282,0.123,0.544,0.184,0.783,0.184c0.22,0,0.377-0.037,0.473-0.111
			c0.095-0.074,0.142-0.174,0.142-0.295c0-0.064-0.012-0.119-0.038-0.168s-0.064-0.092-0.116-0.133
			c-0.05-0.041-0.114-0.078-0.188-0.113c-0.074-0.035-0.162-0.072-0.261-0.111c-0.146-0.059-0.273-0.115-0.383-0.17
			c-0.111-0.055-0.201-0.113-0.277-0.176c-0.073-0.063-0.131-0.133-0.167-0.209c-0.039-0.074-0.058-0.162-0.058-0.262
			c0-0.217,0.071-0.391,0.215-0.523c0.145-0.131,0.357-0.197,0.644-0.197c0.063,0,0.136,0.004,0.212,0.01
			c0.075,0.006,0.148,0.018,0.224,0.029c0.074,0.014,0.147,0.029,0.218,0.049c0.069,0.02,0.137,0.041,0.195,0.068
			c0.033,0.016,0.04,0.037,0.026,0.066l-0.088,0.252c-0.009,0.02-0.015,0.031-0.024,0.033c-0.007,0.004-0.02,0.004-0.031-0.002
			c-0.132-0.047-0.265-0.084-0.394-0.104c-0.129-0.023-0.247-0.033-0.354-0.033c-0.15,0-0.26,0.031-0.33,0.094
			s-0.106,0.139-0.106,0.227c0,0.059,0.015,0.107,0.042,0.15c0.027,0.045,0.07,0.086,0.127,0.125
			c0.059,0.039,0.13,0.078,0.217,0.117c0.084,0.039,0.187,0.084,0.305,0.133c0.1,0.043,0.196,0.086,0.293,0.131
			c0.097,0.047,0.185,0.102,0.26,0.162c0.075,0.063,0.136,0.139,0.184,0.225C146.103,29.457,146.126,29.561,146.126,29.686"/>
		<path clip-path="url(#SVGID_2_)" fill="#FFFFFF" d="M147.109,28.043h-0.747c-0.029,0-0.048-0.006-0.054-0.016
			c-0.007-0.012-0.01-0.027-0.01-0.051v-0.221c0-0.023,0.003-0.041,0.01-0.053c0.006-0.012,0.024-0.016,0.054-0.016h1.931
			c0.029,0,0.047,0.004,0.053,0.016c0.008,0.012,0.011,0.029,0.011,0.053v0.221c0,0.023-0.003,0.039-0.011,0.051
			c-0.006,0.01-0.023,0.016-0.053,0.016h-0.768v2.305c0,0.035-0.006,0.059-0.02,0.068s-0.038,0.014-0.07,0.014H147.2
			c-0.029,0-0.051-0.004-0.067-0.014c-0.015-0.01-0.023-0.033-0.023-0.068V28.043z"/>
		<path clip-path="url(#SVGID_2_)" fill="#FFFFFF" d="M149.587,28.697l-0.176-0.559h-0.021l-0.165,0.539l-0.238,0.775h0.839
			L149.587,28.697z M149.998,27.51c-0.01,0.012-0.022,0.018-0.034,0.012c-0.016-0.004-0.031-0.01-0.052-0.02l-0.514-0.244
			l-0.511,0.252c-0.014,0.008-0.027,0.01-0.037,0.008c-0.01,0-0.022-0.008-0.036-0.02l-0.071-0.082
			c-0.007-0.012-0.012-0.021-0.014-0.033c-0.004-0.01,0.002-0.02,0.014-0.031l0.5-0.4c0.057-0.045,0.11-0.068,0.159-0.068
			c0.018,0,0.042,0.002,0.071,0.008c0.027,0.008,0.062,0.027,0.101,0.061l0.48,0.4c0.028,0.025,0.031,0.051,0.007,0.084
			L149.998,27.51z M150.233,30.43c-0.028,0-0.051-0.004-0.067-0.008c-0.014-0.006-0.028-0.025-0.039-0.055l-0.183-0.557h-1.063
			l-0.184,0.557c-0.007,0.02-0.02,0.035-0.032,0.047c-0.013,0.01-0.033,0.016-0.062,0.016h-0.302c-0.03,0-0.047-0.01-0.056-0.025
			c-0.007-0.018-0.007-0.035,0-0.057l0.87-2.498c0.024-0.068,0.05-0.111,0.078-0.135c0.03-0.021,0.076-0.033,0.146-0.037h0.13
			c0.078,0,0.131,0.014,0.16,0.037s0.054,0.07,0.074,0.135l0.875,2.498c0.007,0.021,0.007,0.039,0,0.057
			c-0.008,0.016-0.025,0.025-0.052,0.025H150.233z"/>
		<path clip-path="url(#SVGID_2_)" fill="#FFFFFF" d="M152.698,27.764c0-0.035,0.009-0.059,0.022-0.068
			c0.017-0.01,0.039-0.014,0.067-0.014h0.216c0.034,0,0.058,0.004,0.071,0.014s0.019,0.033,0.019,0.068v2.451
			c0,0.072-0.015,0.125-0.044,0.16c-0.031,0.037-0.086,0.055-0.167,0.055h-0.117c-0.063,0-0.108-0.014-0.139-0.039
			c-0.027-0.027-0.061-0.07-0.098-0.129l-0.861-1.439l-0.321-0.557h-0.013v2.082c0,0.035-0.005,0.059-0.02,0.068
			c-0.013,0.01-0.036,0.014-0.07,0.014h-0.215c-0.031,0-0.051-0.004-0.068-0.014c-0.014-0.01-0.021-0.033-0.021-0.068v-2.451
			c0-0.072,0.015-0.127,0.045-0.162s0.085-0.053,0.166-0.053h0.119c0.062,0,0.106,0.014,0.136,0.039
			c0.028,0.025,0.061,0.07,0.098,0.129l0.852,1.422l0.332,0.574h0.012V27.764z"/>
		<path clip-path="url(#SVGID_2_)" fill="#FFFFFF" d="M154.857,30.092c0.115,0,0.225-0.014,0.324-0.039s0.192-0.057,0.281-0.094
			c0.034-0.012,0.057-0.016,0.071-0.002c0.015,0.01,0.023,0.023,0.028,0.037l0.083,0.188c0.02,0.037,0.023,0.061,0.019,0.074
			c-0.006,0.01-0.019,0.021-0.038,0.035c-0.125,0.076-0.264,0.125-0.413,0.148c-0.15,0.02-0.292,0.033-0.426,0.033
			c-0.185,0-0.352-0.027-0.498-0.082c-0.146-0.057-0.271-0.139-0.373-0.252c-0.101-0.111-0.178-0.254-0.231-0.426
			c-0.054-0.174-0.081-0.379-0.081-0.617c0-0.219,0.03-0.416,0.089-0.596c0.06-0.178,0.142-0.33,0.247-0.455
			c0.104-0.127,0.232-0.225,0.384-0.295c0.15-0.068,0.314-0.104,0.495-0.104c0.109,0,0.226,0.01,0.348,0.029
			c0.121,0.02,0.247,0.063,0.383,0.131c0.014,0.008,0.026,0.02,0.033,0.033c0.006,0.016,0.001,0.035-0.015,0.066l-0.098,0.203
			c-0.011,0.018-0.021,0.029-0.03,0.035c-0.009,0.008-0.026,0.006-0.049-0.006c-0.08-0.033-0.169-0.061-0.263-0.08
			c-0.095-0.021-0.19-0.031-0.293-0.031c-0.144,0-0.268,0.029-0.371,0.092c-0.104,0.061-0.188,0.143-0.253,0.242
			c-0.065,0.102-0.113,0.217-0.145,0.344c-0.03,0.127-0.048,0.258-0.048,0.391s0.015,0.262,0.04,0.381s0.071,0.227,0.135,0.316
			c0.063,0.094,0.15,0.166,0.258,0.219C154.558,30.066,154.693,30.092,154.857,30.092"/>
		<path clip-path="url(#SVGID_2_)" fill="#FFFFFF" d="M156.101,27.768c0-0.037,0.008-0.059,0.022-0.068
			c0.017-0.01,0.039-0.014,0.068-0.014h0.227c0.033,0,0.057,0.004,0.07,0.014c0.013,0.01,0.02,0.031,0.02,0.068v2.578
			c0,0.037-0.007,0.061-0.02,0.07c-0.014,0.008-0.037,0.014-0.07,0.014h-0.227c-0.029,0-0.052-0.006-0.068-0.014
			c-0.015-0.01-0.022-0.033-0.022-0.07V27.768z"/>
		<path clip-path="url(#SVGID_2_)" fill="#FFFFFF" d="M158.248,28.697l-0.177-0.559h-0.02l-0.163,0.539l-0.24,0.775h0.84
			L158.248,28.697z M158.896,30.43c-0.03,0-0.051-0.004-0.067-0.008c-0.015-0.006-0.028-0.025-0.039-0.055l-0.183-0.557h-1.064
			l-0.184,0.557c-0.01,0.02-0.019,0.035-0.03,0.047c-0.015,0.01-0.034,0.016-0.063,0.016h-0.302c-0.029,0-0.047-0.01-0.056-0.025
			c-0.007-0.018-0.007-0.035,0-0.057l0.871-2.498c0.021-0.068,0.05-0.111,0.078-0.135c0.028-0.021,0.076-0.033,0.145-0.037h0.13
			c0.078,0,0.132,0.014,0.16,0.037c0.029,0.023,0.054,0.07,0.075,0.135l0.874,2.498c0.008,0.021,0.008,0.039,0,0.057
			c-0.008,0.016-0.026,0.025-0.052,0.025H158.896z"/>
		<path clip-path="url(#SVGID_2_)" fill="#FFFFFF" d="M127.807,21.154h2.387l-1.141-4.119h-0.091L127.807,21.154z M130.741,23.025
			h-3.483l-0.592,1.932c-0.029,0.102-0.073,0.174-0.129,0.221c-0.056,0.045-0.153,0.068-0.296,0.068h-1.779
			c-0.111,0-0.18-0.031-0.205-0.094c-0.025-0.059-0.027-0.129-0.008-0.211l3.162-9.532c0.05-0.172,0.109-0.313,0.177-0.418
			c0.064-0.106,0.142-0.19,0.227-0.251c0.087-0.062,0.188-0.104,0.305-0.129c0.116-0.025,0.25-0.039,0.402-0.039h0.913
			c0.171,0,0.318,0.009,0.439,0.022c0.123,0.017,0.229,0.054,0.319,0.114c0.091,0.062,0.17,0.147,0.234,0.259
			c0.067,0.112,0.13,0.258,0.191,0.441l3.162,9.532c0.021,0.061,0.021,0.127,0,0.197c-0.02,0.072-0.086,0.107-0.197,0.107h-1.81
			c-0.111,0-0.204-0.014-0.279-0.039c-0.076-0.025-0.131-0.094-0.16-0.205L130.741,23.025z"/>
		<path clip-path="url(#SVGID_2_)" fill="#FFFFFF" d="M140.864,19.864c0-0.467-0.039-0.898-0.12-1.294
			c-0.082-0.395-0.226-0.736-0.434-1.025c-0.206-0.289-0.49-0.518-0.843-0.684c-0.355-0.168-0.802-0.252-1.339-0.252h-1.185v6.598
			h1.23c0.526,0,0.965-0.082,1.313-0.25c0.351-0.166,0.628-0.396,0.83-0.691c0.203-0.295,0.344-0.646,0.426-1.055
			C140.825,20.799,140.864,20.351,140.864,19.864 M135.546,25.246c-0.365,0-0.609-0.074-0.729-0.221
			c-0.124-0.146-0.184-0.383-0.184-0.707V15.53c0-0.324,0.06-0.563,0.184-0.715c0.12-0.151,0.364-0.228,0.729-0.228h2.842
			c0.891,0,1.647,0.143,2.265,0.426c0.619,0.283,1.12,0.663,1.506,1.141c0.385,0.476,0.664,1.035,0.836,1.68
			c0.173,0.644,0.258,1.32,0.258,2.03c0,0.697-0.075,1.372-0.228,2.021c-0.152,0.65-0.41,1.223-0.775,1.719
			c-0.364,0.496-0.848,0.895-1.451,1.193s-1.351,0.449-2.242,0.449H135.546z"/>
		<path clip-path="url(#SVGID_2_)" fill="#FFFFFF" d="M118.094,18.132v-0.61c0-0.263,0.065-0.486,0.197-0.668
			c0.132-0.183,0.396-0.273,0.791-0.273h4.041c0.113,0,0.188-0.023,0.228-0.069c0.041-0.045,0.063-0.133,0.063-0.266v-1.293
			c0-0.142-0.02-0.237-0.054-0.288c-0.035-0.051-0.113-0.076-0.236-0.076h-4.542c-0.52,0-0.953,0.078-1.308,0.235
			c-0.355,0.158-0.642,0.368-0.86,0.632c-0.218,0.263-0.378,0.562-0.479,0.896c-0.101,0.334-0.152,0.684-0.152,1.049v5.049
			c0,0.344,0.041,0.684,0.123,1.018c0.08,0.334,0.228,0.633,0.439,0.896c0.213,0.264,0.5,0.477,0.86,0.639
			c0.358,0.162,0.822,0.244,1.391,0.244h4.5c0.121,0,0.204-0.029,0.244-0.084c0.039-0.055,0.06-0.145,0.06-0.266v-1.293
			c0-0.152-0.018-0.25-0.053-0.297c-0.035-0.045-0.119-0.068-0.251-0.068h-4.014c-0.325,0-0.571-0.063-0.737-0.189
			c-0.169-0.127-0.251-0.367-0.251-0.723v-1.46c0,0,3.236,0.001,3.273,0.001c0,0,0.086-0.01,0.136-0.036
			c0.05-0.024,0.093-0.06,0.124-0.102l0.901-1.202c0.076-0.102,0.093-0.242,0.034-0.364c-0.063-0.122-0.186-0.193-0.313-0.193
			h-4.155V18.132z"/>
		<path clip-path="url(#SVGID_2_)" fill="#FFFFFF" d="M57.933,27.793c0-0.035,0.007-0.059,0.022-0.068
			c0.016-0.008,0.039-0.012,0.068-0.012h0.234c0.033,0,0.057,0.004,0.069,0.012c0.013,0.01,0.02,0.033,0.02,0.068v1.453
			c0,0.152,0.011,0.283,0.03,0.395c0.018,0.109,0.057,0.203,0.112,0.277s0.138,0.131,0.244,0.166
			c0.106,0.037,0.245,0.055,0.416,0.055c0.043,0,0.109-0.002,0.192-0.006s0.179-0.016,0.285-0.037v-2.303
			c0-0.035,0.008-0.059,0.023-0.068c0.016-0.008,0.039-0.012,0.067-0.012h0.233c0.035,0,0.055,0.004,0.063,0.012
			c0.008,0.01,0.012,0.033,0.012,0.068v2.279c0,0.105-0.022,0.189-0.067,0.254c-0.047,0.064-0.132,0.109-0.254,0.131
			c-0.1,0.014-0.199,0.025-0.301,0.031c-0.103,0.008-0.195,0.012-0.279,0.012c-0.214,0-0.398-0.023-0.551-0.063
			c-0.151-0.043-0.275-0.113-0.368-0.209c-0.095-0.096-0.163-0.225-0.204-0.383c-0.044-0.16-0.064-0.355-0.064-0.592L57.933,27.793z
			"/>
		<path clip-path="url(#SVGID_2_)" fill="#FFFFFF" d="M62.37,27.789c0-0.035,0.009-0.059,0.024-0.068
			c0.016-0.008,0.037-0.012,0.066-0.012h0.216c0.033,0,0.057,0.004,0.069,0.012c0.014,0.01,0.02,0.033,0.02,0.068v2.447
			c0,0.074-0.014,0.129-0.045,0.162c-0.03,0.035-0.085,0.053-0.166,0.053h-0.117c-0.063,0-0.108-0.012-0.139-0.039
			c-0.027-0.025-0.06-0.068-0.096-0.129l-0.862-1.436l-0.319-0.557H61.01v2.078c0,0.037-0.008,0.061-0.021,0.068
			c-0.013,0.01-0.037,0.014-0.07,0.014h-0.215c-0.028,0-0.052-0.004-0.065-0.014c-0.017-0.008-0.024-0.031-0.024-0.068v-2.445
			c0-0.074,0.016-0.127,0.046-0.162c0.028-0.037,0.083-0.053,0.164-0.053h0.119c0.063,0,0.108,0.012,0.137,0.037
			c0.03,0.027,0.062,0.068,0.098,0.131l0.851,1.42l0.331,0.572h0.012V27.789z"/>
		<path clip-path="url(#SVGID_2_)" fill="#FFFFFF" d="M63.396,27.793c0-0.035,0.007-0.059,0.023-0.068
			c0.016-0.008,0.037-0.012,0.066-0.012h0.227c0.035,0,0.059,0.004,0.07,0.012c0.015,0.01,0.02,0.033,0.02,0.068v2.576
			c0,0.037-0.005,0.061-0.02,0.07c-0.012,0.008-0.035,0.012-0.07,0.012h-0.227c-0.029,0-0.051-0.004-0.066-0.012
			c-0.017-0.01-0.023-0.033-0.023-0.07V27.793z"/>
		<path clip-path="url(#SVGID_2_)" fill="#FFFFFF" d="M65.688,30.291c-0.021,0.059-0.044,0.1-0.069,0.121
			c-0.024,0.025-0.064,0.037-0.121,0.039h-0.193c-0.061,0-0.106-0.01-0.139-0.031c-0.031-0.02-0.061-0.063-0.084-0.129l-0.879-2.527
			c-0.013-0.037-0.002-0.055,0.035-0.055h0.316c0.039,0,0.063,0.016,0.074,0.049l0.555,1.701l0.191,0.574h0.023l0.176-0.572
			l0.57-1.703c0.012-0.025,0.023-0.041,0.036-0.045c0.014-0.004,0.03-0.004,0.052-0.004h0.308c0.034,0,0.044,0.018,0.03,0.055
			L65.688,30.291z"/>
		<path clip-path="url(#SVGID_2_)" fill="#FFFFFF" d="M68.773,30.428c-0.011,0.016-0.033,0.023-0.069,0.023h-1.089
			c-0.133,0-0.243-0.018-0.329-0.057c-0.087-0.037-0.157-0.088-0.21-0.15c-0.053-0.061-0.088-0.135-0.108-0.219
			c-0.022-0.084-0.034-0.17-0.034-0.262V28.4c0-0.092,0.014-0.18,0.039-0.262c0.025-0.084,0.063-0.156,0.119-0.223
			c0.055-0.063,0.125-0.113,0.212-0.152c0.086-0.037,0.19-0.055,0.312-0.055h1.074c0.038,0,0.059,0.008,0.068,0.021
			c0.008,0.016,0.014,0.039,0.014,0.068v0.188c0,0.033-0.006,0.057-0.014,0.068c-0.01,0.012-0.03,0.018-0.068,0.018h-1.074
			c-0.099,0-0.17,0.021-0.213,0.064c-0.041,0.043-0.065,0.111-0.065,0.205v0.48h1.223c0.033,0,0.056,0.008,0.065,0.02
			c0.008,0.016,0.013,0.039,0.013,0.072v0.164c0,0.029-0.005,0.051-0.013,0.066c-0.01,0.016-0.032,0.023-0.065,0.023h-1.223v0.648
			c0,0.08,0.024,0.145,0.065,0.193c0.043,0.049,0.114,0.074,0.213,0.074h1.089c0.036,0,0.059,0.006,0.069,0.02
			c0.008,0.014,0.013,0.035,0.013,0.07v0.188C68.786,30.391,68.781,30.412,68.773,30.428"/>
		<path clip-path="url(#SVGID_2_)" fill="#FFFFFF" d="M70.787,28.502c0-0.043-0.007-0.088-0.018-0.137
			c-0.012-0.049-0.035-0.096-0.072-0.139c-0.033-0.043-0.082-0.078-0.146-0.107c-0.062-0.029-0.146-0.043-0.248-0.043h-0.647v0.865
			h0.617c0.096,0,0.172-0.012,0.237-0.037c0.064-0.021,0.116-0.055,0.159-0.094c0.041-0.041,0.072-0.088,0.09-0.141
			S70.787,28.561,70.787,28.502 M69.237,27.916c0-0.076,0.016-0.131,0.048-0.162c0.033-0.033,0.087-0.051,0.163-0.051h0.901
			c0.124,0,0.238,0.02,0.342,0.059c0.102,0.037,0.19,0.09,0.266,0.16c0.075,0.068,0.133,0.15,0.176,0.248
			c0.039,0.096,0.061,0.203,0.061,0.316c0,0.156-0.038,0.293-0.117,0.408c-0.078,0.115-0.182,0.197-0.312,0.25v0.02
			c0.054,0.016,0.1,0.035,0.135,0.061c0.033,0.025,0.063,0.053,0.089,0.086s0.044,0.068,0.062,0.107
			c0.015,0.039,0.03,0.084,0.044,0.131l0.227,0.826c0.003,0.012,0.004,0.027,0.001,0.047s-0.024,0.029-0.057,0.029h-0.294
			c-0.014,0-0.027-0.002-0.043-0.008c-0.016-0.004-0.027-0.02-0.036-0.047l-0.198-0.738c-0.043-0.146-0.109-0.246-0.199-0.295
			c-0.089-0.049-0.197-0.074-0.325-0.074h-0.517v1.08c0,0.037-0.007,0.061-0.02,0.068c-0.014,0.01-0.037,0.014-0.071,0.014h-0.235
			c-0.028,0-0.051-0.004-0.066-0.014c-0.016-0.008-0.022-0.031-0.022-0.068V27.916z"/>
		<path clip-path="url(#SVGID_2_)" fill="#FFFFFF" d="M73.566,29.707c0,0.139-0.024,0.254-0.076,0.354
			c-0.05,0.1-0.119,0.18-0.207,0.246c-0.089,0.063-0.191,0.109-0.306,0.143c-0.116,0.031-0.241,0.045-0.37,0.045
			c-0.162,0-0.332-0.012-0.508-0.041c-0.18-0.027-0.346-0.078-0.502-0.156c-0.033-0.016-0.038-0.043-0.021-0.084l0.106-0.238
			c0.016-0.031,0.039-0.041,0.07-0.027c0.282,0.123,0.542,0.184,0.783,0.184c0.219,0,0.377-0.037,0.472-0.113
			c0.096-0.072,0.142-0.17,0.142-0.295c0-0.061-0.013-0.117-0.039-0.164c-0.024-0.049-0.063-0.094-0.113-0.133
			c-0.051-0.043-0.114-0.078-0.189-0.115c-0.074-0.035-0.16-0.072-0.262-0.111c-0.145-0.057-0.273-0.113-0.381-0.168
			c-0.111-0.055-0.203-0.113-0.277-0.176c-0.074-0.064-0.129-0.131-0.168-0.207s-0.057-0.164-0.057-0.264
			c0-0.215,0.07-0.391,0.215-0.521c0.143-0.133,0.358-0.199,0.643-0.199c0.064,0,0.137,0.004,0.21,0.01
			c0.077,0.008,0.152,0.018,0.228,0.029c0.073,0.016,0.146,0.029,0.215,0.051c0.07,0.018,0.137,0.043,0.198,0.066
			c0.03,0.018,0.038,0.039,0.024,0.068l-0.09,0.25c-0.006,0.021-0.016,0.033-0.021,0.035c-0.008,0.002-0.018,0.002-0.032-0.004
			c-0.134-0.047-0.265-0.082-0.394-0.104c-0.128-0.023-0.247-0.033-0.354-0.033c-0.149,0-0.258,0.031-0.328,0.094
			c-0.072,0.061-0.107,0.137-0.107,0.229c0,0.055,0.014,0.105,0.041,0.148s0.07,0.084,0.128,0.125
			c0.057,0.039,0.13,0.076,0.214,0.117c0.088,0.037,0.189,0.082,0.305,0.133c0.101,0.041,0.199,0.084,0.295,0.131
			c0.098,0.045,0.184,0.1,0.258,0.16c0.078,0.064,0.139,0.139,0.186,0.225C73.543,29.482,73.566,29.586,73.566,29.707"/>
		<path clip-path="url(#SVGID_2_)" fill="#FFFFFF" d="M74.017,27.793c0-0.035,0.007-0.059,0.022-0.068
			c0.016-0.008,0.038-0.012,0.066-0.012h0.229c0.032,0,0.056,0.004,0.07,0.012c0.012,0.01,0.019,0.033,0.019,0.068v2.576
			c0,0.037-0.007,0.061-0.019,0.07c-0.015,0.008-0.038,0.012-0.07,0.012h-0.229c-0.028,0-0.051-0.004-0.066-0.012
			c-0.016-0.01-0.022-0.033-0.022-0.07V27.793z"/>
		<path clip-path="url(#SVGID_2_)" fill="#FFFFFF" d="M76.796,29.07c0-0.137-0.014-0.27-0.042-0.391
			c-0.025-0.119-0.073-0.227-0.137-0.314c-0.063-0.092-0.148-0.164-0.258-0.215c-0.109-0.053-0.242-0.078-0.402-0.078H75.46v2.012
			h0.509c0.16,0,0.293-0.025,0.397-0.076c0.106-0.051,0.192-0.123,0.255-0.211c0.063-0.092,0.109-0.197,0.137-0.32
			C76.782,29.352,76.796,29.215,76.796,29.07 M75.262,30.451c-0.076,0-0.131-0.016-0.162-0.049
			c-0.033-0.031-0.051-0.086-0.051-0.162v-2.322c0-0.074,0.018-0.129,0.051-0.162c0.031-0.031,0.086-0.047,0.162-0.047l0.716-0.006
			c0.203,0,0.382,0.031,0.533,0.096c0.153,0.063,0.284,0.152,0.387,0.271c0.104,0.119,0.183,0.262,0.235,0.43
			c0.051,0.17,0.078,0.357,0.078,0.563c0,0.203-0.024,0.391-0.07,0.561c-0.049,0.172-0.12,0.318-0.218,0.441
			c-0.099,0.123-0.224,0.219-0.373,0.285c-0.149,0.068-0.328,0.102-0.534,0.102H75.262z"/>
		<path clip-path="url(#SVGID_2_)" fill="#FFFFFF" d="M78.831,28.721l-0.177-0.555h-0.02l-0.164,0.537l-0.238,0.773h0.838
			L78.831,28.721z M79.476,30.451c-0.028,0-0.049-0.002-0.065-0.008c-0.016-0.004-0.029-0.023-0.039-0.053l-0.184-0.559h-1.063
			l-0.184,0.559c-0.007,0.02-0.019,0.035-0.031,0.047c-0.013,0.008-0.033,0.014-0.062,0.014h-0.302
			c-0.027,0-0.047-0.008-0.056-0.025c-0.005-0.018-0.005-0.035,0-0.057l0.87-2.492c0.023-0.068,0.051-0.113,0.078-0.137
			c0.029-0.021,0.077-0.033,0.146-0.037h0.128c0.08,0,0.133,0.012,0.16,0.037c0.029,0.025,0.055,0.07,0.075,0.137l0.873,2.492
			c0.009,0.021,0.009,0.039,0,0.057c-0.008,0.018-0.025,0.025-0.052,0.025H79.476z"/>
		<path clip-path="url(#SVGID_2_)" fill="#FFFFFF" d="M81.928,29.07c0-0.137-0.016-0.27-0.041-0.391
			c-0.027-0.119-0.073-0.227-0.138-0.314c-0.063-0.092-0.151-0.164-0.258-0.215c-0.108-0.053-0.243-0.078-0.401-0.078h-0.498v2.012
			h0.51c0.158,0,0.291-0.025,0.396-0.076c0.106-0.051,0.19-0.123,0.256-0.211c0.063-0.092,0.107-0.197,0.133-0.32
			C81.914,29.352,81.928,29.215,81.928,29.07 M80.394,30.451c-0.077,0-0.131-0.016-0.164-0.049c-0.03-0.031-0.046-0.086-0.046-0.162
			v-2.322c0-0.074,0.016-0.129,0.046-0.162c0.033-0.031,0.087-0.047,0.164-0.047l0.716-0.006c0.203,0,0.382,0.031,0.533,0.096
			c0.154,0.063,0.281,0.152,0.386,0.271s0.183,0.262,0.237,0.43c0.051,0.17,0.075,0.357,0.075,0.563
			c0,0.203-0.023,0.391-0.069,0.561c-0.047,0.172-0.119,0.318-0.217,0.441c-0.1,0.123-0.222,0.219-0.373,0.285
			c-0.148,0.068-0.326,0.102-0.533,0.102H80.394z"/>
		<path clip-path="url(#SVGID_2_)" fill="#FFFFFF" d="M84.688,30.428c-0.01,0.016-0.032,0.023-0.068,0.023h-1.089
			c-0.133,0-0.243-0.018-0.33-0.057c-0.088-0.037-0.157-0.088-0.209-0.15c-0.053-0.061-0.09-0.135-0.11-0.219
			s-0.031-0.17-0.031-0.262V28.4c0-0.092,0.013-0.18,0.036-0.262c0.027-0.084,0.066-0.156,0.121-0.223
			c0.055-0.063,0.125-0.113,0.211-0.152c0.086-0.037,0.19-0.055,0.313-0.055h1.074c0.037,0,0.06,0.008,0.066,0.021
			c0.01,0.016,0.015,0.039,0.015,0.068v0.188c0,0.033-0.005,0.057-0.015,0.068c-0.007,0.012-0.029,0.018-0.066,0.018h-1.074
			c-0.098,0-0.17,0.021-0.213,0.064s-0.063,0.111-0.063,0.205v0.48h1.22c0.034,0,0.057,0.008,0.064,0.02
			c0.01,0.016,0.015,0.039,0.015,0.072v0.164c0,0.029-0.005,0.051-0.015,0.066c-0.008,0.016-0.03,0.023-0.064,0.023h-1.22v0.648
			c0,0.08,0.021,0.145,0.063,0.193s0.115,0.074,0.213,0.074h1.089c0.036,0,0.059,0.006,0.068,0.02
			c0.009,0.014,0.015,0.035,0.015,0.07v0.188C84.703,30.391,84.697,30.412,84.688,30.428"/>
		<path clip-path="url(#SVGID_2_)" fill="#FFFFFF" d="M87.795,28.553c0-0.049-0.008-0.102-0.023-0.158
			c-0.016-0.055-0.045-0.107-0.084-0.154c-0.04-0.047-0.096-0.086-0.166-0.117c-0.068-0.031-0.156-0.047-0.268-0.047h-0.621v0.941
			h0.634c0.185,0,0.32-0.041,0.403-0.127C87.752,28.805,87.795,28.691,87.795,28.553 M86.229,27.916
			c0-0.076,0.018-0.131,0.051-0.162c0.031-0.033,0.086-0.051,0.162-0.051h0.91c0.126,0,0.242,0.02,0.348,0.061
			c0.105,0.037,0.195,0.094,0.271,0.168c0.076,0.072,0.137,0.16,0.18,0.26c0.041,0.1,0.063,0.211,0.063,0.336
			c0,0.068-0.012,0.152-0.033,0.252c-0.024,0.098-0.068,0.189-0.133,0.277c-0.063,0.09-0.152,0.166-0.268,0.227
			c-0.114,0.061-0.262,0.092-0.443,0.092h-0.708v0.994c0,0.037-0.005,0.061-0.019,0.068c-0.015,0.01-0.037,0.014-0.072,0.014H86.32
			c-0.03,0-0.051-0.004-0.068-0.014c-0.014-0.008-0.023-0.031-0.023-0.068V27.916z"/>
		<path clip-path="url(#SVGID_2_)" fill="#FFFFFF" d="M89.584,28.721l-0.176-0.555h-0.021l-0.164,0.537l-0.238,0.773h0.838
			L89.584,28.721z M90.229,30.451c-0.027,0-0.051-0.002-0.066-0.008c-0.016-0.004-0.027-0.023-0.038-0.053l-0.185-0.559h-1.061
			l-0.184,0.559c-0.008,0.02-0.02,0.035-0.032,0.047c-0.013,0.008-0.032,0.014-0.062,0.014H88.3c-0.028,0-0.048-0.008-0.056-0.025
			c-0.006-0.018-0.006-0.035,0-0.057l0.869-2.492c0.023-0.068,0.051-0.113,0.08-0.137c0.027-0.021,0.076-0.033,0.143-0.037h0.131
			c0.078,0,0.131,0.012,0.16,0.037s0.054,0.07,0.073,0.137l0.874,2.492c0.01,0.021,0.01,0.039,0,0.057
			c-0.008,0.018-0.025,0.025-0.053,0.025H90.229z"/>
		<path clip-path="url(#SVGID_2_)" fill="#FFFFFF" d="M92.484,28.502c0-0.043-0.005-0.088-0.018-0.137
			c-0.012-0.049-0.035-0.096-0.071-0.139s-0.083-0.078-0.147-0.107c-0.061-0.029-0.144-0.043-0.245-0.043h-0.649v0.865h0.618
			c0.093,0,0.173-0.012,0.236-0.037c0.063-0.021,0.116-0.055,0.159-0.094c0.042-0.041,0.072-0.088,0.09-0.141
			S92.484,28.561,92.484,28.502 M90.934,27.916c0-0.076,0.017-0.131,0.051-0.162c0.031-0.033,0.084-0.051,0.161-0.051h0.9
			c0.124,0,0.239,0.02,0.343,0.059c0.104,0.037,0.19,0.09,0.266,0.16c0.074,0.068,0.133,0.15,0.175,0.248
			c0.04,0.096,0.062,0.203,0.062,0.316c0,0.156-0.038,0.293-0.116,0.408c-0.079,0.115-0.183,0.197-0.313,0.25v0.02
			c0.055,0.016,0.1,0.035,0.136,0.061c0.035,0.025,0.065,0.053,0.089,0.086c0.025,0.033,0.045,0.068,0.062,0.107
			c0.015,0.039,0.03,0.084,0.042,0.131l0.228,0.826c0.005,0.012,0.005,0.027,0,0.047c-0.002,0.02-0.02,0.029-0.054,0.029h-0.295
			c-0.013,0-0.027-0.002-0.043-0.008c-0.016-0.004-0.026-0.02-0.035-0.047l-0.199-0.738c-0.042-0.146-0.108-0.246-0.199-0.295
			c-0.088-0.049-0.197-0.074-0.325-0.074h-0.518v1.08c0,0.037-0.006,0.061-0.019,0.068c-0.014,0.01-0.037,0.014-0.072,0.014h-0.232
			c-0.029,0-0.053-0.004-0.068-0.014c-0.015-0.008-0.023-0.031-0.023-0.068V27.916z"/>
		<path clip-path="url(#SVGID_2_)" fill="#FFFFFF" d="M94.523,28.721l-0.176-0.555h-0.02l-0.165,0.537l-0.238,0.773h0.837
			L94.523,28.721z M95.169,30.451c-0.028,0-0.051-0.002-0.066-0.008c-0.015-0.004-0.028-0.023-0.04-0.053l-0.182-0.559h-1.062
			l-0.185,0.559c-0.007,0.02-0.018,0.035-0.032,0.047c-0.012,0.008-0.033,0.014-0.062,0.014h-0.302
			c-0.028,0-0.046-0.008-0.055-0.025c-0.008-0.018-0.008-0.035,0-0.057l0.868-2.492c0.023-0.068,0.05-0.113,0.08-0.137
			c0.028-0.021,0.075-0.033,0.145-0.037h0.129c0.077,0,0.132,0.012,0.161,0.037c0.028,0.025,0.051,0.07,0.073,0.137l0.872,2.492
			c0.009,0.021,0.009,0.039,0,0.057c-0.007,0.018-0.022,0.025-0.051,0.025H95.169z"/>
		<path clip-path="url(#SVGID_2_)" fill="#FFFFFF" d="M97.632,27.789c0-0.035,0.008-0.059,0.022-0.068
			c0.017-0.008,0.039-0.012,0.067-0.012h0.216c0.033,0,0.059,0.004,0.07,0.012c0.012,0.01,0.019,0.033,0.019,0.068v2.447
			c0,0.074-0.015,0.129-0.044,0.162c-0.03,0.035-0.085,0.053-0.167,0.053h-0.117c-0.063,0-0.107-0.012-0.138-0.039
			c-0.027-0.025-0.061-0.068-0.098-0.129l-0.861-1.436l-0.32-0.557h-0.013v2.078c0,0.037-0.006,0.061-0.019,0.068
			c-0.014,0.01-0.037,0.014-0.071,0.014h-0.214c-0.028,0-0.052-0.004-0.067-0.014c-0.016-0.008-0.023-0.031-0.023-0.068v-2.445
			c0-0.074,0.016-0.127,0.045-0.162c0.03-0.037,0.085-0.053,0.166-0.053h0.119c0.062,0,0.107,0.012,0.135,0.037
			c0.03,0.027,0.063,0.068,0.1,0.131l0.85,1.42l0.33,0.572h0.014V27.789z"/>
		<path clip-path="url(#SVGID_2_)" fill="#FFFFFF" d="M99.726,28.721l-0.175-0.555h-0.02l-0.166,0.537l-0.238,0.773h0.839
			L99.726,28.721z M100.372,30.451c-0.028,0-0.051-0.002-0.066-0.008c-0.017-0.004-0.029-0.023-0.04-0.053l-0.184-0.559h-1.062
			l-0.184,0.559c-0.008,0.02-0.018,0.035-0.032,0.047c-0.013,0.008-0.033,0.014-0.062,0.014h-0.302
			c-0.028,0-0.046-0.008-0.055-0.025c-0.007-0.018-0.007-0.035,0-0.057l0.869-2.492c0.023-0.068,0.05-0.113,0.078-0.137
			c0.03-0.021,0.077-0.033,0.146-0.037h0.129c0.077,0,0.131,0.012,0.158,0.037c0.029,0.025,0.055,0.07,0.074,0.137l0.874,2.492
			c0.008,0.021,0.008,0.039,0,0.057c-0.007,0.018-0.024,0.025-0.051,0.025H100.372z"/>
		<path clip-path="url(#SVGID_2_)" fill="#FFFFFF" d="M102.914,30.428c-0.01,0.016-0.032,0.023-0.069,0.023h-1.087
			c-0.134,0-0.244-0.018-0.333-0.057c-0.086-0.037-0.155-0.088-0.207-0.15c-0.054-0.061-0.09-0.135-0.11-0.219
			s-0.031-0.17-0.031-0.262V28.4c0-0.092,0.013-0.18,0.036-0.262c0.025-0.084,0.066-0.156,0.12-0.223
			c0.056-0.063,0.126-0.113,0.211-0.152c0.087-0.037,0.19-0.055,0.314-0.055h1.071c0.037,0,0.062,0.008,0.068,0.021
			c0.011,0.016,0.015,0.039,0.015,0.068v0.188c0,0.033-0.004,0.057-0.015,0.068c-0.007,0.012-0.031,0.018-0.068,0.018h-1.071
			c-0.1,0-0.171,0.021-0.214,0.064c-0.044,0.043-0.065,0.111-0.065,0.205v0.48h1.222c0.035,0,0.056,0.008,0.065,0.02
			c0.009,0.016,0.014,0.039,0.014,0.072v0.164c0,0.029-0.005,0.051-0.014,0.066c-0.01,0.016-0.03,0.023-0.065,0.023h-1.222v0.648
			c0,0.08,0.021,0.145,0.065,0.193c0.043,0.049,0.114,0.074,0.214,0.074h1.087c0.037,0,0.06,0.006,0.069,0.02
			s0.014,0.035,0.014,0.07v0.188C102.928,30.391,102.924,30.412,102.914,30.428"/>
		<path clip-path="url(#SVGID_2_)" fill="#FFFFFF" d="M105.136,27.789c0-0.035,0.007-0.059,0.023-0.068
			c0.015-0.008,0.037-0.012,0.067-0.012h0.214c0.035,0,0.058,0.004,0.07,0.012c0.014,0.01,0.021,0.033,0.021,0.068v2.447
			c0,0.074-0.016,0.129-0.046,0.162c-0.029,0.035-0.086,0.053-0.166,0.053h-0.118c-0.063,0-0.106-0.012-0.138-0.039
			c-0.026-0.025-0.06-0.068-0.097-0.129l-0.861-1.436l-0.32-0.557h-0.013v2.078c0,0.037-0.005,0.061-0.019,0.068
			c-0.015,0.01-0.037,0.014-0.071,0.014h-0.215c-0.028,0-0.052-0.004-0.065-0.014c-0.018-0.008-0.024-0.031-0.024-0.068v-2.445
			c0-0.074,0.015-0.127,0.045-0.162c0.029-0.037,0.086-0.053,0.166-0.053h0.117c0.063,0,0.108,0.012,0.138,0.037
			c0.028,0.027,0.061,0.068,0.097,0.131l0.851,1.42l0.332,0.572h0.013V27.789z"/>
		<path clip-path="url(#SVGID_2_)" fill="#FFFFFF" d="M107.969,29.707c0,0.139-0.024,0.254-0.077,0.354
			c-0.05,0.1-0.118,0.18-0.206,0.246c-0.087,0.063-0.189,0.109-0.304,0.143c-0.117,0.031-0.241,0.045-0.371,0.045
			c-0.162,0-0.332-0.012-0.508-0.041c-0.178-0.027-0.345-0.078-0.501-0.156c-0.031-0.016-0.037-0.043-0.02-0.084l0.104-0.238
			c0.017-0.031,0.04-0.041,0.071-0.027c0.282,0.123,0.543,0.184,0.782,0.184c0.22,0,0.376-0.037,0.473-0.113
			c0.094-0.072,0.141-0.17,0.141-0.295c0-0.061-0.012-0.117-0.038-0.164c-0.025-0.049-0.064-0.094-0.116-0.133
			c-0.051-0.043-0.112-0.078-0.187-0.115c-0.074-0.035-0.161-0.072-0.262-0.111c-0.146-0.057-0.272-0.113-0.383-0.168
			c-0.109-0.055-0.2-0.113-0.275-0.176c-0.073-0.064-0.131-0.131-0.168-0.207c-0.038-0.076-0.057-0.164-0.057-0.264
			c0-0.215,0.072-0.391,0.214-0.521c0.145-0.133,0.359-0.199,0.643-0.199c0.065,0,0.136,0.004,0.211,0.01
			c0.076,0.008,0.151,0.018,0.226,0.029c0.073,0.016,0.146,0.029,0.217,0.051c0.07,0.018,0.136,0.043,0.195,0.066
			c0.033,0.018,0.041,0.039,0.027,0.068l-0.089,0.25c-0.009,0.021-0.016,0.033-0.024,0.035c-0.008,0.002-0.017,0.002-0.031-0.004
			c-0.132-0.047-0.264-0.082-0.393-0.104c-0.129-0.023-0.248-0.033-0.354-0.033c-0.149,0-0.26,0.031-0.329,0.094
			c-0.071,0.061-0.105,0.137-0.105,0.229c0,0.055,0.013,0.105,0.041,0.148c0.027,0.043,0.069,0.084,0.126,0.125
			c0.059,0.039,0.13,0.076,0.216,0.117c0.086,0.037,0.188,0.082,0.305,0.133c0.1,0.041,0.197,0.084,0.294,0.131
			c0.095,0.045,0.184,0.1,0.259,0.16c0.075,0.064,0.136,0.139,0.184,0.225C107.946,29.482,107.969,29.586,107.969,29.707"/>
		<path clip-path="url(#SVGID_2_)" fill="#FFFFFF" d="M110.214,30.428c-0.009,0.016-0.032,0.023-0.068,0.023h-1.089
			c-0.132,0-0.242-0.018-0.329-0.057c-0.088-0.037-0.158-0.088-0.209-0.15c-0.054-0.061-0.091-0.135-0.11-0.219
			c-0.021-0.084-0.032-0.17-0.032-0.262V28.4c0-0.092,0.013-0.18,0.038-0.262c0.023-0.084,0.063-0.156,0.119-0.223
			c0.054-0.063,0.125-0.113,0.213-0.152c0.085-0.037,0.189-0.055,0.311-0.055h1.074c0.037,0,0.059,0.008,0.066,0.021
			c0.011,0.016,0.016,0.039,0.016,0.068v0.188c0,0.033-0.005,0.057-0.016,0.068c-0.008,0.012-0.029,0.018-0.066,0.018h-1.074
			c-0.098,0-0.17,0.021-0.213,0.064c-0.042,0.043-0.064,0.111-0.064,0.205v0.48h1.223c0.033,0,0.056,0.008,0.063,0.02
			c0.01,0.016,0.013,0.039,0.013,0.072v0.164c0,0.029-0.003,0.051-0.013,0.066c-0.008,0.016-0.03,0.023-0.063,0.023h-1.223v0.648
			c0,0.08,0.022,0.145,0.064,0.193c0.043,0.049,0.115,0.074,0.213,0.074h1.089c0.036,0,0.06,0.006,0.068,0.02
			s0.014,0.035,0.014,0.07v0.188C110.228,30.391,110.223,30.412,110.214,30.428"/>
		<path clip-path="url(#SVGID_2_)" fill="#FFFFFF" d="M66.568,23.771c0,0.355-0.079,0.658-0.235,0.912
			c-0.159,0.252-0.45,0.436-0.876,0.547c-0.201,0.051-0.426,0.09-0.668,0.115c-0.243,0.023-0.486,0.043-0.73,0.051
			c-0.242,0.012-0.471,0.02-0.684,0.023c-0.213,0.006-0.385,0.008-0.518,0.008c-0.871,0-1.619-0.072-2.242-0.221
			c-0.623-0.146-1.132-0.396-1.527-0.752c-0.395-0.355-0.684-0.826-0.867-1.414c-0.182-0.588-0.273-1.328-0.273-2.221l-0.014-5.898
			c0-0.12,0.027-0.205,0.091-0.25c0.062-0.047,0.146-0.069,0.257-0.069h1.628c0.152,0,0.25,0.021,0.297,0.061
			c0.045,0.042,0.067,0.128,0.067,0.259v6.036c0,0.415,0.035,0.778,0.107,1.087c0.07,0.311,0.195,0.564,0.38,0.768
			c0.181,0.203,0.428,0.352,0.736,0.449c0.31,0.096,0.708,0.145,1.194,0.145c0.07,0,0.166-0.002,0.289-0.008
			c0.121-0.006,0.254-0.01,0.402-0.016c0.148-0.004,0.299-0.016,0.455-0.031c0.157-0.014,0.302-0.037,0.435-0.068v-8.361
			c0-0.12,0.026-0.205,0.083-0.25c0.055-0.047,0.146-0.069,0.266-0.069h1.611c0.152,0,0.244,0.021,0.281,0.061
			c0.036,0.042,0.055,0.128,0.055,0.259V23.771z"/>
		<path clip-path="url(#SVGID_2_)" fill="#FFFFFF" d="M70.535,18.632v6.294c0,0.133-0.021,0.219-0.068,0.26
			c-0.045,0.039-0.141,0.061-0.28,0.061H68.59c-0.121,0-0.211-0.025-0.267-0.068c-0.058-0.047-0.084-0.129-0.084-0.252v-9.273
			c0-0.396,0.071-0.671,0.214-0.829c0.143-0.157,0.4-0.235,0.775-0.235h0.639c0.151,0,0.283,0.007,0.388,0.022s0.2,0.049,0.28,0.099
			c0.082,0.051,0.156,0.123,0.229,0.213c0.07,0.092,0.151,0.209,0.242,0.351l3.894,5.989h0.075v-6.354
			c0-0.122,0.021-0.205,0.068-0.251c0.045-0.046,0.139-0.068,0.28-0.068h1.597c0.233,0,0.35,0.105,0.35,0.319v9.288
			c0,0.326-0.063,0.582-0.197,0.77c-0.131,0.188-0.395,0.281-0.789,0.281h-0.64c-0.152,0-0.28-0.008-0.388-0.025
			c-0.105-0.014-0.201-0.045-0.281-0.096c-0.08-0.053-0.156-0.121-0.228-0.207s-0.152-0.199-0.243-0.342l-3.892-5.944H70.535z"/>
		<path clip-path="url(#SVGID_2_)" fill="#FFFFFF" d="M81.199,25.186c-0.044,0.039-0.145,0.061-0.295,0.061h-1.612
			c-0.123,0-0.21-0.025-0.267-0.068c-0.056-0.047-0.082-0.129-0.082-0.252V14.922c0-0.12,0.026-0.205,0.082-0.25
			c0.057-0.046,0.144-0.069,0.267-0.069h1.612c0.15,0,0.251,0.021,0.295,0.061c0.047,0.041,0.07,0.127,0.07,0.259v10.004
			C81.27,25.059,81.246,25.145,81.199,25.186"/>
		<path clip-path="url(#SVGID_2_)" fill="#FFFFFF" d="M93.869,21.154h2.387l-1.139-4.119h-0.092L93.869,21.154z M96.805,23.025
			h-3.483l-0.592,1.932c-0.03,0.102-0.074,0.174-0.128,0.221c-0.059,0.045-0.156,0.068-0.297,0.068h-1.779
			c-0.111,0-0.182-0.031-0.207-0.092c-0.023-0.061-0.025-0.131-0.006-0.213l3.161-9.532c0.051-0.173,0.11-0.313,0.178-0.418
			c0.063-0.106,0.14-0.19,0.227-0.251c0.086-0.062,0.188-0.104,0.304-0.129c0.117-0.025,0.251-0.039,0.403-0.039h0.911
			c0.173,0,0.32,0.009,0.441,0.022c0.121,0.017,0.228,0.054,0.318,0.114c0.093,0.062,0.171,0.147,0.235,0.259
			c0.067,0.112,0.13,0.259,0.191,0.441l3.161,9.532c0.021,0.061,0.021,0.127,0,0.197c-0.021,0.072-0.085,0.107-0.197,0.107h-1.81
			c-0.109,0-0.204-0.014-0.28-0.039c-0.074-0.025-0.129-0.094-0.16-0.205L96.805,23.025z"/>
		<path clip-path="url(#SVGID_2_)" fill="#FFFFFF" d="M90.892,16.579c-0.162-0.404-0.399-0.755-0.708-1.049
			s-0.683-0.523-1.123-0.691c-0.441-0.167-0.936-0.251-1.483-0.251h-3.726c-0.363,0-0.605,0.084-0.729,0.251
			c-0.12,0.168-0.182,0.393-0.182,0.676v9.411c0,0.123,0.027,0.205,0.083,0.252c0.056,0.045,0.146,0.068,0.267,0.068h1.596
			c0.152,0,0.252-0.018,0.297-0.055c0.044-0.035,0.069-0.123,0.069-0.266v-8.301h1.977c0.303,0,0.554,0.048,0.751,0.145
			c0.198,0.097,0.355,0.219,0.473,0.364c0.114,0.147,0.194,0.305,0.235,0.473c0.039,0.166,0.061,0.321,0.061,0.463
			c0,0.405-0.121,0.747-0.365,1.026c-0.243,0.279-0.623,0.417-1.141,0.417h-0.838c-0.125,0-0.246,0.07-0.307,0.19
			c-0.061,0.121-0.044,0.259,0.033,0.359l0.887,1.184c0.031,0.043,0.072,0.076,0.121,0.102c0.05,0.025,0.135,0.035,0.135,0.035
			c0.852,0,1.532-0.131,2.045-0.395c0.512-0.264,0.902-0.58,1.17-0.951c0.269-0.368,0.443-0.748,0.525-1.139
			c0.08-0.391,0.121-0.718,0.121-0.98C91.135,17.431,91.052,16.984,90.892,16.579"/>
		<path clip-path="url(#SVGID_2_)" fill="#FFFFFF" d="M110.132,24.729l-2.879-3.843c0.421-0.242,0.757-0.523,0.992-0.848
			c0.269-0.37,0.442-0.75,0.523-1.14c0.08-0.39,0.122-0.718,0.122-0.98c0-0.487-0.082-0.933-0.243-1.339
			c-0.163-0.404-0.398-0.754-0.706-1.048c-0.312-0.295-0.687-0.525-1.126-0.692c-0.441-0.167-0.936-0.252-1.482-0.252h-3.724
			c-0.367,0-0.61,0.085-0.731,0.252c-0.122,0.167-0.183,0.393-0.183,0.677v9.41c0,0.121,0.028,0.205,0.084,0.252
			c0.056,0.045,0.145,0.068,0.266,0.068h1.597c0.152,0,0.251-0.018,0.298-0.055c0.044-0.033,0.067-0.123,0.067-0.266v-8.301h1.977
			c0.304,0,0.555,0.048,0.753,0.144c0.197,0.098,0.354,0.22,0.47,0.365c0.117,0.147,0.194,0.305,0.236,0.472
			c0.042,0.168,0.062,0.322,0.062,0.464c0,0.406-0.122,0.748-0.365,1.026c-0.242,0.279-0.623,0.418-1.141,0.418h-0.837
			c-0.127,0-0.248,0.07-0.308,0.19c-0.06,0.119-0.043,0.258,0.032,0.358l3.498,4.666c0.243,0.324,0.63,0.518,1.036,0.518h1.455
			C110.142,25.246,110.292,24.941,110.132,24.729"/>
		<path clip-path="url(#SVGID_2_)" fill="#FFFFFF" d="M52.373,13.82c-0.03-0.063-0.127-0.039-0.125,0.033
			c0.026,0.427,0.012,0.868-0.045,1.317c-0.326,2.552-1.932,4.796-4.086,6.089c-0.135,0.082-0.148,0.27-0.036,0.383l1.304,1.301
			c0.139,0.141,0.355,0.154,0.518,0.043c1.924-1.303,3.191-3.509,3.191-6.011C53.094,15.845,52.835,14.775,52.373,13.82"/>
		<path clip-path="url(#SVGID_2_)" fill="#FFFFFF" d="M14.367,29.072c0,1.686,0.865,3.166,2.169,4.031
			c0.116,0.076,0.266-0.018,0.266-0.16V2.783c0-0.18-0.145-0.324-0.322-0.324h-1.788c-0.178,0-0.324,0.145-0.324,0.324V29.072z"/>
		<path clip-path="url(#SVGID_2_)" fill="#FFFFFF" d="M10.755,25.443c0,1.678,0.856,3.154,2.155,4.021
			c0.115,0.078,0.264-0.018,0.264-0.158V2.783c0-0.18-0.145-0.323-0.322-0.323h-1.773c-0.178,0-0.323,0.144-0.323,0.323V25.443z"/>
		<path clip-path="url(#SVGID_2_)" fill="#FFFFFF" d="M51.606,13.347c0-1.131-0.259-2.201-0.719-3.155
			c-0.032-0.064-0.128-0.038-0.124,0.032c0.024,0.428,0.01,0.868-0.047,1.318c-0.396,3.096-2.672,5.736-5.535,6.779
			c-0.141,0.054-0.192,0.231-0.085,0.337l1.339,1.338c0.139,0.14,0.346,0.192,0.527,0.122C49.68,19.067,51.606,16.434,51.606,13.347
			"/>
		<path clip-path="url(#SVGID_2_)" fill="#FFFFFF" d="M36.476,9.718c-0.179,0-0.323,0.145-0.323,0.323v25.08H22.835
			c-0.892-0.004-1.667-0.49-2.084-1.211h13.873c0.18,0,0.324-0.145,0.324-0.322V8.509h12.526c0.1,0.387,0.158,0.79,0.158,1.209
			H36.476z M20.432,30.283h10.888V4.879h11.476c1.225,0,2.34,0.46,3.192,1.21H32.836c-0.178,0-0.322,0.145-0.322,0.323v25.08H20.432
			V30.283z M49.638,12.137c0.268-0.756,0.415-1.57,0.415-2.419c0-0.412-0.037-0.816-0.104-1.209c-0.146-0.87-0.445-1.686-0.869-2.42
			c-0.253-0.434-0.547-0.84-0.879-1.21c-1.329-1.484-3.258-2.42-5.406-2.42h-13.57c-0.18,0-0.325,0.145-0.325,0.324v25.08h-8.468
			V2.783c0-0.18-0.145-0.324-0.323-0.324H18.33c-0.178,0-0.324,0.145-0.324,0.324v29.92c0,0.881,0.24,1.705,0.653,2.418
			c0.425,0.734,1.036,1.346,1.772,1.771c0.711,0.41,1.533,0.648,2.412,0.648h15.41c0.178,0,0.323-0.146,0.323-0.326V12.137h0.03
			h8.373c-0.961,1.674-2.99,2.726-5.091,2.976c-0.124,0.016-0.169,0.171-0.082,0.261l1.353,1.349
			c0.147,0.149,0.357,0.221,0.564,0.194C46.474,16.563,48.74,14.674,49.638,12.137"/>
	</g>
	<rect x="112.646" y="13.339" fill="#FFFFFF" width="0.584" height="18.396"/>
</g>
</svg>
