<?xml version="1.0" encoding="utf-8"?>
<!-- Generator: Adobe Illustrator 16.0.0, SVG Export Plug-In . SVG Version: 6.00 Build 0)  -->
<!DOCTYPE svg PUBLIC "-//W3C//DTD SVG 1.1//EN" "http://www.w3.org/Graphics/SVG/1.1/DTD/svg11.dtd">
<svg version="1.1" xmlns="http://www.w3.org/2000/svg" xmlns:xlink="http://www.w3.org/1999/xlink" x="0px" y="0px" width="170px"
	 height="40px" viewBox="0 0 170 40" enable-background="new 0 0 170 40" xml:space="preserve">
<g id="Layer_2">
</g>
<g id="Layer_1">
	<g>
		<defs>
			<rect id="SVGID_1_" x="18.069" y="5.995" width="133.861" height="28.011"/>
		</defs>
		<clipPath id="SVGID_2_">
			<use xlink:href="#SVGID_1_"  overflow="visible"/>
		</clipPath>
		<path clip-path="url(#SVGID_2_)" fill="#FFFFFF" d="M146.246,25.977h1.886c0.225,0,0.42,0.033,0.585,0.102
			c0.165,0.066,0.29,0.156,0.377,0.27c0.084,0.109,0.145,0.225,0.184,0.348c0.04,0.117,0.058,0.246,0.058,0.383
			c0,0.338-0.107,0.611-0.324,0.814c-0.216,0.205-0.524,0.309-0.926,0.309h-1.839V25.977z M144.191,33.773
			c0.05,0.043,0.13,0.064,0.243,0.064h1.479c0.14,0,0.228-0.018,0.265-0.049c0.036-0.031,0.055-0.113,0.055-0.244v-3.643h1.345
			c0.423,0,0.751,0.092,0.984,0.273c0.23,0.184,0.405,0.494,0.522,0.936l0.607,2.449c0.027,0.086,0.075,0.148,0.146,0.191
			c0.069,0.043,0.132,0.068,0.187,0.074c0.053,0.01,0.129,0.012,0.223,0.012h1.454c0.098,0,0.167-0.037,0.202-0.109
			c0.019-0.035,0.027-0.074,0.027-0.113c0-0.031-0.008-0.063-0.025-0.094l-0.706-2.773c-0.099-0.389-0.216-0.697-0.35-0.924
			c-0.137-0.227-0.346-0.402-0.63-0.531l-0.013-0.066c0.404-0.217,0.721-0.531,0.946-0.947c0.225-0.412,0.338-0.861,0.338-1.346
			c0-0.861-0.275-1.545-0.832-2.047c-0.554-0.504-1.33-0.756-2.324-0.756h-3.394c-0.316,0-0.531,0.066-0.648,0.201
			c-0.117,0.137-0.177,0.35-0.177,0.643v8.57C144.116,33.654,144.142,33.729,144.191,33.773 M135.135,25.977h1.959
			c0.298,0,0.535,0.078,0.708,0.234c0.174,0.156,0.261,0.369,0.261,0.645c0,0.182-0.031,0.338-0.095,0.469
			c-0.063,0.131-0.148,0.229-0.258,0.295c-0.108,0.066-0.22,0.115-0.332,0.143c-0.114,0.025-0.232,0.039-0.359,0.039h-1.884V25.977z
			 M135.135,29.504h1.999c0.434,0,0.766,0.113,0.996,0.34c0.229,0.225,0.344,0.529,0.344,0.908c0,0.145-0.021,0.283-0.063,0.42
			c-0.042,0.135-0.111,0.268-0.206,0.396c-0.095,0.127-0.235,0.232-0.417,0.309c-0.183,0.076-0.401,0.115-0.653,0.115h-1.999V29.504
			z M133.219,33.646c0.116,0.127,0.332,0.191,0.651,0.191h3.475c0.931,0,1.714-0.275,2.348-0.826
			c0.634-0.547,0.953-1.254,0.953-2.117c0-0.518-0.123-0.99-0.368-1.426c-0.244-0.43-0.615-0.746-1.108-0.939v-0.102
			c0.313-0.176,0.569-0.432,0.767-0.77c0.198-0.336,0.297-0.697,0.297-1.078c0-0.557-0.134-1.023-0.401-1.396
			c-0.27-0.375-0.619-0.643-1.054-0.807c-0.433-0.165-0.941-0.246-1.521-0.246h-3.387c-0.319,0-0.535,0.064-0.651,0.195
			c-0.114,0.131-0.172,0.352-0.172,0.662v8.004C133.047,33.303,133.104,33.521,133.219,33.646 M127.368,33.643
			c0.227,0.242,0.5,0.361,0.817,0.361c0.324,0,0.599-0.119,0.819-0.361c0.223-0.24,0.334-0.537,0.334-0.887
			c0-0.354-0.111-0.646-0.334-0.887c-0.221-0.238-0.495-0.359-0.819-0.359c-0.322,0-0.596,0.123-0.82,0.363
			c-0.227,0.242-0.339,0.535-0.339,0.883C127.026,33.105,127.14,33.402,127.368,33.643 M118.471,25.977h1.885
			c0.226,0,0.421,0.033,0.584,0.102c0.166,0.066,0.291,0.156,0.378,0.27c0.085,0.109,0.145,0.225,0.184,0.348
			c0.04,0.117,0.059,0.246,0.059,0.383c0,0.338-0.107,0.611-0.325,0.814c-0.217,0.205-0.525,0.309-0.925,0.309h-1.839V25.977z
			 M116.416,33.773c0.049,0.043,0.129,0.064,0.243,0.064h1.479c0.141,0,0.229-0.018,0.266-0.049s0.055-0.113,0.055-0.244v-3.643
			h1.345c0.421,0,0.75,0.092,0.982,0.273c0.231,0.184,0.406,0.494,0.525,0.936l0.606,2.449c0.026,0.086,0.075,0.148,0.146,0.191
			s0.132,0.068,0.186,0.074c0.054,0.01,0.128,0.012,0.223,0.012h1.455c0.098,0,0.164-0.037,0.201-0.109
			c0.02-0.035,0.028-0.074,0.028-0.113c0-0.031-0.008-0.063-0.026-0.094l-0.706-2.773c-0.098-0.389-0.216-0.697-0.35-0.924
			c-0.137-0.227-0.344-0.402-0.628-0.531l-0.015-0.066c0.407-0.217,0.722-0.531,0.947-0.947c0.224-0.412,0.338-0.861,0.338-1.346
			c0-0.861-0.276-1.545-0.832-2.047c-0.554-0.504-1.329-0.756-2.323-0.756h-3.396c-0.313,0-0.531,0.066-0.647,0.201
			c-0.118,0.137-0.176,0.35-0.176,0.643v8.57C116.342,33.654,116.365,33.729,116.416,33.773 M108.537,28.342l0.525-1.982h0.082
			l0.514,1.982l0.521,1.758h-2.169L108.537,28.342z M104.758,33.666c0,0.113,0.067,0.172,0.203,0.172h1.621
			c0.128,0,0.215-0.02,0.268-0.059s0.093-0.109,0.118-0.207l0.541-1.77h3.17l0.541,1.811c0.019,0.066,0.045,0.117,0.083,0.152
			c0.04,0.035,0.08,0.055,0.125,0.061c0.047,0.01,0.11,0.012,0.19,0.012h1.65c0.098,0,0.161-0.035,0.188-0.098
			c0.018-0.035,0.024-0.068,0.02-0.094c0-0.031-0.009-0.063-0.026-0.088l-2.88-8.678c-0.107-0.324-0.233-0.533-0.375-0.626
			c-0.142-0.091-0.376-0.138-0.705-0.138h-0.831c-0.29,0-0.508,0.054-0.654,0.158c-0.146,0.105-0.263,0.309-0.354,0.605
			l-2.881,8.678C104.762,33.598,104.758,33.635,104.758,33.666 M97.689,25.977h1.801c0.267,0,0.497,0.043,0.688,0.129
			c0.192,0.086,0.337,0.199,0.431,0.338c0.094,0.143,0.164,0.281,0.207,0.422c0.042,0.141,0.063,0.283,0.063,0.43
			c0,0.389-0.115,0.707-0.349,0.953c-0.231,0.248-0.574,0.371-1.024,0.371h-1.816V25.977z M95.675,33.773
			c0.048,0.043,0.13,0.064,0.241,0.064h1.444c0.143,0,0.233-0.018,0.271-0.049s0.058-0.113,0.058-0.244v-3.223h1.84
			c0.43,0,0.82-0.043,1.175-0.129c0.354-0.084,0.651-0.197,0.888-0.332c0.241-0.135,0.451-0.301,0.632-0.492
			s0.322-0.381,0.423-0.568s0.186-0.389,0.246-0.604c0.064-0.215,0.105-0.402,0.126-0.566c0.02-0.16,0.03-0.32,0.03-0.473
			c0-0.891-0.293-1.617-0.876-2.182c-0.588-0.564-1.372-0.846-2.358-0.846h-3.39c-0.311,0-0.526,0.07-0.644,0.211
			c-0.122,0.144-0.181,0.355-0.181,0.633v8.57C95.601,33.654,95.624,33.729,95.675,33.773 M89.641,33.773
			c0.049,0.043,0.131,0.064,0.242,0.064h1.461c0.14,0,0.23-0.02,0.274-0.059c0.042-0.039,0.064-0.115,0.064-0.234v-9.11
			c0-0.117-0.022-0.196-0.064-0.233c-0.044-0.037-0.135-0.057-0.274-0.057h-1.461c-0.111,0-0.193,0.021-0.242,0.064
			c-0.051,0.043-0.075,0.117-0.075,0.226v9.11C89.565,33.654,89.59,33.729,89.641,33.773 M77.509,33.773
			c0.05,0.043,0.132,0.064,0.244,0.064h1.452c0.132,0,0.217-0.02,0.258-0.059c0.04-0.039,0.061-0.115,0.061-0.234v-5.73h0.067
			l1.332,2.063l2.209,3.35c0.168,0.264,0.312,0.432,0.438,0.502c0.124,0.072,0.325,0.109,0.604,0.109h0.582
			c0.337,0,0.571-0.08,0.701-0.238c0.131-0.156,0.196-0.396,0.196-0.717V24.42c0-0.191-0.104-0.289-0.317-0.289h-1.453
			c-0.131,0-0.217,0.02-0.256,0.061c-0.041,0.041-0.061,0.117-0.061,0.229v5.787h-0.069l-1.195-1.865l-2.353-3.582
			c-0.167-0.271-0.311-0.443-0.433-0.519s-0.322-0.11-0.603-0.11h-0.58c-0.339,0-0.572,0.072-0.704,0.216
			c-0.13,0.146-0.195,0.396-0.195,0.759v8.439C77.435,33.654,77.46,33.729,77.509,33.773 M65.852,29.809
			c0,0.811,0.08,1.484,0.243,2.021c0.163,0.535,0.43,0.965,0.801,1.291c0.372,0.324,0.83,0.551,1.375,0.686
			c0.545,0.133,1.229,0.197,2.048,0.197c1.1,0,1.888-0.059,2.366-0.182c0.369-0.098,0.631-0.258,0.784-0.479
			c0.154-0.221,0.229-0.506,0.229-0.854v-8.056c0-0.121-0.016-0.2-0.05-0.237c-0.034-0.035-0.119-0.053-0.254-0.053h-1.466
			c-0.114,0-0.193,0.021-0.244,0.064c-0.05,0.043-0.074,0.117-0.074,0.226v7.616c-0.325,0.074-0.805,0.109-1.44,0.109
			c-0.437,0-0.799-0.043-1.085-0.131c-0.285-0.088-0.511-0.227-0.675-0.422c-0.165-0.189-0.28-0.418-0.345-0.684
			c-0.066-0.268-0.098-0.598-0.098-0.994v-5.495c0-0.117-0.021-0.196-0.061-0.233c-0.041-0.037-0.131-0.057-0.271-0.057h-1.48
			c-0.109,0-0.188,0.021-0.24,0.064c-0.052,0.043-0.078,0.117-0.078,0.226L65.852,29.809z M60.171,33.643
			c0.227,0.242,0.5,0.361,0.817,0.361c0.326,0,0.599-0.119,0.82-0.361c0.221-0.24,0.333-0.537,0.333-0.887
			c0-0.354-0.112-0.646-0.333-0.887c-0.222-0.238-0.495-0.359-0.82-0.359c-0.321,0-0.595,0.123-0.819,0.363
			c-0.227,0.242-0.339,0.535-0.339,0.883C59.83,33.105,59.944,33.402,60.171,33.643 M48.395,33.16
			c0.031,0.168,0.074,0.301,0.124,0.4c0.053,0.1,0.125,0.168,0.213,0.213c0.09,0.043,0.174,0.068,0.254,0.076
			c0.078,0.01,0.198,0.014,0.355,0.014h0.805c0.289,0,0.495-0.047,0.622-0.145c0.125-0.098,0.227-0.303,0.303-0.619l0.842-3.676
			l0.585-2.549h0.081l0.537,2.549l0.806,3.676c0.095,0.324,0.208,0.531,0.336,0.627c0.129,0.092,0.339,0.137,0.634,0.137h0.764
			c0.297,0,0.507-0.041,0.628-0.121c0.122-0.08,0.227-0.283,0.311-0.607l1.967-8.728c0.019-0.058,0.028-0.106,0.028-0.143
			c0-0.034-0.007-0.062-0.021-0.08c-0.028-0.036-0.09-0.054-0.189-0.054h-1.785c-0.121,0-0.208,0.02-0.256,0.057
			c-0.05,0.039-0.084,0.126-0.101,0.262l-0.71,4.063l-0.385,2.35h-0.082l-0.501-2.348l-0.777-3.646
			c-0.069-0.275-0.154-0.467-0.258-0.574c-0.103-0.108-0.285-0.162-0.546-0.162h-0.796c-0.289,0-0.494,0.055-0.615,0.166
			c-0.122,0.109-0.223,0.318-0.303,0.625l-0.743,3.488l-0.532,2.508h-0.096l-0.418-2.482l-0.69-4.016
			c-0.027-0.129-0.073-0.212-0.136-0.248c-0.062-0.037-0.166-0.055-0.311-0.055h-1.689c-0.113,0-0.182,0.014-0.209,0.041
			c-0.018,0.017-0.027,0.047-0.027,0.087c0,0.042,0.008,0.091,0.02,0.148L48.395,33.16z M34.223,33.16
			c0.032,0.168,0.072,0.301,0.125,0.4c0.052,0.1,0.122,0.168,0.213,0.213c0.089,0.043,0.175,0.068,0.253,0.076
			c0.079,0.01,0.197,0.014,0.355,0.014h0.805c0.288,0,0.495-0.047,0.621-0.145c0.127-0.098,0.228-0.303,0.305-0.619l0.843-3.676
			l0.583-2.549h0.082l0.537,2.549L39.75,33.1c0.094,0.324,0.207,0.531,0.335,0.627c0.129,0.092,0.341,0.137,0.634,0.137h0.765
			c0.297,0,0.507-0.041,0.629-0.121c0.122-0.08,0.225-0.283,0.31-0.607l1.967-8.728c0.019-0.058,0.026-0.106,0.026-0.143
			c0-0.034-0.006-0.062-0.02-0.08c-0.027-0.036-0.091-0.054-0.19-0.054h-1.784c-0.122,0-0.207,0.02-0.257,0.057
			c-0.049,0.039-0.083,0.126-0.102,0.262l-0.708,4.063l-0.386,2.35h-0.08l-0.501-2.348l-0.779-3.646
			c-0.067-0.275-0.153-0.467-0.257-0.574c-0.103-0.108-0.285-0.162-0.545-0.162h-0.798c-0.288,0-0.493,0.055-0.614,0.166
			c-0.122,0.109-0.223,0.318-0.304,0.625l-0.741,3.488l-0.533,2.508h-0.094l-0.419-2.482l-0.69-4.016
			c-0.027-0.129-0.072-0.212-0.135-0.248c-0.064-0.037-0.167-0.055-0.311-0.055h-1.69c-0.112,0-0.183,0.014-0.209,0.041
			c-0.019,0.017-0.026,0.047-0.026,0.087c0,0.042,0.006,0.091,0.021,0.148L34.223,33.16z M20.049,33.16
			c0.033,0.168,0.074,0.301,0.125,0.4c0.053,0.1,0.124,0.168,0.214,0.213c0.09,0.043,0.175,0.068,0.253,0.076
			c0.079,0.01,0.197,0.014,0.356,0.014H21.8c0.289,0,0.495-0.047,0.623-0.145c0.125-0.098,0.226-0.303,0.303-0.619l0.842-3.676
			l0.584-2.549h0.082l0.538,2.549l0.806,3.676c0.095,0.324,0.207,0.531,0.335,0.627c0.128,0.092,0.34,0.137,0.633,0.137h0.764
			c0.298,0,0.507-0.041,0.629-0.121c0.122-0.08,0.226-0.283,0.311-0.607l1.967-8.728c0.019-0.058,0.028-0.106,0.028-0.143
			c0-0.034-0.008-0.062-0.02-0.08c-0.028-0.036-0.09-0.054-0.189-0.054H28.25c-0.122,0-0.207,0.02-0.256,0.057
			c-0.051,0.039-0.084,0.126-0.101,0.262l-0.71,4.063l-0.386,2.35h-0.081l-0.502-2.348l-0.777-3.646
			c-0.067-0.275-0.153-0.467-0.257-0.574c-0.103-0.108-0.286-0.162-0.545-0.162h-0.796c-0.289,0-0.493,0.055-0.615,0.166
			c-0.121,0.109-0.223,0.318-0.303,0.625l-0.741,3.488l-0.533,2.508H21.55l-0.418-2.482l-0.69-4.016
			c-0.027-0.129-0.073-0.212-0.135-0.248c-0.063-0.037-0.166-0.055-0.311-0.055h-1.69c-0.112,0-0.182,0.014-0.208,0.041
			c-0.019,0.017-0.028,0.047-0.028,0.087c0,0.042,0.006,0.091,0.021,0.148L20.049,33.16z"/>
		<path clip-path="url(#SVGID_2_)" fill="#FFFFFF" d="M143.286,11.509c0.104-0.407,0.259-0.768,0.464-1.085
			c0.205-0.317,0.476-0.567,0.812-0.748c0.337-0.182,0.723-0.274,1.156-0.274c0.394,0,0.739,0.064,1.037,0.192
			c0.298,0.126,0.539,0.294,0.726,0.502c0.183,0.209,0.332,0.466,0.446,0.773c0.113,0.308,0.189,0.622,0.232,0.942
			c0.043,0.321,0.064,0.677,0.064,1.064c0,0.373-0.026,0.721-0.079,1.046c-0.052,0.326-0.14,0.639-0.263,0.94
			c-0.126,0.302-0.282,0.558-0.473,0.77s-0.434,0.382-0.731,0.51c-0.295,0.127-0.631,0.19-1.01,0.19
			c-0.469,0-0.873-0.084-1.209-0.255c-0.338-0.169-0.602-0.416-0.792-0.739c-0.189-0.323-0.328-0.688-0.413-1.097
			c-0.085-0.408-0.128-0.878-0.128-1.413C143.126,12.354,143.179,11.915,143.286,11.509 M142.907,16.215
			c0.616,0.768,1.533,1.151,2.75,1.151c1.232,0,2.163-0.388,2.793-1.163c0.628-0.774,0.941-1.9,0.941-3.376
			c0-1.408-0.317-2.501-0.952-3.284c-0.636-0.783-1.554-1.174-2.758-1.174c-0.535,0-1.028,0.1-1.479,0.3
			c-0.45,0.2-0.841,0.489-1.172,0.864c-0.33,0.375-0.587,0.848-0.772,1.42c-0.185,0.572-0.276,1.213-0.276,1.922
			C141.982,14.336,142.29,15.448,142.907,16.215 M134.345,11.531l0.566-1.77h0.06l0.584,1.832l0.833,2.604h-2.89L134.345,11.531z
			 M132.938,7.65l0.426,0.196c0.11,0.051,0.189,0.03,0.238-0.061c0.162-0.245,0.349-0.367,0.561-0.367
			c0.169,0,0.431,0.076,0.784,0.228c0.353,0.152,0.63,0.228,0.832,0.228c0.305,0,0.558-0.08,0.758-0.243
			c0.201-0.163,0.377-0.406,0.526-0.729c0.021-0.057,0.021-0.096,0-0.119c-0.021-0.022-0.066-0.044-0.14-0.063l-0.469-0.188
			c-0.069-0.021-0.114-0.027-0.135-0.019c-0.023,0.007-0.051,0.047-0.078,0.114c-0.047,0.11-0.124,0.199-0.225,0.266
			c-0.103,0.067-0.218,0.101-0.348,0.101c-0.137,0-0.378-0.076-0.717-0.229c-0.342-0.151-0.612-0.228-0.815-0.228
			c-0.539,0-0.976,0.301-1.309,0.904c-0.027,0.06-0.035,0.103-0.021,0.13C132.822,7.599,132.866,7.625,132.938,7.65 M131.467,17.225
			h0.852c0.139,0,0.225-0.062,0.261-0.188l0.622-1.843h3.517l0.621,1.843c0.02,0.06,0.045,0.105,0.074,0.134
			c0.031,0.028,0.061,0.046,0.088,0.049c0.029,0.004,0.072,0.005,0.134,0.005h0.822c0.076,0,0.13-0.026,0.154-0.079
			c0.027-0.053,0.027-0.104-0.003-0.158l-2.805-8.012c-0.076-0.198-0.156-0.331-0.232-0.398c-0.08-0.067-0.223-0.1-0.435-0.1h-0.38
			c-0.189,0.008-0.325,0.043-0.405,0.106c-0.082,0.063-0.156,0.194-0.227,0.392l-2.815,8.012
			C131.268,17.146,131.322,17.225,131.467,17.225 M122.69,16.133c0.557,0.719,1.356,1.12,2.404,1.201l-0.263,0.749
			c-0.052,0.154-0.041,0.25,0.038,0.287c0.035,0.036,0.149,0.055,0.339,0.055c0.208,0,0.38,0.036,0.515,0.106
			c0.136,0.071,0.203,0.179,0.203,0.326c0,0.284-0.213,0.425-0.644,0.425c-0.26,0-0.511-0.046-0.749-0.139
			c-0.045-0.024-0.082-0.035-0.112-0.027c-0.03,0.006-0.06,0.042-0.089,0.106l-0.083,0.25c-0.041,0.094-0.017,0.158,0.071,0.194
			c0.309,0.142,0.67,0.213,1.083,0.213c0.421,0,0.741-0.103,0.964-0.308c0.22-0.205,0.332-0.438,0.332-0.702
			c0-0.261-0.095-0.477-0.287-0.652c-0.189-0.173-0.5-0.275-0.931-0.303l0.183-0.547c1.043-0.017,1.892-0.208,2.544-0.573
			c0.065-0.048,0.101-0.087,0.109-0.116c0.007-0.03-0.009-0.099-0.049-0.203l-0.237-0.518c-0.053-0.124-0.149-0.156-0.285-0.094
			c-0.661,0.297-1.32,0.445-1.978,0.445c-1.828,0-2.744-1.103-2.744-3.311c0-0.37,0.033-0.726,0.094-1.066
			c0.063-0.34,0.165-0.664,0.305-0.969c0.141-0.304,0.313-0.57,0.518-0.793c0.205-0.225,0.457-0.401,0.758-0.532
			c0.299-0.13,0.635-0.195,1.002-0.195c0.635,0,1.24,0.129,1.82,0.391c0.073,0.024,0.121,0.03,0.146,0.015s0.052-0.05,0.08-0.106
			l0.285-0.568c0.069-0.133,0.049-0.227-0.062-0.284c-0.657-0.339-1.43-0.507-2.317-0.507c-1.14,0-2.057,0.419-2.753,1.26
			s-1.043,1.958-1.043,3.354C121.857,14.37,122.135,15.416,122.69,16.133 M114.22,11.531l0.565-1.77h0.062l0.583,1.832l0.834,2.604
			h-2.892L114.22,11.531z M111.171,17.078c0,0.098,0.058,0.146,0.172,0.146h0.851c0.139,0,0.226-0.062,0.263-0.188l0.62-1.843h3.517
			l0.619,1.843c0.02,0.06,0.046,0.105,0.078,0.134c0.028,0.028,0.058,0.046,0.088,0.049c0.027,0.004,0.072,0.005,0.133,0.005h0.821
			c0.082,0,0.134-0.026,0.158-0.079c0.016-0.028,0.022-0.055,0.019-0.079c0-0.024-0.009-0.051-0.024-0.08l-2.806-8.012
			c-0.076-0.198-0.153-0.331-0.233-0.398s-0.224-0.1-0.435-0.1h-0.377c-0.191,0.008-0.327,0.043-0.408,0.106
			c-0.081,0.063-0.155,0.194-0.225,0.392l-2.817,8.012C111.176,17.02,111.171,17.05,111.171,17.078 M100.961,13.447
			c0,0.759,0.063,1.386,0.193,1.88s0.348,0.896,0.655,1.204s0.694,0.527,1.158,0.655c0.462,0.127,1.048,0.191,1.755,0.191
			c0.687,0,1.321-0.051,1.905-0.152c0.342-0.069,0.581-0.191,0.721-0.368c0.137-0.175,0.208-0.419,0.208-0.727V8.715
			c0-0.094-0.012-0.153-0.032-0.177s-0.069-0.036-0.146-0.036h-0.731c-0.08,0-0.135,0.013-0.167,0.039
			c-0.029,0.027-0.045,0.084-0.045,0.174v7.477c-0.536,0.101-1.091,0.151-1.663,0.151c-0.382,0-0.715-0.023-0.996-0.073
			c-0.281-0.049-0.521-0.128-0.719-0.243c-0.198-0.113-0.357-0.245-0.481-0.395c-0.125-0.148-0.221-0.342-0.29-0.577
			c-0.067-0.234-0.115-0.481-0.142-0.738c-0.027-0.255-0.04-0.564-0.04-0.925V8.715c0-0.09-0.015-0.146-0.045-0.174
			c-0.032-0.026-0.086-0.039-0.167-0.039h-0.738c-0.076,0-0.131,0.013-0.16,0.039c-0.031,0.027-0.045,0.084-0.045,0.174
			L100.961,13.447z M91.206,9.524h1.655c0.517,0,0.962,0.085,1.334,0.255c0.374,0.171,0.666,0.412,0.874,0.722
			c0.21,0.311,0.363,0.657,0.457,1.04c0.096,0.382,0.143,0.812,0.143,1.292c0,0.508-0.045,0.959-0.139,1.35
			c-0.094,0.392-0.243,0.743-0.447,1.051c-0.204,0.309-0.49,0.546-0.854,0.711c-0.362,0.165-0.801,0.247-1.313,0.247h-1.711V9.524z
			 M90.21,17.08c0.099,0.097,0.259,0.145,0.482,0.145h2.363c0.631,0,1.189-0.106,1.676-0.321c0.485-0.215,0.881-0.519,1.188-0.912
			c0.306-0.393,0.535-0.856,0.689-1.39c0.153-0.535,0.231-1.133,0.231-1.794c0-1.351-0.336-2.411-1.004-3.178
			c-0.668-0.769-1.635-1.151-2.903-1.151l-2.24,0.012c-0.233,0-0.399,0.049-0.491,0.149c-0.094,0.1-0.14,0.263-0.14,0.49v7.477
			C90.062,16.824,90.11,16.983,90.21,17.08 M82.173,11.531l0.566-1.77h0.062l0.584,1.832l0.833,2.604h-2.889L82.173,11.531z
			 M79.126,17.078c0,0.098,0.058,0.146,0.171,0.146h0.852c0.137,0,0.224-0.062,0.261-0.188l0.621-1.843h3.516l0.621,1.843
			c0.02,0.06,0.045,0.105,0.075,0.134c0.031,0.028,0.061,0.046,0.089,0.049c0.028,0.004,0.073,0.005,0.134,0.005h0.822
			c0.08,0,0.134-0.026,0.157-0.079c0.016-0.028,0.022-0.055,0.02-0.079c0-0.024-0.009-0.051-0.025-0.08l-2.806-8.012
			c-0.076-0.198-0.154-0.331-0.234-0.398c-0.078-0.067-0.223-0.1-0.434-0.1h-0.377c-0.191,0.008-0.327,0.043-0.407,0.106
			c-0.081,0.063-0.157,0.194-0.226,0.392l-2.815,8.012C79.13,17.02,79.126,17.05,79.126,17.078 M70.764,9.536h2.171
			c0.299,0,0.561,0.044,0.782,0.131c0.22,0.088,0.389,0.204,0.505,0.35c0.114,0.146,0.198,0.299,0.252,0.46
			c0.053,0.16,0.079,0.329,0.079,0.507c0,0.438-0.143,0.796-0.428,1.076c-0.287,0.28-0.715,0.42-1.281,0.42h-2.081V9.536z
			 M69.634,17.186c0.036,0.027,0.098,0.039,0.187,0.039h0.694c0.096,0,0.16-0.011,0.191-0.036s0.046-0.084,0.046-0.177v-3.534h1.783
			c0.453,0,0.819,0.085,1.097,0.259c0.279,0.172,0.481,0.487,0.612,0.946l0.654,2.378c0.024,0.11,0.1,0.164,0.226,0.164h0.822
			c0.081,0,0.135-0.025,0.158-0.079c0.009-0.023,0.015-0.046,0.019-0.065c0-0.029-0.01-0.055-0.029-0.08l-0.724-2.628
			c-0.094-0.341-0.216-0.612-0.37-0.813c-0.153-0.201-0.389-0.35-0.708-0.449v-0.048c0.442-0.167,0.787-0.438,1.034-0.814
			c0.247-0.377,0.371-0.816,0.371-1.314c0-0.722-0.241-1.312-0.725-1.77c-0.482-0.459-1.116-0.688-1.903-0.688h-2.853
			c-0.236,0-0.399,0.05-0.494,0.149c-0.093,0.099-0.14,0.263-0.14,0.49v7.896C69.583,17.101,69.602,17.159,69.634,17.186
			 M59.685,16.276c0.643,0.726,1.559,1.089,2.748,1.089c0.427,0,0.901-0.046,1.423-0.137c0.521-0.092,0.978-0.259,1.368-0.502
			c0.131-0.069,0.196-0.192,0.196-0.372v-3.138c0-0.321-0.061-0.555-0.178-0.7c-0.119-0.146-0.335-0.245-0.649-0.299
			c-0.265-0.044-0.586-0.066-0.962-0.066c-0.381,0-0.763,0.051-1.146,0.151c-0.384,0.103-0.709,0.24-0.977,0.414
			c-0.113,0.09-0.142,0.18-0.085,0.274l0.237,0.56c0.013,0.021,0.024,0.036,0.034,0.047c0.01,0.014,0.021,0.023,0.033,0.031
			c0.013,0.007,0.022,0.013,0.03,0.015c0.008,0.001,0.021,0.001,0.04-0.003c0.018-0.004,0.032-0.007,0.042-0.012
			c0.01-0.004,0.028-0.011,0.057-0.021c0.03-0.011,0.053-0.018,0.074-0.021c0.559-0.268,1.165-0.401,1.818-0.401
			c0.215,0,0.385,0.013,0.511,0.042v2.798c-0.269,0.114-0.57,0.192-0.904,0.236c-0.335,0.045-0.616,0.068-0.843,0.068
			c-0.41,0-0.77-0.055-1.08-0.167c-0.31-0.11-0.563-0.264-0.763-0.458c-0.199-0.196-0.359-0.436-0.483-0.725
			c-0.123-0.287-0.211-0.591-0.262-0.912c-0.05-0.32-0.076-0.68-0.076-1.077c0-0.478,0.048-0.921,0.146-1.331
			c0.097-0.408,0.248-0.782,0.454-1.124c0.204-0.34,0.484-0.608,0.839-0.804c0.355-0.195,0.768-0.293,1.237-0.293
			c0.724,0,1.365,0.137,1.926,0.41c0.074,0.021,0.124,0.025,0.15,0.011c0.027-0.015,0.057-0.051,0.089-0.109l0.277-0.601
			c0.07-0.129,0.053-0.221-0.048-0.275C64.3,8.545,63.494,8.38,62.542,8.38c-1.172,0-2.102,0.415-2.789,1.244
			c-0.687,0.831-1.031,1.944-1.031,3.343C58.722,14.446,59.043,15.55,59.685,16.276 M51.704,14.245
			c0.023,0.027,0.074,0.043,0.151,0.043h2.891c0.073,0,0.12-0.016,0.142-0.046c0.022-0.031,0.034-0.082,0.034-0.156v-0.845
			c0-0.072-0.012-0.126-0.034-0.155c-0.022-0.031-0.069-0.045-0.142-0.045h-2.891c-0.077,0-0.127,0.014-0.151,0.043
			c-0.025,0.027-0.038,0.081-0.038,0.157v0.845C51.667,14.164,51.679,14.216,51.704,14.245 M41.892,16.586
			c0,0.053,0.028,0.095,0.084,0.127c0.868,0.435,1.919,0.652,3.157,0.652c0.593,0,1.115-0.09,1.568-0.269
			c0.453-0.178,0.816-0.456,1.09-0.834c0.273-0.376,0.411-0.832,0.411-1.368c0-0.214-0.026-0.415-0.076-0.601
			c-0.052-0.187-0.118-0.353-0.198-0.496c-0.081-0.144-0.191-0.284-0.33-0.417c-0.138-0.134-0.273-0.247-0.407-0.339
			c-0.134-0.094-0.299-0.192-0.497-0.293c-0.197-0.101-0.377-0.185-0.539-0.252c-0.163-0.066-0.358-0.143-0.584-0.228
			c-0.199-0.082-0.342-0.139-0.428-0.174c-0.085-0.034-0.208-0.085-0.368-0.152c-0.162-0.066-0.273-0.118-0.338-0.152
			c-0.066-0.036-0.157-0.083-0.277-0.144c-0.119-0.061-0.203-0.109-0.249-0.149c-0.046-0.039-0.109-0.088-0.189-0.149
			c-0.079-0.061-0.133-0.117-0.161-0.17c-0.028-0.053-0.062-0.112-0.099-0.179c-0.035-0.067-0.06-0.137-0.073-0.207
			c-0.011-0.071-0.018-0.149-0.018-0.234c0-0.349,0.14-0.63,0.417-0.846c0.278-0.214,0.663-0.322,1.155-0.322
			c0.75,0,1.516,0.155,2.297,0.463c0.044,0.015,0.077,0.019,0.097,0.009c0.019-0.011,0.042-0.044,0.067-0.101l0.273-0.694
			c0.036-0.101,0.007-0.172-0.085-0.212c-0.763-0.333-1.632-0.499-2.607-0.499c-0.881,0-1.561,0.208-2.04,0.623
			c-0.479,0.417-0.719,0.973-0.719,1.67c0,0.6,0.212,1.082,0.639,1.448c0.426,0.365,1.128,0.725,2.107,1.077
			c0.732,0.268,1.257,0.529,1.578,0.784c0.321,0.255,0.481,0.585,0.481,0.986c0,0.446-0.178,0.788-0.53,1.028
			c-0.353,0.239-0.848,0.358-1.481,0.358c-0.386,0-0.81-0.051-1.271-0.158c-0.462-0.105-0.904-0.253-1.325-0.444
			c-0.093-0.041-0.161-0.015-0.201,0.079l-0.298,0.657C41.903,16.509,41.892,16.55,41.892,16.586 M34,7.547l0.213,0.334
			c0.036,0.048,0.064,0.077,0.082,0.085c0.019,0.008,0.069,0,0.15-0.024l2.11-0.956c0.086-0.036,0.094-0.103,0.025-0.2l-0.522-0.712
			c-0.029-0.043-0.06-0.069-0.092-0.076c-0.032-0.006-0.058-0.004-0.079,0.007c-0.02,0.01-0.05,0.029-0.091,0.057l-1.746,1.26
			c-0.053,0.04-0.083,0.075-0.088,0.106C33.954,7.458,33.967,7.498,34,7.547 M32.175,11.509c0.104-0.407,0.26-0.768,0.465-1.085
			c0.204-0.317,0.476-0.567,0.812-0.748c0.336-0.182,0.722-0.274,1.156-0.274c0.394,0,0.739,0.064,1.036,0.192
			c0.298,0.126,0.54,0.294,0.725,0.502c0.184,0.209,0.333,0.466,0.447,0.773c0.114,0.308,0.191,0.622,0.234,0.942
			c0.042,0.321,0.064,0.677,0.064,1.064c0,0.373-0.026,0.721-0.079,1.046c-0.054,0.326-0.142,0.639-0.265,0.94
			c-0.124,0.302-0.281,0.558-0.472,0.77c-0.191,0.212-0.434,0.382-0.729,0.51c-0.296,0.127-0.633,0.19-1.011,0.19
			c-0.47,0-0.873-0.084-1.209-0.255c-0.338-0.169-0.602-0.416-0.792-0.739c-0.191-0.323-0.33-0.688-0.414-1.097
			c-0.085-0.408-0.128-0.878-0.128-1.413C32.016,12.354,32.07,11.915,32.175,11.509 M31.797,16.215
			c0.616,0.768,1.533,1.151,2.75,1.151c1.233,0,2.164-0.388,2.792-1.163c0.63-0.774,0.944-1.9,0.944-3.376
			c0-1.408-0.317-2.501-0.952-3.284c-0.635-0.783-1.555-1.174-2.759-1.174c-0.535,0-1.029,0.1-1.478,0.3
			c-0.451,0.2-0.842,0.489-1.172,0.864c-0.331,0.375-0.588,0.848-0.773,1.42c-0.185,0.572-0.276,1.213-0.276,1.922
			C30.873,14.336,31.182,15.448,31.797,16.215 M22.225,9.536h2.106c0.332,0,0.62,0.05,0.866,0.149
			c0.245,0.099,0.43,0.232,0.557,0.398c0.126,0.166,0.217,0.335,0.274,0.51c0.056,0.175,0.085,0.354,0.085,0.543
			c0,0.506-0.148,0.896-0.443,1.169c-0.293,0.275-0.732,0.411-1.315,0.411h-2.13V9.536z M21.145,17.186
			c0.035,0.027,0.097,0.039,0.186,0.039h0.645c0.097,0,0.161-0.011,0.192-0.036c0.03-0.024,0.046-0.084,0.046-0.178v-3.295h2.309
			c0.429,0,0.811-0.065,1.148-0.191c0.338-0.127,0.605-0.287,0.802-0.477c0.195-0.188,0.357-0.409,0.484-0.657
			c0.126-0.248,0.213-0.479,0.257-0.693c0.045-0.214,0.066-0.424,0.066-0.63c0-0.766-0.25-1.391-0.751-1.871
			c-0.501-0.48-1.143-0.72-1.923-0.72h-2.893c-0.226,0-0.385,0.051-0.479,0.152c-0.093,0.101-0.14,0.262-0.14,0.486v7.896
			C21.093,17.101,21.111,17.159,21.145,17.186"/>
	</g>
</g>
</svg>
