<?xml version="1.0" encoding="utf-8"?>
<!-- Generator: Adobe Illustrator 16.0.0, SVG Export Plug-In . SVG Version: 6.00 Build 0)  -->
<!DOCTYPE svg PUBLIC "-//W3C//DTD SVG 1.1//EN" "http://www.w3.org/Graphics/SVG/1.1/DTD/svg11.dtd">
<svg version="1.1" id="Layer_1" xmlns="http://www.w3.org/2000/svg" xmlns:xlink="http://www.w3.org/1999/xlink" x="0px" y="0px"
	 width="170px" height="40px" viewBox="0 0 170 40" enable-background="new 0 0 170 40" xml:space="preserve">
<g>
	<polygon fill="#FFDD00" points="156.073,30.193 168.548,30.193 168.548,28.085 158.58,28.085 158.58,11.364 156.073,11.364 	"/>
	<polygon fill="#FFDD00" points="131.51,30.193 134.009,30.193 134.009,13.47 140.291,13.47 140.291,11.364 125.229,11.364 
		125.229,13.47 131.51,13.47 	"/>
	<rect x="120.51" y="11.364" fill="#FFDD00" width="2.502" height="18.829"/>
	<path fill="#FFDD00" d="M116.096,30.193h1.582v-9.915h-8.26v2.106h6.014c0.161,3.43-2.16,6.148-6.037,6.148
		c-4.196,0-6.463-3.59-6.463-7.518c0-4.04,1.898-7.995,6.463-7.995c2.797,0,5.092,1.29,5.594,4.137h2.504
		c-0.715-4.401-3.979-6.247-8.098-6.247c-5.963,0-8.971,4.742-8.971,10.235c0,4.901,3.348,9.49,8.971,9.49
		c2.211,0,4.588-0.813,6.037-2.794L116.096,30.193z"/>
	<rect x="95.592" y="11.364" fill="#FFDD00" width="2.501" height="18.829"/>
	<path fill="#FFDD00" d="M84.344,11.364h-6.461v3.557c0.963,1.785,1.437,3.846,1.437,5.856c0,2.007-0.474,4.074-1.437,5.854v3.562
		h6.461c6.281,0,9.044-3.562,9.044-9.863C93.389,14.26,90.146,11.364,84.344,11.364z M84.558,28.085h-4.177V13.47h4.229
		c4.613,0,6.275,2.715,6.275,7.2C90.887,27.611,86.27,28.085,84.558,28.085z"/>
	<path fill="#7E7D7D" d="M65.676,10.913c-5.998,0-9.02,4.742-9.02,9.862c0,5.117,3.022,9.863,9.02,9.863
		c5.986,0,9.014-4.746,9.014-9.863C74.69,15.655,71.662,10.913,65.676,10.913z M65.676,28.534c-4.596,0-6.522-3.957-6.522-7.759
		c0-3.798,1.926-7.752,6.522-7.752c4.588,0,6.515,3.955,6.515,7.752C72.191,24.577,70.265,28.534,65.676,28.534z"/>
	<path fill="#7E7D7D" d="M54.74,24.995c-0.185-1.845-0.631-3.453-2.818-3.876v-0.051c2.265-0.633,3.267-2.506,3.267-4.777
		c0-3.007-2.185-4.927-5.719-4.927h-8.865v18.829h2.507v-8.045h6.118c2.428,0,2.879,1.556,3.144,3.399
		c0.365,1.851-0.028,3.88,0.682,4.646h2.793C54.792,28.898,54.9,26.845,54.74,24.995z M48.334,20.041h-5.223V13.47h6.225
		c2.348,0,3.354,1.369,3.354,3.22C52.691,19.433,50.681,20.041,48.334,20.041z"/>
	<polygon fill="#7E7D7D" points="38.598,11.364 35.988,11.364 30.554,27.686 30.5,27.686 25.123,11.364 22.404,11.364 
		29.047,30.193 31.902,30.193 	"/>
	<rect x="17.76" y="11.364" fill="#7E7D7D" width="2.505" height="18.829"/>
	<polygon fill="#7E7D7D" points="2.991,30.193 15.463,30.193 15.463,28.085 5.497,28.085 5.497,11.364 2.991,11.364 	"/>
	<path fill="#FFDD00" d="M146.866,11.364h-2.771l-7.357,18.829h2.587l2.11-5.67h0.687c0.61-1.078,1.882-1.826,3.36-1.826
		c1.482,0,2.752,0.748,3.365,1.826h0.555l2.057,5.67h2.77L146.866,11.364z M142.227,22.413l3.189-8.787h0.049l3.145,8.787H142.227z"
		/>
</g>
</svg>
