<?xml version="1.0" encoding="utf-8"?>
<!-- Generator: Adobe Illustrator 16.0.0, SVG Export Plug-In . SVG Version: 6.00 Build 0)  -->
<!DOCTYPE svg PUBLIC "-//W3C//DTD SVG 1.1//EN" "http://www.w3.org/Graphics/SVG/1.1/DTD/svg11.dtd" [
	<!ENTITY ns_extend "http://ns.adobe.com/Extensibility/1.0/">
	<!ENTITY ns_ai "http://ns.adobe.com/AdobeIllustrator/10.0/">
	<!ENTITY ns_graphs "http://ns.adobe.com/Graphs/1.0/">
	<!ENTITY ns_vars "http://ns.adobe.com/Variables/1.0/">
	<!ENTITY ns_imrep "http://ns.adobe.com/ImageReplacement/1.0/">
	<!ENTITY ns_sfw "http://ns.adobe.com/SaveForWeb/1.0/">
	<!ENTITY ns_custom "http://ns.adobe.com/GenericCustomNamespace/1.0/">
	<!ENTITY ns_adobe_xpath "http://ns.adobe.com/XPath/1.0/">
]>
<svg version="1.1" id="Layer_1" xmlns:x="&ns_extend;" xmlns:i="&ns_ai;" xmlns:graph="&ns_graphs;"
	 xmlns="http://www.w3.org/2000/svg" xmlns:xlink="http://www.w3.org/1999/xlink" x="0px" y="0px" width="170px" height="40px"
	 viewBox="0 0 170 40" enable-background="new 0 0 170 40" xml:space="preserve">
<metadata>
	<sfw  xmlns="&ns_sfw;">
		<slices></slices>
		<sliceSourceBounds  width="133.371" height="36.01" x="354.624" y="577.495" bottomLeftOrigin="true"></sliceSourceBounds>
	</sfw>
</metadata>
<g>
	<g>
		<g>
			<polygon fill="#FFDD00" points="75.742,20.001 57.736,38.005 39.732,20.001 57.736,1.995 61.127,5.385 46.513,20.001 
				57.736,31.226 68.962,20.001 65.044,16.083 57.412,23.716 54.021,20.325 65.044,9.303 			"/>
		</g>
		<polygon fill="#FFDD00" points="45.429,22.926 37.129,31.226 22.514,16.61 19.124,20.001 37.129,38.005 48.913,26.221 		"/>
	</g>
	<g>
		<path fill="#FFFFFF" d="M150.388,29.721h2.107V18.818h-2.107V29.721z M146.8,27.232c0,0.901-0.732,1.268-1.297,1.268
			c-0.566,0-0.795-0.52-0.795-1.146c0-0.733,0.336-1.146,1.191-1.329c0.26-0.061,0.611-0.198,0.9-0.412V27.232z M144.845,24.025
			v-0.229c0-0.641,0.336-1.068,0.979-1.068c0.701,0,0.977,0.381,0.977,1.008c0,0.55-0.213,0.794-0.84,0.962l-1.191,0.32
			c-1.451,0.397-2.076,1.023-2.076,2.565c0,1.1,0.52,2.352,1.986,2.352c1.006,0,1.602-0.214,2.09-1.068h0.031
			c0.063,0.274,0.123,0.595,0.26,0.854h2.016c-0.213-0.474-0.26-0.824-0.26-1.587v-4.322c0-1.481-0.473-2.519-2.977-2.519
			c-1.588,0-2.887,0.641-2.887,2.534v0.198H144.845z M135.333,29.721h2.107V24.27c0-0.916,0.396-1.359,1.113-1.359
			c0.627,0,0.902,0.321,0.902,1.146v5.665h2.107v-6.093c0-1.618-0.779-2.335-2.094-2.335c-0.885,0-1.648,0.365-2.09,1.176h-0.031
			v-0.963h-2.016V29.721z M129.835,25.613c0-1.68,0.092-2.886,1.131-2.886c0.855,0,1.131,0.84,1.131,2.886
			c0,2.047-0.275,2.887-1.131,2.887C129.927,28.5,129.835,27.293,129.835,25.613 M127.729,25.613c0,2.855,0.701,4.367,3.236,4.321
			c2.412,0,3.236-1.512,3.236-4.321c0-2.855-0.701-4.366-3.236-4.32C128.554,21.293,127.729,22.804,127.729,25.613 M124.415,29.721
			h2.107v-8.215h-2.107V29.721z M123.239,24.469c0-1.939-1.008-3.176-2.947-3.176s-3.328,0.945-3.328,4.32
			c0,3.299,1.039,4.321,3.146,4.321c2.229,0,3.129-1.207,3.129-3.359h-2.016c0,1.329-0.32,1.925-1.021,1.925
			c-0.947,0-1.131-0.84-1.131-2.871c0-1.894,0.168-2.811,1.207-2.811c0.793,0,0.945,0.856,0.945,1.65H123.239z M113.759,27.232
			c0,0.901-0.734,1.268-1.299,1.268s-0.795-0.52-0.795-1.146c0-0.733,0.336-1.146,1.191-1.329c0.26-0.061,0.611-0.198,0.902-0.412
			V27.232z M111.802,24.025v-0.229c0-0.641,0.338-1.068,0.979-1.068c0.703,0,0.979,0.381,0.979,1.008
			c0,0.55-0.215,0.794-0.842,0.962l-1.191,0.32c-1.449,0.397-2.074,1.023-2.074,2.565c0,1.1,0.518,2.352,1.984,2.352
			c1.008,0,1.604-0.214,2.092-1.068h0.031c0.061,0.274,0.121,0.595,0.258,0.854h2.016c-0.213-0.474-0.26-0.824-0.26-1.587v-4.322
			c0-1.481-0.473-2.519-2.977-2.519c-1.588,0-2.887,0.641-2.887,2.534v0.198H111.802z M108.825,24.469
			c0-1.939-1.008-3.176-2.947-3.176c-1.938,0-3.328,0.945-3.328,4.32c0,3.299,1.039,4.321,3.146,4.321
			c2.229,0,3.129-1.207,3.129-3.359h-2.016c0,1.329-0.32,1.925-1.023,1.925c-0.945,0-1.129-0.84-1.129-2.871
			c0-1.894,0.168-2.811,1.205-2.811c0.795,0,0.947,0.856,0.947,1.65H108.825z M99.435,29.721h2.016v-8.215h-2.107v5.452
			c0,0.915-0.396,1.358-1.115,1.358c-0.625,0-0.899-0.321-0.899-1.146v-5.665h-2.107v6.093c0,1.619,0.778,2.336,2.092,2.336
			c0.886,0,1.649-0.366,2.093-1.176h0.029V29.721z M91.801,29.721h2.015V18.818h-2.106v3.451h-0.031
			c-0.442-0.656-0.977-0.977-1.771-0.977c-1.725,0-2.519,1.267-2.519,4.32s0.794,4.321,2.519,4.321c0.825,0,1.405-0.321,1.863-1.084
			h0.031V29.721z M89.494,25.613c0-1.786,0.184-2.703,1.1-2.703c0.932,0,1.115,0.917,1.115,2.703c0,1.787-0.184,2.703-1.115,2.703
			C89.678,28.316,89.494,27.4,89.494,25.613 M82.318,24.683v-0.321c0-0.763,0.245-1.634,1.084-1.634
			c0.869,0,1.023,0.702,1.068,1.955H82.318z M86.486,25.935v-0.474c0-2.52-0.55-4.168-3.008-4.168c-2.84,0-3.268,2.045-3.268,4.244
			c0,2.046,0.122,4.397,3.176,4.397c1.984,0,2.901-1.068,2.978-2.977h-1.894c-0.121,1.007-0.412,1.542-1.114,1.542
			c-0.779,0-1.039-0.947-1.039-1.909v-0.656H86.486z"/>
		<g>
			<path fill="#FFFFFF" d="M91.047,11.814c-0.553,0-1.085,0.277-1.393,0.88h-0.02v-0.757h-0.553v5.434h0.613v-3.653
				c0-0.839,0.482-1.392,1.197-1.392c0.625,0,0.932,0.369,0.932,1.116v3.929h0.613v-4.104
				C92.438,12.245,91.875,11.814,91.047,11.814z"/>
			<path fill="#FFFFFF" d="M100.348,15.59c0,0.838-0.491,1.391-1.187,1.391c-0.646,0-0.941-0.337-0.941-1.218v-3.827h-0.615v4.103
				c0,1.023,0.564,1.454,1.393,1.454c0.552,0,1.084-0.276,1.391-0.88h0.021v0.757h0.553v-5.434h-0.614V15.59z"/>
			<path fill="#FFFFFF" d="M95.682,14.496l-0.89-0.338c-0.614-0.235-0.737-0.532-0.737-0.911c0-0.542,0.275-0.921,0.992-0.921
				c0.563,0,0.89,0.297,0.89,1.003v0.154h0.615v-0.154c0-0.993-0.471-1.515-1.494-1.515c-0.921,0-1.616,0.451-1.616,1.566
				c0,0.543,0.275,0.993,1.043,1.289l0.859,0.338c0.542,0.215,0.737,0.522,0.737,1.003c0,0.604-0.42,0.972-1.075,0.972
				c-0.695,0-1.044-0.409-1.044-1.207v-0.144h-0.613v0.174c0,1.228,0.553,1.688,1.667,1.688c1.146,0,1.68-0.686,1.68-1.617
				C96.695,15.283,96.418,14.772,95.682,14.496z"/>
			<path fill="#FFFFFF" d="M86.309,11.814c-1.197,0-1.872,0.952-1.872,2.835c0,1.894,0.675,2.845,1.872,2.845
				c1.198,0,1.873-0.951,1.873-2.845C88.182,12.766,87.507,11.814,86.309,11.814z M86.309,16.981c-0.686,0-1.217-0.593-1.217-2.333
				c0-1.729,0.531-2.323,1.217-2.323s1.219,0.594,1.219,2.323C87.527,16.389,86.994,16.981,86.309,16.981z"/>
			<path fill="#FFFFFF" d="M82.144,12.326c0.655,0,0.993,0.379,1.064,1.229h0.614c-0.062-1.115-0.654-1.74-1.678-1.74
				c-1.197,0-1.873,0.952-1.873,2.835c0,2.046,0.675,2.845,1.822,2.845c1.002,0,1.637-0.768,1.729-1.923h-0.614
				c-0.103,0.951-0.5,1.411-1.125,1.411c-0.573,0-1.156-0.275-1.156-2.322C80.926,12.735,81.48,12.326,82.144,12.326z"/>
			<rect x="113.741" y="10.064" fill="#FFFFFF" width="0.613" height="1.044"/>
			<rect x="113.741" y="11.937" fill="#FFFFFF" width="0.613" height="5.434"/>
			<path fill="#FFFFFF" d="M111.491,12.786h-0.021v-0.849h-0.613v5.434h0.613v-3.397c0-1.054,0.635-1.545,1.311-1.545
				c0.092,0,0.193,0.01,0.297,0.031v-0.614c-0.072-0.021-0.145-0.031-0.215-0.031C112.226,11.814,111.726,12.183,111.491,12.786z"/>
			<path fill="#FFFFFF" d="M119.001,16.92c-0.215,0-0.318-0.143-0.318-0.45v-3.213c0-0.86-0.408-1.443-1.533-1.443
				c-1.146,0-1.678,0.625-1.678,1.74h0.613c0-0.789,0.316-1.229,1.043-1.229c0.553,0,0.941,0.246,0.941,0.941
				c0,0.635-0.092,0.737-0.521,0.86l-1.156,0.327c-0.768,0.215-1.096,0.788-1.096,1.505c0,0.94,0.43,1.535,1.383,1.535
				c0.604,0,1.156-0.205,1.4-0.921h0.021v0.184c0,0.563,0.307,0.676,0.787,0.676c0.082,0,0.174-0.021,0.287-0.062V16.92H119.001z
				 M118.069,15.447c0,0.972-0.512,1.535-1.258,1.535c-0.533,0-0.859-0.429-0.859-1.064c0-0.645,0.316-0.961,0.93-1.125l0.512-0.133
				c0.246-0.062,0.594-0.174,0.656-0.358h0.02V15.447z"/>
			<path fill="#FFFFFF" d="M108.083,11.814c-1.197,0-1.871,0.952-1.871,2.835c0,1.894,0.674,2.845,1.871,2.845
				s1.873-0.951,1.873-2.845C109.956,12.766,109.28,11.814,108.083,11.814z M108.083,16.981c-0.686,0-1.217-0.593-1.217-2.333
				c0-1.729,0.531-2.323,1.217-2.323s1.217,0.594,1.217,2.323C109.3,16.389,108.769,16.981,108.083,16.981z"/>
			<rect x="102.188" y="10.064" fill="#FFFFFF" width="0.615" height="7.306"/>
			<path fill="#FFFFFF" d="M104.87,10.433h-0.614v1.504h-0.747v0.512h0.747v4.031c0,0.727,0.317,0.952,1.147,0.952
				c0.203,0,0.357-0.021,0.428-0.062v-0.511c-0.133,0.04-0.256,0.061-0.377,0.061c-0.398,0-0.584-0.143-0.584-0.573v-3.898h0.961
				v-0.512h-0.961V10.433z"/>
		</g>
	</g>
	<rect x="124.415" y="18.493" fill="#FFDD00" width="2.107" height="1.802"/>
</g>
</svg>
