<?xml version="1.0" encoding="utf-8"?>
<!-- Generator: Adobe Illustrator 16.0.0, SVG Export Plug-In . SVG Version: 6.00 Build 0)  -->
<!DOCTYPE svg PUBLIC "-//W3C//DTD SVG 1.1//EN" "http://www.w3.org/Graphics/SVG/1.1/DTD/svg11.dtd">
<svg version="1.1" id="Layer_1" xmlns="http://www.w3.org/2000/svg" xmlns:xlink="http://www.w3.org/1999/xlink" x="0px" y="0px"
	 width="170px" height="40px" viewBox="0 0 170 40" enable-background="new 0 0 170 40" xml:space="preserve">
<g>
	<polygon fill="#FFDD00" points="155.073,29.193 167.548,29.193 167.548,27.085 157.58,27.085 157.58,10.364 155.073,10.364 	"/>
	<polygon fill="#FFDD00" points="130.51,29.193 133.009,29.193 133.009,12.47 139.291,12.47 139.291,10.364 124.229,10.364 
		124.229,12.47 130.51,12.47 	"/>
	<rect x="119.51" y="10.364" fill="#FFDD00" width="2.502" height="18.829"/>
	<path fill="#FFDD00" d="M115.096,29.193h1.582v-9.915h-8.26v2.106h6.014c0.161,3.43-2.16,6.148-6.037,6.148
		c-4.196,0-6.463-3.59-6.463-7.518c0-4.04,1.898-7.995,6.463-7.995c2.797,0,5.092,1.29,5.594,4.137h2.504
		c-0.715-4.401-3.979-6.247-8.098-6.247c-5.963,0-8.971,4.742-8.971,10.235c0,4.901,3.348,9.49,8.971,9.49
		c2.211,0,4.588-0.813,6.037-2.794L115.096,29.193z"/>
	<rect x="94.592" y="10.364" fill="#FFDD00" width="2.501" height="18.829"/>
	<path fill="#FFDD00" d="M83.344,10.364h-6.461v3.557c0.963,1.785,1.437,3.846,1.437,5.856c0,2.007-0.474,4.074-1.437,5.854v3.562
		h6.461c6.281,0,9.044-3.562,9.044-9.863C92.389,13.26,89.146,10.364,83.344,10.364z M83.558,27.085h-4.177V12.47h4.229
		c4.613,0,6.275,2.715,6.275,7.2C89.887,26.611,85.27,27.085,83.558,27.085z"/>
	<path fill="#FFFFFF" d="M64.676,9.913c-5.998,0-9.02,4.742-9.02,9.862c0,5.117,3.022,9.863,9.02,9.863
		c5.986,0,9.014-4.746,9.014-9.863C73.69,14.655,70.662,9.913,64.676,9.913z M64.676,27.534c-4.596,0-6.522-3.957-6.522-7.759
		c0-3.798,1.926-7.752,6.522-7.752c4.588,0,6.515,3.955,6.515,7.752C71.191,23.577,69.265,27.534,64.676,27.534z"/>
	<path fill="#FFFFFF" d="M53.74,23.995c-0.185-1.845-0.631-3.453-2.818-3.876v-0.051c2.265-0.633,3.267-2.506,3.267-4.777
		c0-3.007-2.185-4.927-5.719-4.927h-8.865v18.829h2.507v-8.045h6.118c2.428,0,2.879,1.556,3.144,3.399
		c0.365,1.851-0.028,3.88,0.682,4.646h2.793C53.792,27.898,53.9,25.845,53.74,23.995z M47.334,19.041h-5.223V12.47h6.225
		c2.348,0,3.354,1.369,3.354,3.22C51.691,18.433,49.681,19.041,47.334,19.041z"/>
	<polygon fill="#FFFFFF" points="37.598,10.364 34.988,10.364 29.554,26.686 29.5,26.686 24.123,10.364 21.404,10.364 
		28.047,29.193 30.902,29.193 	"/>
	<rect x="16.76" y="10.364" fill="#FFFFFF" width="2.505" height="18.829"/>
	<polygon fill="#FFFFFF" points="1.991,29.193 14.463,29.193 14.463,27.085 4.497,27.085 4.497,10.364 1.991,10.364 	"/>
	<path fill="#FFDD00" d="M145.866,10.364h-2.771l-7.357,18.829h2.587l2.11-5.67h0.687c0.61-1.078,1.882-1.826,3.36-1.826
		c1.482,0,2.752,0.748,3.365,1.826h0.555l2.057,5.67h2.77L145.866,10.364z M141.227,21.413l3.189-8.787h0.049l3.145,8.787H141.227z"
		/>
</g>
</svg>
