<?xml version="1.0" encoding="utf-8"?>
<!-- Generator: Adobe Illustrator 16.0.0, SVG Export Plug-In . SVG Version: 6.00 Build 0)  -->
<!DOCTYPE svg PUBLIC "-//W3C//DTD SVG 1.1//EN" "http://www.w3.org/Graphics/SVG/1.1/DTD/svg11.dtd">
<svg version="1.1" id="Layer_1" xmlns="http://www.w3.org/2000/svg" xmlns:xlink="http://www.w3.org/1999/xlink" x="0px" y="0px"
	 width="170px" height="40px" viewBox="0 0 170 40" enable-background="new 0 0 170 40" xml:space="preserve">
<path fill="#F6921E" d="M78.655,4.017v12.576c0,3.584-2.927,6.511-6.512,6.511H61.088c-3.585,0-6.512-2.927-6.512-6.511V4.017h3.932
	v12.576c0,1.414,1.165,2.579,2.58,2.579h11.055c1.416,0,2.581-1.165,2.581-2.579V4.017H78.655z"/>
<path fill="#F6921E" d="M81.234,23.102V10.526c0-3.585,2.926-6.511,6.51-6.511h11.057c3.584,0,6.51,2.926,6.51,6.511v12.576h-3.93
	V10.526c0-1.416-1.165-2.58-2.58-2.58H87.744c-1.415,0-2.58,1.165-2.58,2.58v12.576H81.234L81.234,23.102z"/>
<path fill="#F6921E" d="M131.093,23.129h-17.299c-3.528,0-6.41-2.881-6.41-6.411v-6.264c0-3.53,2.882-6.411,6.41-6.411h17.299v3.871
	h-17.299c-1.394,0-2.541,1.147-2.541,2.54v1.339h19.706v3.931h-19.706v0.994c0,1.393,1.147,2.54,2.541,2.54h17.299V23.129z"/>
<path fill="#F6921E" d="M134.282,23.063v-12.51c0-3.584,2.926-6.511,6.511-6.511h17.566v3.931h-17.566
	c-1.415,0-2.58,1.165-2.58,2.58v1.24h20.047v3.931h-20.047v7.338H134.282L134.282,23.063z"/>
<path fill="#F6921E" d="M15.059,14.435c-0.179-0.929-0.749-1.597-2.164-1.7v12.597c-0.055,2.761,0.878,5.35,4.328,7.495
	c4.276,1.39,8.552,2.78,12.828,4.173c3.208,1.02,6.117,1.143,8.5-0.311c2.371-1.442,4.74-2.883,7.11-4.326V16.521
	c0.079-1.545-1.34-0.778-2.009-0.309c-1.854,1.159-3.709,2.318-5.564,3.477c-1.717,0.775-2.533,2.859-2.396,6.105v4.715
	c-0.168,4.388-2.69,5.376-6.568,4.403c-3.297-1.082-6.595-2.162-9.892-3.244c-2.471-0.891-4.174-2.741-4.173-6.723V14.435"/>
<path fill="#F05A28" d="M16.914,14.78c-0.225-1.714-1.163-2.802-3.091-3.013l9.831-7.392c0.166,0.166,0.369,0.298,0.604,0.384
	l1.552,0.563l-5.473,4.464c-0.245,0.175-0.445,0.419-0.567,0.721c-0.342,0.843,0.065,1.804,0.909,2.146l4.013,1.628l0.002-0.006
	c0.549,0.222,1.199,0.138,1.68-0.271l5.86-4.99c0.257,0.102,0.513,0.198,0.767,0.293l-4.657,3.665l0.001,0.001
	c-0.214,0.169-0.391,0.392-0.503,0.663c-0.118,0.284-0.15,0.582-0.109,0.867l0.04,0.189c0.127,0.477,0.467,0.893,0.959,1.096
	c0.698,0.29,1.349,0.493,1.998,0.695c0.581,0.182,1.161,0.364,1.685,0.578c0.521,0.228,1.149,0.179,1.64-0.185l8.972-6.664
	c0.339-0.251,0.722-0.482,1.226-0.652c0.539-0.182,1.228-0.308,2.15-0.347c0.407,0.019,0.8-0.116,1.108-0.363
	c0.973,0.573,1.522,1.82,1.628,3.612v15.772c-0.619,1.056-1.236,2.111-1.855,3.171V14.78c0.076-2.497-0.796-3.194-2.782-1.777
	l-8.422,5.333c-2.151,1.421-3.206,3.344-3.09,5.795v6.568c-0.116,2.013-0.451,3.244-3.247,2.164
	c-3.529-1.03-7.059-2.063-10.586-3.092c-1.609-0.758-2.487-1.922-2.241-3.709V14.78"/>
<path fill="#F6921E" d="M29.098,4.764c-1.427-0.518-2.853-1.035-4.278-1.552c0.995-1.136,2.36-1.769,4.77-0.984
	c5.629,1.779,11.258,3.558,16.886,5.337c-2.331,0.076-3.513,0.644-4.429,1.326l-8.973,6.664c-1.25-0.518-2.462-0.771-3.711-1.288
	l6.929-5.452c-1.389-0.606-2.966-1.099-4.355-1.704c-2.208,1.88-4.417,3.761-6.625,5.642l-4.014-1.628L29.098,4.764z"/>
<rect x="54.576" y="27.18" fill="#FAAF40" width="79.8" height="9.563"/>
<rect x="134.376" y="27.18" fill="#F6921E" width="12.156" height="9.563"/>
<rect x="146.532" y="27.18" fill="#F05A28" width="12.157" height="9.563"/>
<path fill="#FFFFFF" d="M126.087,30.386c0-0.345,0.095-0.629,0.283-0.845c0.188-0.217,0.463-0.327,0.819-0.327h2.599l0.099,0.076
	v0.845l-0.076,0.075h-2.535l-0.076,0.085v1.042l0.076,0.077h2.353l0.075,0.075v0.883l-0.075,0.075h-2.353l-0.076,0.078v1.109
	l0.076,0.076h2.535l0.076,0.075v0.845l-0.076,0.076h-2.965c-0.092,0-0.185-0.023-0.275-0.071c-0.094-0.05-0.174-0.112-0.244-0.188
	c-0.073-0.076-0.129-0.161-0.174-0.256c-0.043-0.096-0.064-0.191-0.064-0.289L126.087,30.386L126.087,30.386z"/>
<path fill="#FFFFFF" d="M139.672,29.667c0.061-0.199,0.174-0.325,0.337-0.377c0.163-0.049,0.386-0.076,0.666-0.076
	c0.292,0,0.521,0.027,0.687,0.076c0.166,0.052,0.279,0.178,0.342,0.377l1.539,4.995l-0.053,0.046h-1.004l-0.101-0.069l-0.405-1.324
	l-0.101-0.076h-1.802l-0.1,0.084l-0.406,1.311l-0.1,0.076h-0.995l-0.062-0.046L139.672,29.667z M140.768,30.35l-0.039-0.111
	l-0.054-0.027c-0.026,0-0.054,0.046-0.084,0.141l-0.536,1.746l-0.005,0.021l-0.002,0.017l0.062,0.054h1.142l0.062-0.054
	l-0.004-0.017l-0.004-0.021L140.768,30.35z"/>
<path fill="#FFFFFF" d="M150.428,34.632v-5.341l0.078-0.077h2.611c0.291,0,0.544,0.058,0.755,0.171
	c0.212,0.111,0.388,0.258,0.524,0.436c0.14,0.181,0.24,0.385,0.303,0.613c0.064,0.229,0.096,0.463,0.096,0.696v1.839
	c0,0.2-0.031,0.402-0.096,0.608c-0.063,0.21-0.163,0.396-0.303,0.563c-0.138,0.17-0.313,0.307-0.521,0.41
	c-0.211,0.104-0.461,0.156-0.753,0.156h-2.618L150.428,34.632z M151.539,33.636l0.076,0.076h1.371c0.082,0,0.166-0.021,0.252-0.065
	c0.08-0.041,0.158-0.1,0.225-0.166c0.066-0.069,0.12-0.146,0.16-0.232c0.042-0.084,0.063-0.169,0.063-0.255v-2.038
	c0-0.092-0.022-0.184-0.067-0.271c-0.048-0.09-0.106-0.17-0.177-0.236c-0.072-0.07-0.152-0.127-0.242-0.17s-0.18-0.065-0.271-0.065
	h-1.312l-0.076,0.076L151.539,33.636L151.539,33.636z"/>
<path fill="#FFFFFF" d="M57.164,29.448v1.098c0,0.415,0.184,0.593,0.431,0.593c0.276,0,0.451-0.183,0.451-0.593v-1.098h0.242v1.082
	c0,0.567-0.3,0.803-0.701,0.803c-0.379,0-0.666-0.217-0.666-0.791v-1.094H57.164z"/>
<path fill="#FFFFFF" d="M58.539,31.302v-1.854H58.8l0.593,0.938c0.138,0.22,0.246,0.413,0.333,0.604l0.005-0.004
	c-0.021-0.247-0.027-0.473-0.027-0.762v-0.776h0.225v1.854h-0.241l-0.59-0.938c-0.128-0.206-0.252-0.418-0.346-0.62l-0.008,0.003
	c0.013,0.232,0.02,0.457,0.02,0.766v0.791L58.539,31.302L58.539,31.302z"/>
<rect x="60.184" y="29.448" fill="#FFFFFF" width="0.239" height="1.854"/>
<path fill="#FFFFFF" d="M60.676,29.475c0.146-0.022,0.318-0.039,0.509-0.039c0.344,0,0.588,0.08,0.75,0.231
	c0.166,0.151,0.262,0.365,0.262,0.665c0,0.301-0.094,0.55-0.268,0.72c-0.173,0.173-0.459,0.269-0.819,0.269
	c-0.17,0-0.313-0.01-0.434-0.022V29.475z M60.914,31.111c0.061,0.012,0.149,0.016,0.242,0.016c0.512,0,0.789-0.286,0.789-0.788
	c0.003-0.437-0.244-0.713-0.75-0.713c-0.125,0-0.218,0.011-0.282,0.024L60.914,31.111L60.914,31.111z"/>
<path fill="#FFFFFF" d="M62.604,30.72l-0.192,0.582h-0.248l0.629-1.853h0.289l0.633,1.853h-0.256l-0.198-0.582H62.604z
	 M63.211,30.531L63.029,30c-0.041-0.121-0.069-0.232-0.097-0.34h-0.005c-0.028,0.111-0.058,0.223-0.093,0.337l-0.183,0.534H63.211z"
	/>
<path fill="#FFFFFF" d="M63.822,29.475c0.146-0.022,0.318-0.039,0.508-0.039c0.343,0,0.589,0.08,0.751,0.231
	c0.165,0.151,0.261,0.365,0.261,0.665c0,0.301-0.093,0.55-0.267,0.72c-0.174,0.173-0.459,0.269-0.819,0.269
	c-0.171,0-0.314-0.01-0.435-0.022L63.822,29.475L63.822,29.475z M64.06,31.111c0.061,0.012,0.148,0.016,0.242,0.016
	c0.512,0,0.789-0.286,0.789-0.788c0.003-0.437-0.244-0.713-0.75-0.713c-0.124,0-0.217,0.011-0.281,0.024V31.111z"/>
<polygon fill="#FFFFFF" points="66.448,30.434 65.727,30.434 65.727,31.102 66.53,31.102 66.53,31.302 65.488,31.302 65.488,29.448 
	66.489,29.448 66.489,29.65 65.727,29.65 65.727,30.234 66.448,30.234 "/>
<path fill="#FFFFFF" d="M67.094,29.475c0.146-0.022,0.319-0.039,0.508-0.039c0.344,0,0.589,0.08,0.751,0.231
	c0.164,0.151,0.26,0.365,0.26,0.665c0,0.301-0.093,0.55-0.266,0.72c-0.174,0.173-0.46,0.269-0.82,0.269
	c-0.171,0-0.314-0.01-0.435-0.022v-1.823H67.094z M67.333,31.111c0.06,0.012,0.148,0.016,0.242,0.016
	c0.511,0,0.789-0.286,0.789-0.788c0.002-0.437-0.244-0.713-0.751-0.713c-0.124,0-0.217,0.011-0.28,0.024V31.111z"/>
<polygon fill="#FFFFFF" points="69.72,30.434 68.999,30.434 68.999,31.102 69.802,31.102 69.802,31.302 68.76,31.302 68.76,29.448 
	69.761,29.448 69.761,29.65 68.999,29.65 68.999,30.234 69.72,30.234 "/>
<polygon fill="#FFFFFF" points="71.326,30.434 70.605,30.434 70.605,31.102 71.408,31.102 71.408,31.302 70.366,31.302 
	70.366,29.448 71.367,29.448 71.367,29.65 70.605,29.65 70.605,30.234 71.326,30.234 "/>
<path fill="#FFFFFF" d="M71.554,31.302v-1.854h0.262l0.593,0.938c0.138,0.22,0.246,0.413,0.333,0.604l0.005-0.004
	c-0.021-0.247-0.027-0.473-0.027-0.762v-0.776h0.225v1.854h-0.242l-0.588-0.938c-0.13-0.206-0.253-0.418-0.347-0.62l-0.008,0.003
	c0.014,0.232,0.02,0.457,0.02,0.766v0.791L71.554,31.302L71.554,31.302z"/>
<path fill="#FFFFFF" d="M73.165,31.012c0.107,0.066,0.264,0.12,0.429,0.12c0.245,0,0.388-0.128,0.388-0.315
	c0-0.174-0.1-0.271-0.35-0.368c-0.302-0.108-0.489-0.265-0.489-0.525c0-0.289,0.239-0.505,0.599-0.505
	c0.19,0,0.328,0.047,0.41,0.092l-0.066,0.195c-0.061-0.033-0.184-0.087-0.352-0.087c-0.254,0-0.349,0.149-0.349,0.276
	c0,0.172,0.112,0.258,0.368,0.356c0.313,0.122,0.473,0.272,0.473,0.547c0,0.284-0.212,0.533-0.649,0.533
	c-0.178,0-0.374-0.054-0.472-0.119L73.165,31.012z"/>
<rect x="74.389" y="29.448" fill="#FFFFFF" width="0.239" height="1.854"/>
<path fill="#FFFFFF" d="M74.881,31.302v-1.854h0.261l0.593,0.938c0.138,0.22,0.245,0.413,0.333,0.604l0.005-0.004
	c-0.021-0.247-0.027-0.473-0.027-0.762v-0.776h0.225v1.854H76.03l-0.589-0.938c-0.129-0.206-0.252-0.418-0.346-0.62l-0.009,0.003
	c0.015,0.232,0.02,0.457,0.02,0.766v0.791L74.881,31.302L74.881,31.302z"/>
<path fill="#FFFFFF" d="M78.11,30.355c0,0.639-0.388,0.976-0.861,0.976c-0.49,0-0.834-0.377-0.834-0.938
	c0-0.59,0.367-0.976,0.862-0.976C77.783,29.417,78.11,29.807,78.11,30.355 M76.671,30.386c0,0.396,0.215,0.753,0.591,0.753
	c0.379,0,0.594-0.35,0.594-0.771c0-0.368-0.192-0.753-0.591-0.753C76.869,29.613,76.671,29.979,76.671,30.386"/>
<path fill="#FFFFFF" d="M78.641,31.012c0.106,0.066,0.263,0.12,0.428,0.12c0.245,0,0.389-0.128,0.389-0.315
	c0-0.174-0.1-0.271-0.35-0.368c-0.303-0.108-0.49-0.265-0.49-0.525c0-0.289,0.239-0.505,0.6-0.505c0.19,0,0.327,0.047,0.41,0.092
	l-0.066,0.195c-0.06-0.033-0.184-0.087-0.351-0.087c-0.254,0-0.349,0.149-0.349,0.276c0,0.172,0.112,0.258,0.367,0.356
	c0.314,0.122,0.474,0.272,0.474,0.547c0,0.284-0.212,0.533-0.649,0.533c-0.179,0-0.374-0.054-0.473-0.119L78.641,31.012z"/>
<path fill="#FFFFFF" d="M80.103,29.448v1.098c0,0.415,0.184,0.593,0.432,0.593c0.275,0,0.451-0.183,0.451-0.593v-1.098h0.243v1.082
	c0,0.567-0.3,0.803-0.702,0.803c-0.379,0-0.667-0.217-0.667-0.791v-1.094H80.103z"/>
<path fill="#FFFFFF" d="M81.478,29.471c0.116-0.02,0.268-0.035,0.46-0.035c0.236,0,0.41,0.057,0.52,0.154
	c0.102,0.087,0.163,0.223,0.163,0.389s-0.05,0.299-0.144,0.396c-0.127,0.135-0.332,0.202-0.566,0.202
	c-0.072,0-0.139-0.002-0.193-0.016v0.741h-0.239L81.478,29.471L81.478,29.471z M81.717,30.365c0.053,0.014,0.119,0.019,0.198,0.019
	c0.288,0,0.464-0.14,0.464-0.396c0-0.243-0.172-0.361-0.436-0.361c-0.105,0-0.186,0.007-0.227,0.02L81.717,30.365L81.717,30.365z"/>
<polygon fill="#FFFFFF" points="83.736,30.434 83.016,30.434 83.016,31.102 83.818,31.102 83.818,31.302 82.775,31.302 
	82.775,29.448 83.776,29.448 83.776,29.65 83.016,29.65 83.016,30.234 83.736,30.234 "/>
<path fill="#FFFFFF" d="M83.964,29.475c0.12-0.025,0.294-0.039,0.46-0.039c0.254,0,0.42,0.047,0.535,0.15
	c0.094,0.084,0.146,0.209,0.146,0.352c0,0.246-0.154,0.408-0.35,0.474v0.01c0.143,0.05,0.229,0.183,0.271,0.374
	c0.061,0.258,0.105,0.438,0.145,0.51h-0.248c-0.03-0.053-0.071-0.213-0.124-0.445c-0.056-0.252-0.153-0.351-0.371-0.358h-0.226
	v0.806h-0.239L83.964,29.475L83.964,29.475z M84.203,30.318h0.244c0.257,0,0.418-0.142,0.418-0.354c0-0.238-0.172-0.343-0.426-0.347
	c-0.115,0-0.197,0.01-0.236,0.021V30.318z"/>
<rect x="85.279" y="29.448" fill="#FFFFFF" width="0.239" height="1.854"/>
<path fill="#FFFFFF" d="M87.354,30.355c0,0.639-0.388,0.976-0.86,0.976c-0.489,0-0.833-0.377-0.833-0.938
	c0-0.59,0.365-0.976,0.861-0.976C87.027,29.417,87.354,29.807,87.354,30.355 M85.916,30.386c0,0.396,0.215,0.753,0.592,0.753
	c0.379,0,0.594-0.35,0.594-0.771c0-0.368-0.192-0.753-0.592-0.753C86.113,29.613,85.916,29.979,85.916,30.386"/>
<path fill="#FFFFFF" d="M87.501,29.475c0.119-0.025,0.294-0.039,0.458-0.039c0.256,0,0.422,0.047,0.537,0.15
	c0.094,0.084,0.145,0.209,0.145,0.352c0,0.246-0.152,0.408-0.35,0.474v0.01c0.145,0.05,0.23,0.183,0.273,0.374
	c0.06,0.258,0.104,0.438,0.144,0.51H88.46c-0.03-0.053-0.071-0.213-0.124-0.445c-0.055-0.252-0.154-0.351-0.371-0.358h-0.227v0.806
	h-0.237V29.475z M87.738,30.318h0.244c0.258,0,0.418-0.142,0.418-0.354c0-0.238-0.172-0.343-0.426-0.347
	c-0.115,0-0.197,0.01-0.236,0.021V30.318z"/>
<path fill="#FFFFFF" d="M56.925,32.773c0.146-0.022,0.319-0.039,0.508-0.039c0.344,0,0.589,0.08,0.751,0.23
	c0.164,0.152,0.261,0.365,0.261,0.666c0,0.303-0.094,0.551-0.266,0.721c-0.174,0.172-0.46,0.267-0.82,0.267
	c-0.17,0-0.313-0.007-0.435-0.021L56.925,32.773L56.925,32.773z M57.164,34.412c0.061,0.011,0.148,0.014,0.242,0.014
	c0.511,0,0.79-0.285,0.79-0.785c0.001-0.438-0.245-0.716-0.752-0.716c-0.123,0-0.216,0.011-0.28,0.024V34.412z"/>
<polygon fill="#FFFFFF" points="59.551,33.732 58.831,33.732 58.831,34.4 59.633,34.4 59.633,34.604 58.591,34.604 58.591,32.748 
	59.592,32.748 59.592,32.949 58.831,32.949 58.831,33.537 59.551,33.537 "/>
<polygon fill="#FFFFFF" points="60.197,32.75 61.195,32.75 61.195,32.949 60.436,32.949 60.436,33.563 61.138,33.563 61.138,33.764 
	60.436,33.764 60.436,34.604 60.197,34.604 "/>
<polygon fill="#FFFFFF" points="62.331,33.732 61.611,33.732 61.611,34.4 62.413,34.4 62.413,34.604 61.371,34.604 61.371,32.748 
	62.372,32.748 62.372,32.949 61.611,32.949 61.611,33.537 62.331,33.537 "/>
<rect x="62.56" y="32.748" fill="#FFFFFF" width="0.238" height="1.855"/>
<path fill="#FFFFFF" d="M63.051,32.773c0.121-0.023,0.294-0.039,0.459-0.039c0.255,0,0.421,0.049,0.536,0.15
	c0.093,0.082,0.146,0.209,0.146,0.354c0,0.243-0.154,0.405-0.349,0.471v0.01c0.143,0.05,0.229,0.183,0.272,0.374
	c0.061,0.258,0.105,0.438,0.144,0.51H64.01c-0.029-0.053-0.07-0.213-0.123-0.443c-0.055-0.258-0.155-0.354-0.371-0.359H63.29v0.805
	h-0.239V32.773z M63.291,33.618h0.245c0.255,0,0.417-0.142,0.417-0.354c0-0.238-0.173-0.343-0.426-0.346
	c-0.116,0-0.198,0.012-0.236,0.021V33.618z"/>
<path fill="#FFFFFF" d="M64.679,34.021l-0.192,0.582H64.24l0.629-1.854h0.289l0.633,1.854h-0.256l-0.198-0.582H64.679z
	 M65.287,33.832L65.105,33.3c-0.042-0.12-0.069-0.231-0.096-0.34h-0.006c-0.027,0.11-0.058,0.224-0.093,0.337l-0.181,0.535H65.287z"
	/>
<path fill="#FFFFFF" d="M66.315,32.773c0.146-0.022,0.32-0.039,0.509-0.039c0.344,0,0.589,0.08,0.751,0.23
	c0.165,0.152,0.261,0.365,0.261,0.666c0,0.303-0.094,0.551-0.267,0.721c-0.173,0.172-0.459,0.267-0.819,0.267
	c-0.171,0-0.313-0.007-0.435-0.021V32.773z M66.555,34.412c0.06,0.011,0.149,0.014,0.242,0.014c0.511,0,0.789-0.285,0.789-0.785
	c0.003-0.438-0.244-0.716-0.75-0.716c-0.125,0-0.217,0.011-0.281,0.024V34.412z"/>
<polygon fill="#FFFFFF" points="68.941,33.732 68.221,33.732 68.221,34.4 69.024,34.4 69.024,34.604 67.981,34.604 67.981,32.748 
	68.983,32.748 68.983,32.949 68.221,32.949 68.221,33.537 68.941,33.537 "/>
<path fill="#FFFFFF" d="M69.555,34.311c0.107,0.067,0.264,0.121,0.429,0.121c0.245,0,0.387-0.129,0.387-0.315
	c0-0.173-0.098-0.271-0.349-0.368c-0.303-0.107-0.49-0.264-0.49-0.523c0-0.291,0.24-0.506,0.6-0.506c0.19,0,0.328,0.045,0.41,0.092
	l-0.066,0.194c-0.061-0.032-0.183-0.088-0.352-0.088c-0.253,0-0.35,0.151-0.35,0.276c0,0.174,0.113,0.26,0.368,0.358
	c0.314,0.121,0.474,0.272,0.474,0.546c0,0.284-0.212,0.531-0.65,0.531c-0.178,0-0.373-0.052-0.473-0.117L69.555,34.311z"/>
<path fill="#FFFFFF" d="M71.078,34.021l-0.193,0.582h-0.247l0.629-1.854h0.289l0.633,1.854h-0.256l-0.198-0.582H71.078z
	 M71.686,33.832L71.504,33.3c-0.041-0.12-0.069-0.231-0.096-0.34h-0.005c-0.028,0.11-0.059,0.224-0.093,0.337l-0.182,0.535H71.686z"
	/>
<path fill="#FFFFFF" d="M72.296,34.604v-1.854h0.261l0.594,0.938c0.137,0.219,0.245,0.412,0.333,0.604l0.006-0.004
	c-0.022-0.247-0.027-0.473-0.027-0.762v-0.776h0.225v1.854h-0.242l-0.588-0.94c-0.13-0.206-0.253-0.418-0.347-0.62l-0.007,0.003
	c0.013,0.235,0.019,0.456,0.019,0.767v0.793h-0.227V34.604z"/>
<polygon fill="#FFFFFF" points="74.292,32.953 73.728,32.953 73.728,32.75 75.102,32.75 75.102,32.953 74.535,32.953 74.535,34.604 
	74.292,34.604 "/>
<path fill="#FFFFFF" d="M75.236,34.021l-0.192,0.582h-0.248l0.629-1.854h0.289l0.633,1.854h-0.256l-0.197-0.582H75.236z
	 M75.843,33.832L75.662,33.3c-0.042-0.12-0.068-0.231-0.096-0.34h-0.005c-0.027,0.11-0.059,0.224-0.093,0.337l-0.182,0.535H75.843z"
	/>
<path fill="#FFFFFF" d="M76.454,34.604v-1.854h0.261l0.594,0.938c0.138,0.219,0.245,0.412,0.332,0.604l0.006-0.004
	c-0.021-0.247-0.027-0.473-0.027-0.762v-0.776h0.225v1.854h-0.242l-0.589-0.94c-0.129-0.206-0.253-0.418-0.347-0.62l-0.008,0.003
	c0.014,0.235,0.02,0.456,0.02,0.767v0.793h-0.225V34.604z"/>
<path fill="#FFFFFF" d="M78.398,34.021l-0.193,0.582h-0.247l0.629-1.854h0.29l0.632,1.854h-0.256l-0.197-0.582H78.398z
	 M79.006,33.832L78.824,33.3c-0.041-0.12-0.068-0.231-0.096-0.34h-0.006c-0.027,0.11-0.059,0.224-0.093,0.337l-0.182,0.535H79.006z"
	/>
</svg>
